<svg xmlns="http://www.w3.org/2000/svg" viewBox="0 0 293.04 255.85"><defs><style>.cls-1{fill:#fc0;}</style></defs><g id="Capa_2" data-name="Capa 2"><g id="Capa_1-2" data-name="Capa 1"><path d="M273.4,222.35c-.51,4.16-1.14,4.71-5.13,4.71h-5.82c-4.29,0-4.74-.36-5.51-4.57h-6.83c-.65,4.16-1.13,4.57-5.28,4.57h-6c-3.93,0-4.56-.55-5.13-4.55h-5.83c.49.78.84,1.26,1.1,1.79.54,1.09,1.43,2.19,1.48,3.32a47.5,47.5,0,0,1-.22,9.47c-1,6.27-4.84,10.45-10.64,12.8-1.33.54-1.92,1.16-1.88,2.65.05,2.24-1.07,3.24-3.38,3.26-3,0-5.95,0-8.93,0-2.24,0-3.24-.87-3.4-3.07-.09-1.15-.49-1.63-1.64-1.59-1.69,0-3.37,0-5.05,0-1.13,0-1.6.37-1.67,1.56-.14,2.23-1.11,3.08-3.34,3.1-3.11,0-6.21,0-9.32,0a2.74,2.74,0,0,1-3-2.81c-.06-1.47-.62-1.95-2-1.85-1.14.08-2.29,0-3.5,0-.09.68-.14,1.11-.2,1.55-.28,2.1-1.34,3.08-3.47,3.1q-4.47,0-8.94,0c-2.27,0-3.43-.9-3.57-3.17-.1-1.64-1-1.51-2.07-1.48s-2.2-.31-2.39,1.43c-.3,2.61-1.09,3.21-3.64,3.22q-4.27,0-8.55,0c-2.45,0-3.25-.84-3.69-3.27a2,2,0,0,0-1.34-1.31,29.73,29.73,0,0,0-4.14-.07,16.59,16.59,0,0,1-.18,1.92c-.37,1.6-1.24,2.71-3,2.72-3.3,0-6.6,0-9.9,0-2,0-2.89-1.38-3-3.14-.09-1.22-.55-1.58-1.66-1.51a13.9,13.9,0,0,1-2.14,0c-1.81-.18-3.09,0-3.14,2.4a2.44,2.44,0,0,1-2.71,2.25q-5,.06-9.91,0a2.73,2.73,0,0,1-3-2.87c0-1.56-.72-1.78-2-1.8-6-.07-6-.1-6-6,0-2.2,0-4.4,0-6.6,0-1.28-.38-1.86-1.78-1.83-3.62.08-7.25.09-10.88,0-1.52,0-1.86.57-1.82,2,.08,2.84,0,5.69,0,8.54s-1.09,4-3.81,3.91c-1.94-.07-3.09.21-3.3,2.55-.07.78-1.61,2-2.56,2-3.34.25-6.72.14-10.09.08a2.72,2.72,0,0,1-2.88-3c0-1.7-1-1.66-2.13-1.67s-2,.09-2,1.61c-.08,2.19-1.13,3-3.37,3.06q-4.47,0-8.94,0c-2.23,0-3.26-.88-3.39-3.07-.08-1.33-.68-1.63-1.84-1.6s-2,0-2.16,1.5c-.28,2.53-1.13,3.16-3.69,3.17-2.92,0-5.83,0-8.74,0-2.17,0-3.22-.94-3.34-3.14-.07-1.23-.58-1.58-1.68-1.52-.58,0-1.16,0-1.75,0C1.24,251.07,0,249.9,0,247.52q0-14.09,0-28.16c0-2.12,1-3.28,3.11-3.44C4.68,215.8,5,215.11,5,213.7q-.1-21.27-.11-42.53Q4.93,115,5,58.72c0-4.61,3.41-7.86,8.26-7.87q25.64,0,51.27,0c2.61,0,3.91-2.05,2.74-4.39a1.58,1.58,0,0,0-1.06-.63,13.71,13.71,0,0,0-2.13-.06q-25.15,0-50.3,0c-4.14,0-7-2.15-8-5.76-1.17-4.35.15-8.52,3.63-10.3a11.41,11.41,0,0,1,5-1.06q25.16-.11,50.3,0c1.7,0,2.77-.23,3.55-2.08a7.06,7.06,0,0,1,6.93-4.43q42.44,0,84.87,0A7.72,7.72,0,0,1,168,30.18c0,27.77.16,55.54-.07,83.31-.1,12.56,9.84,21.3,21.37,21.3H239a52.51,52.51,0,0,1,48.36,32.91,45,45,0,0,1,3.14,16.46c0,2.46,0,4.92,0,7.38,0,1.78-.35,3.65,1.75,4.7a2,2,0,0,1,.76,1.5c0,3.54.26,7.16-.32,10.63a17,17,0,0,1-16.89,14C275,222.36,274.25,222.35,273.4,222.35ZM32.48,172.6c1.94-4.18,3.7-8.58,5.93-12.72,7.67-14.19,18.36-25.09,34-30.5,5.36-1.86,9.51-5.47,13-9.87,5.42-6.92,8.37-15,10.51-23.37,3-11.59,3.31-23.41,3.1-35.27-.06-3.32-.2-3.5-3.54-3.5H15c-3.37,0-3.5.12-3.5,3.51V164.76c0,.33,0,.65,0,1-.16,1.33.27,2,1.76,2.1a33.24,33.24,0,0,1,6.13.92C23.77,169.92,28.07,171.29,32.48,172.6Zm66.46-62.9c-1.9,3.54-3.4,6.7-5.22,9.67a39.39,39.39,0,0,1-20.45,17,47.66,47.66,0,0,0-10.94,5.76c-11.37,8-18.22,19.37-23,32.19-.61,1.64-.31,2.45,1.09,3.48,11.94,8.66,19.28,20.18,21.27,34.92.36,2.7.37,2.7,3,2.71,3.58,0,4.87,1.28,4.93,4.93,0,2.65,0,5.31,0,8,0,1.32.48,1.86,1.82,1.84,3.23-.06,6.47-.1,9.71,0,1.67.06,2.27-.46,2.23-2.19-.08-3.32,1.09-4.39,4.42-4.39h33.39c.8,0,1.59-.12,2.39-.18-5-22.59,2.42-40,21.3-53.38h-2.5c-6,0-12,.13-18.06-.06-13.9-.45-25.43-12.46-25.44-26.34q0-15.72,0-31.45ZM176,223.64h4.07c12.95,0,25.89,0,38.84.05,2,0,2.63-.62,2.51-2.55-.14-2.26,0-4.53,0-6.8,0-13.38-5.28-24.35-15.37-33-8.32-7.13-18.12-10.56-29-11.19-9-.53-17.72.15-26,4.53-17.14,9.09-25.82,28.27-20.73,46.56.49,1.77,1.22,2.47,3.17,2.46C147.69,223.6,161.86,223.64,176,223.64Zm-76.59-195c4.73,3.5,6.1,7.26,4.64,11.81C103,43.88,100,46,95.87,46q-9.9.06-19.81,0c-1.44,0-2.12.37-2.08,2,.07,2.36.1,2.49,2.52,2.51,7.18.07,14.37,0,21.54.24,4.26.13,7.19,3.19,7.57,7.42.13,1.42.17,2.85.18,4.27q0,28.64,0,57.28v2.41l.51.15,1.27-1.58c7.08-9.18,15.83-16.1,26.88-20a28.71,28.71,0,0,0,13.11-9.68c6-7.53,9.06-16.34,11.23-25.55,2.6-11.06,2.8-22.3,2.64-33.58,0-3.14-.17-3.32-3.27-3.32H99.45ZM207,141.31c-6.46,0-12.6.06-18.74,0-14.08-.17-27.23-11.45-26.89-27.36.22-10.22,0-20.45,0-30.67v-1.9a45.64,45.64,0,0,0-3,5.41c-5,9.62-12,17.1-22.55,20.75a42.27,42.27,0,0,0-4.28,1.82c-11.64,5.62-19.42,15-25.31,26.17a3,3,0,0,0-.39,1.28c-.24,7.21-.51,14.12,5.55,19.93,4.4,4.23,9.09,6.55,14.93,6.61,12.48.13,25,0,37.46,0,7.55,0,15.15-.56,22.63,1.12,1.34.3,1.65-.61,2.06-1.51a43.77,43.77,0,0,1,9.92-14.24C201.1,146.27,203.94,144,207,141.31Zm-12.48,25.28a12.11,12.11,0,0,0,1.27.7,52.1,52.1,0,0,1,28.1,26.29,2.75,2.75,0,0,0,2,1.26c18.7.06,37.4,0,56.11.08,1.48,0,1.9-.58,1.86-2-.07-2.65,0-5.31,0-8,0-11.46-4.18-21.23-12-29.4-12.63-13.15-28.72-15.86-45.78-13.9-10.24,1.17-18.64,6.74-25.34,14.61A34.29,34.29,0,0,0,194.54,166.59ZM33.27,215.48q9.81,0,19.6,0c2.2,0,2.39-.22,2.09-2.32-3.09-21.33-21-36.18-41.08-38.48-1.7-.19-2.41.22-2.4,2.13q.12,18.24,0,36.49c0,1.67.45,2.24,2.18,2.22C20.21,215.43,26.74,215.48,33.27,215.48Zm57.38,29h.61a15.31,15.31,0,0,0,.23-1.77c0-1.55,0-3.11,0-4.66,0-2.62,1.18-3.82,3.77-3.87,2.85,0,5.7,0,8.55,0,2.63,0,3.88,1.31,4,4,0,1.68-.08,3.38.09,5,.05.52.88,1.4,1.28,1.36,1.62-.15,3.48.93,4.84-.7.2-.24.08-.76.08-1.15,0-1.55,0-3.1,0-4.66.05-2.55,1.29-3.82,3.84-3.87,2.33,0,4.66,0,7,0,4.67,0,5.46.77,5.46,5.36,0,.52,0,1,0,1.55.08,3.87-.69,3.53,3.68,3.59,1.23,0,1.77-.41,1.73-1.68-.06-1.68,0-3.37,0-5,0-2.49,1.2-3.7,3.69-3.75,2.91-.06,5.83-.05,8.74,0,2.52,0,3.78,1.32,3.85,3.87,0,1.68.07,3.37,0,5.05s.92,1.54,2,1.57,2-.15,1.94-1.65c-.09-1.75-.06-3.5,0-5.24a3.35,3.35,0,0,1,3.52-3.58c3-.08,6.09-.07,9.13,0,2.3,0,3.55,1.36,3.62,3.68a40.24,40.24,0,0,1,0,4.66c-.15,1.77.6,2.35,2.25,2.13a5,5,0,0,1,1.16,0c1.35.13,1.84-.5,1.82-1.81,0-1.75,0-3.5.16-5.24.16-2.29,1.31-3.37,3.62-3.43,2.46,0,4.92,0,7.38,0,4.31,0,5.13.79,5.26,5,.18,5.77.18,5.77,5.94,5.46a1.2,1.2,0,0,1,.19,0c1.07.07,1.51-.46,1.52-1.51,0-1.81,0-3.62.16-5.43.16-2.4,1.3-3.49,3.73-3.53,2.72,0,5.44,0,8.15,0,3.18,0,4.34,1.16,4.4,4.32,0,1.45,0,2.9,0,4.46,3.65-1.16,5.9-4.9,5.92-9.24,0-3.1,0-3.1-3-3.1H93.33c-.45,0-.91,0-1.36,0-1.13-.06-1.66.4-1.65,1.58,0,3.69,0,7.38,0,11.07A4.87,4.87,0,0,0,90.65,244.43ZM62.76,236.3c0-4.18,0-7.73,0-11.29,0-2.59,0-2.6-2.56-2.6H23.53c-4.92,0-9.83,0-14.75,0-1.48,0-2.15.47-2.06,2s0,2.84,0,4.26v6.73a16.6,16.6,0,0,1,3.83-1.2c2.9-.17,5.82-.1,8.73-.05,2.41.05,3.69,1.31,3.8,3.73.07,1.48,0,3,0,4.46,0,1.18-.19,2.35,1.68,2.31s1.56-1.29,1.61-2.41c.06-1.61,0-3.23.18-4.84a3.16,3.16,0,0,1,3.4-3.23c3.1-.07,6.21-.07,9.31,0a3.13,3.13,0,0,1,3.4,3.22c.15,1.93.15,3.88.16,5.81,0,1.29.78,1.43,1.79,1.43s1.81-.09,1.78-1.41c0-1.74,0-3.49,0-5.24,0-2.59,1.2-3.78,3.81-3.83,2.39,0,4.78,0,7.18,0C59.36,234.05,61.17,234.18,62.76,236.3Zm164.31-34.43c.41,3.69.91,7.08,1.13,10.48.24,3.67.13,3.63,3.88,3.49,1.28-.05,1.71-.53,1.66-1.76-.05-1.74-.06-3.5,0-5.24a3.23,3.23,0,0,1,3.41-3.44c3.17-.06,6.34-.05,9.51,0a3.2,3.2,0,0,1,3.32,3.12,22.6,22.6,0,0,1,0,2.33c0,5.32,0,5.29,5.43,5,1.15-.07,1.62-.47,1.59-1.63-.05-1.75-.06-3.5,0-5.24a3.33,3.33,0,0,1,3.51-3.57q4.67-.08,9.33,0c2.24,0,3.38,1.26,3.43,3.57,0,1.68.07,3.37,0,5.05-.06,1.34.46,1.79,1.8,1.82,6.48.13,11.37-4.71,11.39-11.38,0-2.7,0-2.71-2.67-2.71H229.27C228.57,201.75,227.88,201.82,227.07,201.87ZM55,35.18H13.86c-1.13,0-1.59.61-1.67,1.69-.13,1.68.58,2.31,2.26,2.31q40.49,0,81,0c.32,0,.8.08.94-.09.52-.62,1.26-1.32,1.29-2s-.7-1.39-1.3-1.77-1.26-.12-1.91-.12ZM16.23,245.32h0a15.71,15.71,0,0,0-.06-3.07,1.79,1.79,0,0,0-1.31-1.14,1.76,1.76,0,0,0-1.26,1.19,34.78,34.78,0,0,0,0,5.59c0,.49.86.91,1.32,1.37.44-.48,1.11-.89,1.27-1.44A9.46,9.46,0,0,0,16.23,245.32ZM33.29,245c0,1,0,1.94,0,2.91s.5,1.53,1.41,1.27c.51-.14,1.21-.76,1.24-1.21a35,35,0,0,0,0-5.61c0-.49-.83-1.15-1.37-1.28-.31-.07-1.09.71-1.21,1.22A11.57,11.57,0,0,0,33.29,245Zm22.57.17a11.37,11.37,0,0,0-.06-2.68c-.14-.57-.82-1-1.26-1.5-.46.47-1.28.9-1.32,1.4a29.41,29.41,0,0,0,0,5.39,2,2,0,0,0,1.26,1.39c1.1.3,1.42-.5,1.4-1.49C55.84,246.88,55.86,246,55.86,245.2Zm45.05-.06a10.48,10.48,0,0,0-.06-2.69c-.14-.55-.85-1-1.31-1.43-.44.49-1.22.95-1.27,1.47a30.32,30.32,0,0,0,0,5.39c0,.49.86.92,1.32,1.38.44-.48,1.13-.89,1.27-1.44A10.41,10.41,0,0,0,100.91,245.14Zm44.3.17c0-.84,0-1.67,0-2.51S145.1,241,143.8,241s-1.32.78-1.31,1.69c0,1.67,0,3.34,0,5,0,1,.26,1.58,1.41,1.57s1.33-.75,1.32-1.66S145.21,246.08,145.21,245.31Zm41.9-.3a9.53,9.53,0,0,0-.06-2.51c-.16-.57-.82-1-1.26-1.48-.46.46-1.28.89-1.33,1.39a31.65,31.65,0,0,0,0,5.42,2.05,2.05,0,0,0,1.28,1.37c1.1.3,1.42-.48,1.39-1.48S187.11,245.91,187.11,245Zm24.08.23a13.91,13.91,0,0,0-.06-2.89c-.11-.51-.88-1.31-1.19-1.24-.55.12-1.35.77-1.39,1.26a35,35,0,0,0,0,5.61c0,.45.72,1.08,1.23,1.23.89.26,1.46-.22,1.42-1.25S211.19,246.15,211.19,245.24Zm31.95-28.7a18.45,18.45,0,0,0,0-3.07,1.69,1.69,0,0,0-1.18-1.09c-.42,0-1.2.64-1.22,1a47.41,47.41,0,0,0,0,6,1.6,1.6,0,0,0,1.18,1,1.63,1.63,0,0,0,1.22-1A14.43,14.43,0,0,0,243.14,216.54Zm20.79-.26a18.45,18.45,0,0,0,.05,3.07,1.67,1.67,0,0,0,1.17,1.07,1.62,1.62,0,0,0,1.24-1,47.41,47.41,0,0,0,0-6c0-.41-.85-1.16-1.14-1.09A2.05,2.05,0,0,0,264,213.6,10.89,10.89,0,0,0,263.93,216.28ZM123.51,245.1a12.06,12.06,0,0,0-.05-2.69c-.13-.52-.78-.91-1.19-1.36-.43.43-1.2.83-1.24,1.3a35.72,35.72,0,0,0,0,5.57c0,.47.77.88,1.19,1.32.43-.42,1.13-.78,1.24-1.27A13.72,13.72,0,0,0,123.51,245.1Zm42,0a10.32,10.32,0,0,0,0-2.49c-.16-.59-.77-1.06-1.18-1.58-.45.48-1.23.94-1.28,1.46a32.22,32.22,0,0,0,0,5.38c0,.48.76.9,1.16,1.35.45-.47,1.14-.88,1.29-1.44A11.93,11.93,0,0,0,165.48,245.12Z"/><path d="M117.36,17.29c-13.58,0-27.17-.14-40.75.08A8.2,8.2,0,0,1,68,9.25c0-5.6,3.06-9,8.46-9.23,1.48,0,3,0,4.46,0h76.85c4.62,0,7.74,2,8.75,5.86,1.79,6.93-2.5,11.61-8.36,11.5C144.54,17.12,131,17.29,117.36,17.29Zm0-6.52h39.41c.58,0,1.28.2,1.72-.06.67-.39,1.52-1,1.66-1.67.37-1.74-.44-2.28-3-2.28H77.74a10,10,0,0,0-1.55,0C74.71,7,73.86,9,74.93,10a3.88,3.88,0,0,0,2.45.7C90.71,10.78,104,10.76,117.38,10.77Z"/><path class="cls-1" d="M32.48,172.6c-4.41-1.31-8.71-2.68-13.07-3.85a33.24,33.24,0,0,0-6.13-.92c-1.49-.11-1.92-.77-1.76-2.1,0-.32,0-.64,0-1V60.88c0-3.39.13-3.51,3.5-3.51H95.41c3.34,0,3.48.18,3.54,3.5.21,11.86-.14,23.68-3.1,35.27-2.14,8.41-5.09,16.45-10.51,23.37-3.45,4.4-7.6,8-13,9.87-15.61,5.41-26.3,16.31-34,30.5C36.18,164,34.42,168.42,32.48,172.6Z"/><path class="cls-1" d="M98.94,109.7v2.52q0,15.72,0,31.45c0,13.88,11.54,25.89,25.44,26.34,6,.19,12,.05,18.06.06h2.5c-18.88,13.34-26.3,30.79-21.3,53.38-.8.06-1.59.18-2.39.18H87.86c-3.33,0-4.5,1.07-4.42,4.39,0,1.73-.56,2.25-2.23,2.19-3.24-.11-6.48-.07-9.71,0-1.34,0-1.85-.52-1.82-1.84,0-2.65,0-5.31,0-8-.06-3.65-1.35-4.91-4.93-4.93-2.66,0-2.67,0-3-2.71-2-14.74-9.33-26.26-21.27-34.92-1.4-1-1.7-1.84-1.09-3.48,4.75-12.82,11.6-24.17,23-32.19a47.66,47.66,0,0,1,10.94-5.76,39.39,39.39,0,0,0,20.45-17C95.54,116.4,97,113.24,98.94,109.7Z"/><path class="cls-1" d="M176,223.64c-14.18,0-28.35,0-42.53.05-1.95,0-2.68-.69-3.17-2.46-5.09-18.29,3.59-37.47,20.73-46.56,8.28-4.38,17-5.06,26-4.53,10.86.63,20.66,4.06,29,11.19,10.09,8.66,15.36,19.63,15.37,33,0,2.27-.1,4.54,0,6.8.12,1.93-.52,2.56-2.51,2.55-12.95-.09-25.89-.05-38.84-.05Z"/><path class="cls-1" d="M99.45,28.62h58.71c3.1,0,3.23.18,3.27,3.32.16,11.28,0,22.52-2.64,33.58-2.17,9.21-5.26,18-11.23,25.55a28.71,28.71,0,0,1-13.11,9.68c-11,3.85-19.8,10.77-26.88,20l-1.27,1.58-.51-.15v-2.41q0-28.65,0-57.28c0-1.42-.05-2.85-.18-4.27-.38-4.23-3.31-7.29-7.57-7.42-7.17-.22-14.36-.17-21.54-.24-2.42,0-2.45-.15-2.52-2.51,0-1.6.64-2,2.08-2q9.91.07,19.81,0c4.08,0,7.11-2.16,8.22-5.61C105.55,35.88,104.18,32.12,99.45,28.62Z"/><path class="cls-1" d="M207,141.31c-3.08,2.66-5.92,5-8.6,7.45A43.77,43.77,0,0,0,188.5,163c-.41.9-.72,1.81-2.06,1.51-7.48-1.68-15.08-1.08-22.63-1.12-12.49-.08-25,.08-37.46,0-5.84-.06-10.53-2.38-14.93-6.61-6.06-5.81-5.79-12.72-5.55-19.93a3,3,0,0,1,.39-1.28c5.89-11.19,13.67-20.55,25.31-26.17a42.27,42.27,0,0,1,4.28-1.82c10.54-3.65,17.53-11.13,22.55-20.75a45.64,45.64,0,0,1,3-5.41v1.9c0,10.22.18,20.45,0,30.67-.34,15.91,12.81,27.19,26.89,27.36C194.42,141.37,200.56,141.31,207,141.31Z"/><path class="cls-1" d="M194.54,166.59a34.29,34.29,0,0,1,6.2-10.28c6.7-7.87,15.1-13.44,25.34-14.61,17.06-2,33.15.75,45.78,13.9,7.85,8.17,12.07,17.94,12,29.4,0,2.65-.05,5.31,0,8,0,1.38-.38,2-1.86,2-18.71,0-37.41,0-56.11-.08a2.75,2.75,0,0,1-2-1.26,52.1,52.1,0,0,0-28.1-26.29A12.11,12.11,0,0,1,194.54,166.59Z"/><path class="cls-1" d="M33.27,215.48c-6.53,0-13.06,0-19.6,0-1.73,0-2.19-.55-2.18-2.22q.09-18.26,0-36.49c0-1.91.7-2.32,2.4-2.13,20.06,2.3,38,17.15,41.08,38.48.3,2.1.11,2.32-2.09,2.32Q43.08,215.5,33.27,215.48Z"/><path class="cls-1" d="M90.65,244.43a4.87,4.87,0,0,1-.3-1.21c0-3.69,0-7.38,0-11.07,0-1.18.52-1.64,1.65-1.58.45,0,.91,0,1.36,0H220.94c3,0,3,0,3,3.1,0,4.34-2.27,8.08-5.92,9.24,0-1.56,0-3,0-4.46-.06-3.16-1.22-4.3-4.4-4.32-2.71,0-5.43,0-8.15,0-2.43,0-3.57,1.13-3.73,3.53-.11,1.81-.14,3.62-.16,5.43,0,1.05-.45,1.58-1.52,1.51a1.2,1.2,0,0,0-.19,0c-5.76.31-5.76.31-5.94-5.46-.13-4.23-1-5-5.26-5-2.46,0-4.92,0-7.38,0-2.31.06-3.46,1.14-3.62,3.43-.13,1.74-.18,3.49-.16,5.24,0,1.31-.47,1.94-1.82,1.81a5,5,0,0,0-1.16,0c-1.65.22-2.4-.36-2.25-2.13a40.24,40.24,0,0,0,0-4.66c-.07-2.32-1.32-3.63-3.62-3.68-3-.06-6.09-.07-9.13,0a3.35,3.35,0,0,0-3.52,3.58c-.06,1.74-.09,3.49,0,5.24.07,1.5-.75,1.68-1.94,1.65s-2.1,0-2-1.57,0-3.37,0-5.05c-.07-2.55-1.33-3.83-3.85-3.87-2.91,0-5.83,0-8.74,0-2.49,0-3.64,1.26-3.69,3.75,0,1.68-.06,3.37,0,5,0,1.27-.5,1.7-1.73,1.68-4.37-.06-3.6.28-3.68-3.59,0-.52,0-1,0-1.55,0-4.59-.79-5.36-5.46-5.36-2.33,0-4.66,0-7,0-2.55.05-3.79,1.32-3.84,3.87,0,1.56,0,3.11,0,4.66,0,.39.12.91-.08,1.15-1.36,1.63-3.22.55-4.84.7-.4,0-1.23-.84-1.28-1.36-.17-1.67,0-3.37-.09-5-.08-2.66-1.33-3.93-4-4-2.85,0-5.7,0-8.55,0-2.59.05-3.73,1.25-3.77,3.87,0,1.55,0,3.11,0,4.66a15.31,15.31,0,0,1-.23,1.77Z"/><path class="cls-1" d="M62.76,236.3c-1.59-2.12-3.4-2.25-5.32-2.19-2.4.07-4.79,0-7.18,0-2.61.05-3.76,1.24-3.81,3.83,0,1.75,0,3.5,0,5.24,0,1.32-.77,1.41-1.78,1.41s-1.79-.14-1.79-1.43c0-1.93,0-3.88-.16-5.81a3.13,3.13,0,0,0-3.4-3.22c-3.1-.07-6.21-.07-9.31,0a3.16,3.16,0,0,0-3.4,3.23c-.13,1.61-.12,3.23-.18,4.84-.05,1.12.29,2.38-1.61,2.41s-1.68-1.13-1.68-2.31c0-1.49,0-3,0-4.46-.11-2.42-1.39-3.68-3.8-3.73-2.91,0-5.83-.12-8.73.05a16.6,16.6,0,0,0-3.83,1.2v-6.73c0-1.42.06-2.85,0-4.26s.58-2,2.06-2c4.92.06,9.83,0,14.75,0H60.2c2.55,0,2.55,0,2.56,2.6C62.77,228.57,62.76,232.12,62.76,236.3Z"/><path class="cls-1" d="M227.07,201.87c.81-.05,1.5-.12,2.2-.12h54.57c2.68,0,2.68,0,2.67,2.71,0,6.67-4.91,11.51-11.39,11.38-1.34,0-1.86-.48-1.8-1.82.08-1.68.05-3.37,0-5.05-.05-2.31-1.19-3.53-3.43-3.57q-4.66-.08-9.33,0a3.33,3.33,0,0,0-3.51,3.57c-.07,1.74-.06,3.49,0,5.24,0,1.16-.44,1.56-1.59,1.63-5.43.31-5.42.34-5.43-5a22.6,22.6,0,0,0,0-2.33,3.2,3.2,0,0,0-3.32-3.12c-3.17-.06-6.34-.07-9.51,0a3.23,3.23,0,0,0-3.41,3.44c-.08,1.74-.07,3.5,0,5.24,0,1.23-.38,1.71-1.66,1.76-3.75.14-3.64.18-3.88-3.49C228,209,227.48,205.56,227.07,201.87Z"/><path class="cls-1" d="M55,35.18H94.44c.65,0,1.44-.18,1.91.12s1.33,1.18,1.3,1.77-.77,1.39-1.29,2c-.14.17-.62.09-.94.09q-40.48,0-81,0c-1.68,0-2.39-.63-2.26-2.31.08-1.08.54-1.68,1.67-1.69H55Z"/><path class="cls-1" d="M16.23,245.32a9.46,9.46,0,0,1-.05,2.5c-.16.55-.83,1-1.27,1.44-.46-.46-1.28-.88-1.32-1.37a34.78,34.78,0,0,1,0-5.59,1.76,1.76,0,0,1,1.26-1.19,1.79,1.79,0,0,1,1.31,1.14,15.71,15.71,0,0,1,.06,3.07Z"/><path class="cls-1" d="M33.29,245a11.57,11.57,0,0,1,.06-2.7c.12-.51.9-1.29,1.21-1.22.54.13,1.33.79,1.37,1.28a35,35,0,0,1,0,5.61c0,.45-.73,1.07-1.24,1.21-.91.26-1.44-.26-1.41-1.27S33.29,246,33.29,245Z"/><path class="cls-1" d="M55.86,245.2c0,.84,0,1.68,0,2.51,0,1-.3,1.79-1.4,1.49a2,2,0,0,1-1.26-1.39,29.41,29.41,0,0,1,0-5.39c0-.5.86-.93,1.32-1.4.44.5,1.12.93,1.26,1.5A11.37,11.37,0,0,1,55.86,245.2Z"/><path class="cls-1" d="M100.92,245.14a10.86,10.86,0,0,1-.06,2.68c-.14.55-.83,1-1.27,1.44-.46-.46-1.27-.89-1.32-1.38a30.32,30.32,0,0,1,0-5.39c0-.52.83-1,1.27-1.47.46.47,1.17.88,1.31,1.43A10.94,10.94,0,0,1,100.92,245.14Z"/><path class="cls-1" d="M145.21,245.31c0,.77,0,1.54,0,2.31s-.1,1.65-1.32,1.66-1.42-.58-1.41-1.57c0-1.67,0-3.34,0-5,0-.91.12-1.67,1.31-1.69s1.42.81,1.41,1.79S145.21,244.47,145.21,245.31Z"/><path class="cls-1" d="M187.11,245c0,.9,0,1.81,0,2.71s-.29,1.78-1.39,1.48a2.05,2.05,0,0,1-1.28-1.37,31.65,31.65,0,0,1,0-5.42c0-.5.87-.93,1.33-1.39.44.49,1.1.91,1.26,1.48A9.53,9.53,0,0,1,187.11,245Z"/><path class="cls-1" d="M211.19,245.24c0,.91,0,1.81,0,2.72s-.53,1.51-1.42,1.25c-.51-.15-1.2-.78-1.23-1.23a35,35,0,0,1,0-5.61c0-.49.84-1.14,1.39-1.26.31-.07,1.08.73,1.19,1.24A13.91,13.91,0,0,1,211.19,245.24Z"/><path class="cls-1" d="M243.14,216.54a14.43,14.43,0,0,1-.06,2.87,1.63,1.63,0,0,1-1.22,1,1.6,1.6,0,0,1-1.18-1,47.41,47.41,0,0,1,0-6c0-.39.8-1,1.22-1a1.69,1.69,0,0,1,1.18,1.09A18.45,18.45,0,0,1,243.14,216.54Z"/><path class="cls-1" d="M263.92,216.28a11.4,11.4,0,0,1,.06-2.68,2.05,2.05,0,0,1,1.27-1.22c.29-.07,1.12.68,1.14,1.09a47.41,47.41,0,0,1,0,6,1.62,1.62,0,0,1-1.24,1,1.67,1.67,0,0,1-1.17-1.07A19.58,19.58,0,0,1,263.92,216.28Z"/><path class="cls-1" d="M123.51,245.1a13.72,13.72,0,0,1-.06,2.87c-.11.49-.81.85-1.24,1.27-.42-.44-1.16-.85-1.19-1.32a35.72,35.72,0,0,1,0-5.57c0-.47.81-.87,1.24-1.3.41.45,1.06.84,1.19,1.36A12.06,12.06,0,0,1,123.51,245.1Z"/><path class="cls-1" d="M165.47,245.12a11.38,11.38,0,0,1-.05,2.68c-.15.56-.84,1-1.29,1.44-.4-.45-1.12-.87-1.16-1.35a32.22,32.22,0,0,1,0-5.38c.05-.52.83-1,1.28-1.46.41.52,1,1,1.18,1.58A9.85,9.85,0,0,1,165.47,245.12Z"/><path class="cls-1" d="M117.38,10.77c-13.34,0-26.67,0-40,0a3.88,3.88,0,0,1-2.45-.7c-1.07-1-.22-3,1.26-3.24a10,10,0,0,1,1.55,0h79.41c2.58,0,3.39.54,3,2.28-.14.66-1,1.28-1.66,1.67-.44.26-1.14.06-1.72.06Z"/></g></g></svg>