<svg xmlns="http://www.w3.org/2000/svg" viewBox="0 0 278.52 285.89"><defs><style>.cls-1{fill:#e1a507;}.cls-2{fill:#fc0;}</style></defs><g id="Capa_2" data-name="Capa 2"><g id="Capa_1-2" data-name="Capa 1"><path d="M96.45,58.16c-7.72,5.33-15.63,5.9-24,2a4.55,4.55,0,0,0-3.15,0c-4.71,1.71-9.53.66-12.65-2.94s-3.53-8.43-1.2-12.93a3.66,3.66,0,0,0,.19-2.68c-1.6-4.4-3.42-8.72-5-13.12-1.31-3.57.47-6.77,4-7.52,2.77-.59,5.24.8,6.4,3.7,1.71,4.28,3.33,8.61,5.11,12.86a3.67,3.67,0,0,0,1.93,1.85,11.49,11.49,0,0,1,7.46,7.35,3.29,3.29,0,0,0,1.66,1.89c2.38.79,4.89,1.9,7.29,1.79a8.89,8.89,0,0,0,8.2-8A9.24,9.24,0,0,0,87,32.46C76.83,28,66.61,23.51,56.4,19L43.33,13.31c-5.49-2.41-10.92-.58-13.13,4.42s.08,10.35,5.69,12.81c1.56.69,3.16,1.29,4.66,2.09a4.52,4.52,0,0,1,2,1.79c1.75,3.89-2.15,9.54-6.32,9A21.68,21.68,0,0,1,17.61,24C16.16,7.05,32.38-4.75,48,1.87c14.7,6.25,29.29,12.76,43.9,19.21a21,21,0,0,1,11.65,12.64c.19.52.41,1,.69,1.74,4.18-2,8-1,11.87.89A10,10,0,0,1,122,44.14a3.34,3.34,0,0,0,2,2.9c8.62,3.83,17.12,8,25.91,11.36,8.32,3.23,16.95,5.67,25.43,8.52a2.88,2.88,0,0,0,3.07-.57A10.11,10.11,0,0,1,188.92,65c2.59,1,5.11,2.11,7,4.38A3.12,3.12,0,0,0,198,70c16.15.68,31.53,4.28,45.52,12.6,16.42,9.75,28.19,23.44,33.21,42.07,3.7,13.71,1.93,26.88-6.92,38.43-7.21,9.4-17.2,13.85-28.8,15.11-18.3,2-35.56-2.1-52.41-8.79-8.78-3.49-17.67-6.73-27.18-7.63a54.25,54.25,0,0,0-18,.9C134.2,164.91,129,171,127.79,180c-.81,6.22-.47,12.6-.57,18.9a1.91,1.91,0,0,0,.86,1.48c5.41,2.57,6.75,7.18,6.3,12.59a2.46,2.46,0,0,0,1.55,2.78,17.59,17.59,0,0,1,8.85,10.73,3.79,3.79,0,0,0,2.47,2.59c6,2.68,7.44,8.89,3.34,14a2.47,2.47,0,0,0-.39,1.84,44.29,44.29,0,0,0,1.37,4.92,6.42,6.42,0,0,1-.75,6.14c5.29.93,6.33,5.17,7.08,9.25,1.19,6.4-1.4,11.54-6.35,15.54-8.75,7.08-23.23,6.78-31.49-.89a18.6,18.6,0,0,1-4.73-6.93c-4.54-12.47-8.82-25-13.07-37.61-2.1-6.2-.24-11.59,4.23-16.48-2-2.71-2-5.92-1.82-9.11a7.79,7.79,0,0,1,.9-3.89c1.56-2.23,1.19-4.53,1-6.93-.79-10.45-.13-20.75,3.63-30.65,4.59-12.11,13-20.3,25.34-24.37a13.71,13.71,0,0,0,1.39-.53c.11,0,.17-.21.36-.48-4.6-2.42-9.15-4.88-13.75-7.23C108.43,128,93.3,120.31,77.32,114.47c-5.65-2.06-11.38-3.64-17.5-2.41a26.73,26.73,0,0,0-13.61,7.1c-4.6,4.49-5.15,10.08-3.73,16,.52,2.2,1.29,4.35,2,6.5.88,2.53,1.88,4.8,4.57,6.27s4.09,4.47,4.11,7.76c0,2.89.34,5.84-1.22,8.54-.17.29.16,1,.46,1.4,4.6,5.29,5.38,11.08,3,17.67-4.15,11.48-8,23.07-12,34.61-2.65,7.71-8.38,11.84-16,13.36-8.93,1.77-17-.08-23.34-7a15.41,15.41,0,0,1-1.49-19c1-1.53,2.84-2.51,4.44-3.86-1.89-2.35-.44-5.23.44-8,.67-2.14.73-3.73-.79-5.77-3.21-4.29-1-10.26,4.4-12.55a3.72,3.72,0,0,0,2.41-2.63A17.57,17.57,0,0,1,22,162a2.64,2.64,0,0,0,1.56-2.84c-.18-3.06-.17-6.1,1.63-8.86.3-.46-.05-1.47-.29-2.16-3.25-9.34-4.28-18.84-1.64-28.49,3-11,10.46-18.1,20.38-23,14-7,28.12-7,42.15-.56,28.91,13.27,57.53,27.14,85.31,42.69,13.23,7.4,26.91,13.82,41.72,17.48,8.41,2.08,16.91,3.16,25.56,2,14.16-1.89,22.44-14.46,18.75-28.34-3.1-11.67-10.09-20.47-19.91-27.27-12.14-8.41-25.76-11.92-40.32-12.54-2.57-.11-4.66.1-6.76,2-2.81,2.6-6.46,2.78-10,1.46-2.79-1-5.57-2.16-7.4-4.78a3.31,3.31,0,0,0-1.8-1c-19.8-5.35-38.39-13.56-56.26-23.51a3.72,3.72,0,0,0-2.49-.54A14.43,14.43,0,0,1,97.08,59ZM47.25,161.57c.1-1.76.24-3.19.25-4.63,0-3.17-.81-4.25-3.66-5.53a4.42,4.42,0,0,1-2.22-2A114.37,114.37,0,0,1,37,136.57c-2.78-10.73.62-19.09,9.86-25.2S65.8,104.65,76.05,108c12.51,4.13,24.39,9.73,36.14,15.6,10.86,5.43,21.56,11.19,32.34,16.77,1.76.91,2.79,2.18,2.47,4.24s-1.77,2.77-3.58,3.09l-1,.19c-14.42,3.12-23.85,11.62-28,25.87-2.7,9.24-2.9,18.63-1.83,28.09.24,2,.29,3.8-1.32,5.5s-1.36,6-.1,7.72a66.9,66.9,0,0,1,8.48-2.24,66.84,66.84,0,0,1,8.84-.09c.9-4.39-.29-6.52-4.3-7.59a2.86,2.86,0,0,1-2.45-3c0-6.88-.37-13.79.09-20.65.9-13.33,9.1-22.28,22.16-24.73a60,60,0,0,1,28.29,1.27c9,2.67,17.85,6.09,26.78,9.13,14.24,4.84,28.78,7.45,43.81,5,13.74-2.23,23.56-9.53,28-23.09,3.91-12.09,1.82-23.62-4.06-34.57C257.28,97,242.43,86,223.63,80.05a93.71,93.71,0,0,0-25.14-4.28c-1,2.94-1.93,5.7-2.9,8.54.55,0,1,.08,1.39.09,13.15.59,25.76,3.21,37.38,9.73,13.47,7.55,23.54,18,28,33.13,5.22,17.91-4.94,34-23.39,36.59-10.36,1.45-20.54-.15-30.56-2.93-15.51-4.31-29.79-11.43-43.76-19.24-26.43-14.77-53.72-27.8-81.18-40.48-11.46-5.28-23.14-5.71-34.9-.63-14.3,6.18-21.33,16.41-21.06,31.16a44.85,44.85,0,0,0,3.72,16.75c.62,1.46.92,2.88-.4,4.12-1.9,1.8-1.8,4-1.46,6.45A27.85,27.85,0,0,1,47.25,161.57ZM144,258.43a33.52,33.52,0,0,1-2.29-4.11A44.64,44.64,0,0,1,140,248.4a3.28,3.28,0,0,0-2.51-2.7c-5.73-1.81-8.94-8.4-4.75-13.78A2.46,2.46,0,0,0,133,230c-1.73-6.12-8.47-8.9-14.59-6.08-4.07,1.88-5.39,5-3.93,9.19,4,11.73,8.44,23.36,12,35.23,2.12,7.05,11.22,9.13,16.71,4.91a6.11,6.11,0,0,0,2.3-7.14,31.81,31.81,0,0,1-1.27-3.83A27.07,27.07,0,0,1,144,258.43ZM14.38,204.32a42.68,42.68,0,0,1-.49,4.5c-.27,1.31-1.06,2.53-1.21,3.83a7.51,7.51,0,0,0,.36,4.1c1.92,3.7,5.42,4.85,9.33,4.69s7.35-1.6,8.75-5.6c4.41-12.5,8.65-25.06,13-37.59a5.59,5.59,0,0,0-1.27-6.11c-3-3.06-6.71-3.82-10.79-2.83a8.58,8.58,0,0,0-6.85,7,2.38,2.38,0,0,0,.38,1.65c3.33,4.89,2.15,10.68-3.3,13a7.14,7.14,0,0,0-4.69,5.94,14.08,14.08,0,0,1-.93,3.27C16,201.66,15.1,203,14.38,204.32ZM38.47,36.15c-1.91-.84-3.75-1.59-5.53-2.46A13.45,13.45,0,0,1,26.49,16,13.29,13.29,0,0,1,43.65,9q22.91,9.8,45.64,20a13.21,13.21,0,0,1,7.29,15.08A13,13,0,0,1,83.51,54.46c-2.56-.08-5.09-.94-7.77-1.47L74.3,56.3c9.54,4.87,20.32,1.41,24.69-7.84s.25-19.62-9.37-23.91l-5.45-2.41C71.56,16.62,59,11.06,46.33,5.59a17.55,17.55,0,0,0-21.07,5.34c-7.7,10-3.14,23.75,9.29,28C37.6,40,37.94,39.73,38.47,36.15ZM176.72,73.31c-19.4-6.11-38.39-11.88-56-21.47-1.12,2.55-2.16,4.93-3.35,7.63,6.3,3.16,12.44,6.4,18.71,9.37a208.1,208.1,0,0,0,35,13.07c.76.2,2.27,0,2.47-.44C174.78,78.86,175.68,76.13,176.72,73.31ZM141.46,227.65c-1.59-2.22-2.66-4.26-4.23-5.81-7.09-7-20.69-7-27.78,0-3.62,3.58-4.92,7.8-3.15,12.84,4.23,12,8.27,24.17,12.57,36.19a16,16,0,0,0,3.74,5.82c7.17,7.07,20.92,6.75,27.91-.47a11.59,11.59,0,0,0,2.39-13.54c-1.27-2.83-1.75-3-4.73-1.34l.67,2c2.63,7.72-.58,13.67-8.49,15.71-7.22,1.85-14.72-1.33-16.92-7.51-4.52-12.7-8.88-25.46-13.22-38.22-1.36-4-.26-7.58,2.73-10.53a13.52,13.52,0,0,1,9.64-3.9c6.93-.07,12.09,2.71,14.35,9.77ZM21.28,174.71c3.07-7.38,7.82-10.38,15.48-9.73s14,7.19,11.07,15.19c-4.21,11.69-8.17,23.46-12.24,35.2-2.74,7.92-8.91,11.43-17.1,9.84-6.44-1.25-12.78-7.43-9.13-15.69a15.93,15.93,0,0,0,.64-2.15c-2.81-1.59-3.46-1.39-4.65,1.27a11.56,11.56,0,0,0,2.53,13.7c4.83,4.74,10.82,6.17,17.31,5.22,6.72-1,12.05-4.13,14.41-11q6.12-17.82,12.25-35.64c1.84-5.35.69-10-3.68-13.6-6-4.93-12.8-5.82-20.06-3.6-5.13,1.57-9,4.65-10.77,10Zm80.63-118.4c1.54.72,2.85,1.38,4.21,1.95,2.66,1.11,5.22.33,6.49-2.25,1.38-2.78,2.54-5.68,3.68-8.58a4,4,0,0,0-1.21-4.83,18.12,18.12,0,0,0-5.73-2.55c-1.16-.31-2.89-.15-2.93,1.83C106.32,47,104.67,51.6,101.91,56.31Zm75.67,29.8c1.48.7,2.66,1.32,3.88,1.84,3.18,1.36,5.74.41,7.19-2.71.92-2,1.66-4.08,2.63-6,3-6.15-1.83-8.59-6.56-9.31-1-.16-2.39,0-2.49,1.61A30.7,30.7,0,0,1,177.58,86.11Zm-165.41,114a3.23,3.23,0,0,0,.37-.51c.7-2.38,1.51-4.73,2.05-7.14S16.05,188.11,19,188a4,4,0,0,0,1.73-.75c3.53-2.16,3.5-6.07-.1-8.14a8.44,8.44,0,0,0-8-.32c-3.92,1.76-4.41,5.5-1.08,8.21a2.55,2.55,0,0,1,1,3.13c-.76,2.35-1.32,4.77-2.07,7.13C10,198.9,10.6,199.72,12.17,200.15Zm133.72,54.14c2.21-1.17,2.3-1.33,1.76-3.25-.63-2.25-1.31-4.49-2-6.74a2.81,2.81,0,0,1,1.05-3.35c3.25-2.58,2.89-6.15-.86-7.94a10.86,10.86,0,0,0-4.72-.94c-3.38.07-6.14,2.44-6.25,5s2,4.6,5.49,5.23a3.13,3.13,0,0,1,2.81,2.68C144,248,145,251.06,145.89,254.29ZM58.07,49.87A6.94,6.94,0,1,0,65.25,43,7.17,7.17,0,0,0,58.07,49.87Zm4.31-10.71C60.61,34.64,59,30.29,57.17,26c-.21-.5-1.31-.64-2-1-.24.66-.83,1.45-.65,2,1.59,4.38,3.33,8.7,5.06,13.15Z"/><path class="cls-1" d="M47.25,161.57a27.85,27.85,0,0,0-17.91-2.52c-.34-2.44-.44-4.65,1.46-6.45,1.32-1.24,1-2.66.4-4.12a44.85,44.85,0,0,1-3.72-16.75c-.27-14.75,6.76-25,21.06-31.16,11.76-5.08,23.44-4.65,34.9.63,27.46,12.68,54.75,25.71,81.18,40.48,14,7.81,28.25,14.93,43.76,19.24,10,2.78,20.2,4.38,30.56,2.93,18.45-2.59,28.61-18.68,23.39-36.59-4.43-15.18-14.5-25.58-28-33.13C222.74,87.61,210.13,85,197,84.4c-.42,0-.84-.05-1.39-.09,1-2.84,1.9-5.6,2.9-8.54a93.71,93.71,0,0,1,25.14,4.28c18.8,6,33.65,16.91,43.09,34.51,5.88,11,8,22.48,4.06,34.57-4.4,13.56-14.22,20.86-28,23.09-15,2.43-29.57-.18-43.81-5-8.93-3-17.74-6.46-26.78-9.13a60,60,0,0,0-28.29-1.27c-13.06,2.45-21.26,11.4-22.16,24.73-.46,6.86-.1,13.77-.09,20.65a2.86,2.86,0,0,0,2.45,3c4,1.07,5.2,3.2,4.3,7.59a66.84,66.84,0,0,0-8.84.09,66.9,66.9,0,0,0-8.48,2.24c-1.26-1.72-1.52-6,.1-7.72s1.56-3.46,1.32-5.5c-1.07-9.46-.87-18.85,1.83-28.09,4.15-14.25,13.58-22.75,28-25.87l1-.19c1.81-.32,3.26-1.08,3.58-3.09s-.71-3.33-2.47-4.24c-10.78-5.58-21.48-11.34-32.34-16.77-11.75-5.87-23.63-11.47-36.14-15.6-10.25-3.39-20-2.71-29.16,3.33S34.25,125.84,37,136.57a114.37,114.37,0,0,0,4.59,12.81,4.42,4.42,0,0,0,2.22,2c2.85,1.28,3.69,2.36,3.66,5.53C47.49,158.38,47.35,159.81,47.25,161.57Z"/><path class="cls-2" d="M38.47,36.15c-.53,3.58-.87,3.8-3.92,2.76-12.43-4.23-17-17.95-9.29-28A17.55,17.55,0,0,1,46.33,5.59c12.63,5.47,25.23,11,37.84,16.55l5.45,2.41c9.62,4.29,13.71,14.74,9.37,23.91S83.84,61.17,74.3,56.3L75.74,53c2.68.53,5.21,1.39,7.77,1.47A13,13,0,0,0,96.58,44.09,13.21,13.21,0,0,0,89.29,29Q66.54,18.87,43.65,9A13.29,13.29,0,0,0,26.49,16a13.45,13.45,0,0,0,6.45,17.71C34.72,34.56,36.56,35.31,38.47,36.15Z"/><path class="cls-1" d="M176.72,73.31c-1,2.82-1.94,5.55-3.13,8.16-.2.44-1.71.64-2.47.44a208.1,208.1,0,0,1-35-13.07c-6.27-3-12.41-6.21-18.71-9.37,1.19-2.7,2.23-5.08,3.35-7.63C138.33,61.43,157.32,67.2,176.72,73.31Z"/><path class="cls-2" d="M141.46,227.65l-4.52,1c-2.26-7.06-7.42-9.84-14.35-9.77a13.52,13.52,0,0,0-9.64,3.9c-3,2.95-4.09,6.51-2.73,10.53,4.34,12.76,8.7,25.52,13.22,38.22,2.2,6.18,9.7,9.36,16.92,7.51,7.91-2,11.12-8,8.49-15.71l-.67-2c3-1.64,3.46-1.49,4.73,1.34a11.59,11.59,0,0,1-2.39,13.54c-7,7.22-20.74,7.54-27.91.47a16,16,0,0,1-3.74-5.82c-4.3-12-8.34-24.14-12.57-36.19-1.77-5-.47-9.26,3.15-12.84,7.09-7,20.69-7,27.78,0C138.8,223.39,139.87,225.43,141.46,227.65Z"/><path class="cls-2" d="M21.28,174.71l-3.94-1c1.75-5.39,5.64-8.47,10.77-10,7.26-2.22,14.1-1.33,20.06,3.6,4.37,3.61,5.52,8.25,3.68,13.6q-6.1,17.82-12.25,35.64c-2.36,6.88-7.69,10-14.41,11-6.49.95-12.48-.48-17.31-5.22a11.56,11.56,0,0,1-2.53-13.7c1.19-2.66,1.84-2.86,4.65-1.27a15.93,15.93,0,0,1-.64,2.15c-3.65,8.26,2.69,14.44,9.13,15.69,8.19,1.59,14.36-1.92,17.1-9.84,4.07-11.74,8-23.51,12.24-35.2,2.89-8-3.41-14.54-11.07-15.19S24.35,167.33,21.28,174.71Z"/><path class="cls-2" d="M101.91,56.31c2.76-4.71,4.41-9.33,4.51-14.43,0-2,1.77-2.14,2.93-1.83a18.12,18.12,0,0,1,5.73,2.55,4,4,0,0,1,1.21,4.83c-1.14,2.9-2.3,5.8-3.68,8.58-1.27,2.58-3.83,3.36-6.49,2.25C104.76,57.69,103.45,57,101.91,56.31Z"/><path class="cls-2" d="M177.58,86.11a30.7,30.7,0,0,0,4.65-14.62c.1-1.64,1.46-1.77,2.49-1.61,4.73.72,9.57,3.16,6.56,9.31-1,2-1.71,4.06-2.63,6-1.45,3.12-4,4.07-7.19,2.71C180.24,87.43,179.06,86.81,177.58,86.11Z"/><path class="cls-2" d="M12.17,200.15c-1.57-.43-2.14-1.25-1.64-2.85.75-2.36,1.31-4.78,2.07-7.13a2.55,2.55,0,0,0-1-3.13c-3.33-2.71-2.84-6.45,1.08-8.21a8.44,8.44,0,0,1,8,.32c3.6,2.07,3.63,6,.1,8.14A4,4,0,0,1,19,188c-3,.07-3.86,2-4.42,4.46s-1.35,4.76-2.05,7.14A3.23,3.23,0,0,1,12.17,200.15ZM16.27,186c2,0,3.35-1.08,3.35-2.75a3.06,3.06,0,0,0-3.19-2.79,3,3,0,0,0-3.32,2.84C13.1,184.86,14.38,186,16.27,186Z"/><path class="cls-2" d="M145.89,254.29C145,251.06,144,248,143.21,245a3.13,3.13,0,0,0-2.81-2.68c-3.52-.63-5.6-2.72-5.49-5.23s2.87-4.92,6.25-5a10.86,10.86,0,0,1,4.72.94c3.75,1.79,4.11,5.36.86,7.94a2.81,2.81,0,0,0-1.05,3.35c.65,2.25,1.33,4.49,2,6.74C148.19,253,148.1,253.12,145.89,254.29ZM142,233.71c-2.19,0-4.09,1.56-4.11,3.45s1.66,3.53,4,3.57a3.54,3.54,0,1,0,.15-7Z"/><path class="cls-2" d="M58.07,49.87a6.94,6.94,0,1,1,7,7.06A7.09,7.09,0,0,1,58.07,49.87ZM68.85,50a3.8,3.8,0,0,0-3.77-4,3.83,3.83,0,0,0-4,3.84,3.76,3.76,0,0,0,3.8,4A3.68,3.68,0,0,0,68.85,50Z"/><path class="cls-2" d="M62.38,39.16l-2.79,1c-1.73-4.45-3.47-8.77-5.06-13.15-.18-.5.41-1.29.65-2,.68.31,1.78.45,2,1C59,30.29,60.61,34.64,62.38,39.16Z"/><path d="M16.27,186c-1.89,0-3.17-1.11-3.16-2.7a3,3,0,0,1,3.32-2.84,3.06,3.06,0,0,1,3.19,2.79C19.62,184.89,18.28,186,16.27,186Zm2.32-2.42c-.91-.72-1.4-1.41-1.79-1.36a7,7,0,0,0-2.06,1c.42.39.82,1.06,1.27,1.1A8.84,8.84,0,0,0,18.59,183.55Z"/><path d="M142,233.71a3.54,3.54,0,1,1-.15,7c-2.3,0-4-1.55-4-3.57S139.8,233.68,142,233.71Zm-.83,1.76c-.25.64-.74,1.28-.62,1.77a1.73,1.73,0,0,0,1.37,1c.52-.06,1-.72,1.47-1.11Z"/><path d="M68.85,50a3.68,3.68,0,0,1-3.95,3.8,3.76,3.76,0,0,1-3.8-4,3.83,3.83,0,0,1,4-3.84A3.8,3.8,0,0,1,68.85,50Zm-6.45-.65,0,1C63.24,51,64,52,65,52.14A2,2,0,0,0,67.25,50c0-1.41-.83-2.43-2.2-2.23C64.11,47.87,63.28,48.79,62.4,49.37Z"/><path class="cls-2" d="M18.59,183.55a8.84,8.84,0,0,1-2.58.73c-.45,0-.85-.71-1.27-1.1a7,7,0,0,1,2.06-1C17.19,182.14,17.68,182.83,18.59,183.55Z"/><path class="cls-2" d="M141.16,235.47l2.22,1.62c-.49.39-.95,1-1.47,1.11a1.73,1.73,0,0,1-1.37-1C140.42,236.75,140.91,236.11,141.16,235.47Z"/><path class="cls-2" d="M62.4,49.37c.88-.58,1.71-1.5,2.65-1.63,1.37-.2,2.2.82,2.2,2.23A2,2,0,0,1,65,52.14C64,52,63.24,51,62.38,50.39Z"/></g></g></svg>