<svg xmlns="http://www.w3.org/2000/svg" viewBox="0 0 289.62 257.3"><defs><style>.cls-1{fill:#fc0;}</style></defs><g id="Capa_2" data-name="Capa 2"><g id="Capa_1-2" data-name="Capa 1"><path d="M126.43,22.33c0-4.21,0-8.29,0-12.38.06-6.08,3.9-9.87,10-9.94,1.11,0,2.22,0,3.32,0C142.7-.09,144,1.4,144,4.24c0,5.21-.06,10.42.07,15.62,0,.91.89,1.8,1.37,2.71A8.34,8.34,0,0,0,146.64,20c.16-2.54-.15-5.11.15-7.63a5.09,5.09,0,0,1,1.94-3.48c5.44-3,14.17.87,15.72,6.91.52,2.06.48,4.28,1.3,6.41,0-5.07,0-10.13,0-15.19,0-4.56,1.4-5.83,5.86-5.05,38.06,6.64,63.26,28.74,77,64.39,6.2,16.05,9.07,32.79,9.78,49.94a5.35,5.35,0,0,0,1.65,3.53c4,3.36,5.41,7.33,3.83,11.74-1.48,4.14-5,6.4-10.2,6.4q-45.53,0-91.05,0-63.46,0-126.93,0c-4.24,0-7.66-1.37-9.59-5.26a9.69,9.69,0,0,1,.94-10.64c.06-.09.11-.21.2-.26,4.46-2.36,3.78-6.62,4-10.61,1.45-25.26,7.24-49.26,21.64-70.49,15.36-22.65,37.21-35.07,64-39.28,5.14-.81,6.3.32,6.3,5.58,0,4.32.1,8.64,0,13C123.11,22.17,123.77,23.11,126.43,22.33Zm-87.8,95.79H250.77c0-1.4,0-2.6,0-3.8A143.49,143.49,0,0,0,244,75.54c-6.85-21.05-18-39.15-36.69-51.85A90,90,0,0,0,173.57,9.93c-.11,1.11-.26,2-.27,2.82,0,4.21,0,8.42,0,12.62-.06,3.52-1.15,4.59-4.56,4.65-2.21.05-4.43,0-6.64,0-3.43-.06-4.54-1.11-4.71-4.56-.1-2.21.18-4.47-.14-6.63-.17-1.11-1.31-2.06-2-3.09l-1,.56c0,3.08,0,6.17,0,9.26-.05,2.91-1.43,4.53-4.51,4.48s-6,0-9,0c-2.75,0-4.1-1.45-4.2-4.07s0-5.31,0-8c0-3.45,0-6.9,0-10.35l-1.39-.26a13.91,13.91,0,0,0-1.21,3.77c-.15,4.87-.08,9.74-.06,14.62,0,2.87-1.33,4.3-4.24,4.27s-5.54,0-8.31,0c-4.46,0-5.48-1-5.5-5.43,0-5,0-10.09,0-15.34-19.16,3.51-35.5,11.39-48.52,25.53C53.66,49.55,46.22,67.34,42,86.68A141.8,141.8,0,0,0,38.63,118.12ZM144.76,130.4h107a6.91,6.91,0,0,0,2.62-.08,12.65,12.65,0,0,0,2.56-2,16.21,16.21,0,0,0-2.57-2.35c-.57-.34-1.51-.06-2.29-.06H37.47a5.66,5.66,0,0,0-2.3.06,15.53,15.53,0,0,0-2.53,2,11.54,11.54,0,0,0,2.55,2.32c.81.38,2,.09,3,.09Z"/><path d="M268.1,205.06c-.43,11.22-3.34,21.21-9.73,29.95-10.5,14.35-24.72,21.76-42.51,22.1-9.85.19-19.71.07-29.57.15-7.25.06-12.18-2.88-15.4-9.74-5-10.68-13.78-16.56-25.71-16.92-12.49-.38-22,5.18-27.36,16.36-3.64,7.64-9,10.56-17.07,10.33-11.62-.35-23.3.26-34.84-.79-23.71-2.16-43.51-23-45.26-46.69-.11-1.43-.25-2.85-.43-4.74-1.64,0-3.15.05-4.66,0C6.41,204.69.1,198.17,0,189c0-3.77,0-7.54,0-11.3.12-8.87,6.66-15.61,15.56-15.54,3.55,0,5.57-.63,7.32-4.19,2.93-6,8.38-9.06,15.13-9.06q106.17-.06,212.34,0c7.61,0,13,4,16.09,10.83.83,1.83,1.76,2.45,3.67,2.36a30.56,30.56,0,0,1,6.63.22A15,15,0,0,1,289.32,176a97.34,97.34,0,0,1,.05,14.59c-.62,8.44-6.78,14.1-15.29,14.5C272.21,205.14,270.33,205.06,268.1,205.06Z"/><path d="M144.38,156.33H127.1q-43.86,0-87.72,0c-7.13,0-11.33,4.25-11.35,11.35,0,12.52-.09,25-.08,37.55,0,20.84,15.12,40.17,35.67,43.13,13.26,1.9,26.92,1,40.4,1.26,3.26.06,5-2.05,6.4-4.91C117,231,128,223.48,143.17,223.1c15.63-.4,27.32,6.76,34.28,20.71,2.27,4.57,5.24,6.08,9.83,6,10-.12,19.93,0,29.89-.27,22.14-.57,41.18-17.89,42.82-40,1-13.65.41-27.43.43-41.16,0-8.18-4.06-12.08-12.37-12.08Q196.23,156.32,144.38,156.33Z"/><path d="M268.14,197.53c1.79,0,3.32,0,4.85,0,5.76-.08,9-3.29,9.07-9.1.06-3.54.1-7.08,0-10.62a8.27,8.27,0,0,0-7.59-8.23c-2-.18-4.12,0-6.3,0Z"/><path d="M20,169.85c-8.74-1.26-12.55,1.94-12.55,10.38,0,2.21.19,4.44,0,6.63-.8,7.5,4.46,12.17,12.59,10.29Z"/><path class="cls-1" d="M38.63,118.12A141.8,141.8,0,0,1,42,86.68c4.18-19.34,11.62-37.13,25.23-51.89,13-14.14,29.36-22,48.52-25.53,0,5.25,0,10.3,0,15.34,0,4.42,1,5.41,5.5,5.43,2.77,0,5.54,0,8.31,0s4.26-1.4,4.24-4.27c0-4.88-.09-9.75.06-14.62a13.91,13.91,0,0,1,1.21-3.77l1.39.26c0,3.45,0,6.9,0,10.35,0,2.66-.07,5.32,0,8s1.45,4.09,4.2,4.07c3,0,6,0,9,0s4.46-1.57,4.51-4.48c.05-3.09,0-6.18,0-9.26l1-.56c.69,1,1.83,2,2,3.09.32,2.16,0,4.42.14,6.63.17,3.45,1.28,4.5,4.71,4.56,2.21,0,4.43.05,6.64,0,3.41-.06,4.5-1.13,4.56-4.65.07-4.2,0-8.41,0-12.62,0-.86.16-1.71.27-2.82a90,90,0,0,1,33.69,13.76C226,36.39,237.1,54.49,244,75.54a143.49,143.49,0,0,1,6.82,38.78c0,1.2,0,2.4,0,3.8Z"/><path class="cls-1" d="M144.76,130.4H38.14c-1,0-2.14.29-3-.09A11.54,11.54,0,0,1,32.64,128a15.53,15.53,0,0,1,2.53-2,5.66,5.66,0,0,1,2.3-.06H252c.78,0,1.72-.28,2.29.06a16.21,16.21,0,0,1,2.57,2.35,12.65,12.65,0,0,1-2.56,2,6.91,6.91,0,0,1-2.62.08Z"/><path class="cls-1" d="M144.38,156.33q51.84,0,103.67,0c8.31,0,12.38,3.9,12.37,12.08,0,13.73.59,27.51-.43,41.16-1.64,22.11-20.68,39.43-42.82,40-10,.25-19.93.15-29.89.27-4.59,0-7.56-1.46-9.83-6-7-13.95-18.65-21.11-34.28-20.71-15.2.38-26.15,7.94-32.75,21.61-1.38,2.86-3.14,5-6.4,4.91-13.48-.25-27.14.64-40.4-1.26C43.07,245.4,28,226.07,28,205.23c0-12.52.05-25,.08-37.55,0-7.1,4.22-11.34,11.35-11.35q43.86,0,87.72,0ZM39.24,186.68c0,3.1.08,6.2,0,9.3-.28,8.92,3.36,16.11,9.75,22a44.06,44.06,0,0,0,20.71,10.65c12.34,2.78,24.86,2.39,37.32,1.23a17.7,17.7,0,0,0,13.59-8.07c5.29-8.34,13.14-11.66,22.41-12,9.53-.33,18.4,1.8,24.22,10.27,4,5.87,9.38,9.48,16.38,10s14.16.53,21.23.41c11.27-.19,22-2.6,31.33-9.27,9-6.44,14.21-14.93,13.83-26.4-.22-6.53-.07-13.07,0-19.6,0-4.63-1.81-8.42-5.88-10.38A24.44,24.44,0,0,0,234,162.2q-89.36-.24-178.72-.11c-.78,0-1.55,0-2.33,0-8.62.55-13.72,6-13.73,14.59Z"/><path class="cls-1" d="M268.14,197.53v-28c2.18,0,4.26-.15,6.3,0a8.27,8.27,0,0,1,7.59,8.23c.13,3.54.09,7.08,0,10.62-.09,5.81-3.31,9-9.07,9.1C271.46,197.55,269.93,197.53,268.14,197.53Z"/><path class="cls-1" d="M20,169.85v27.3C11.87,199,6.61,194.36,7.41,186.86c.23-2.19,0-4.42,0-6.63C7.45,171.79,11.26,168.59,20,169.85Z"/><path d="M39.24,186.68v-10c0-8.61,5.11-14,13.73-14.59.78-.05,1.55,0,2.33,0q89.36,0,178.72.11a24.44,24.44,0,0,1,10.06,2.65c4.07,2,5.92,5.75,5.88,10.38,0,6.53-.19,13.07,0,19.6.38,11.47-4.79,20-13.83,26.4-9.36,6.67-20.06,9.08-31.33,9.27-7.07.12-14.18.1-21.23-.41s-12.34-4.12-16.38-10c-5.82-8.47-14.69-10.6-24.22-10.27-9.27.33-17.12,3.65-22.41,12A17.7,17.7,0,0,1,107,229.89c-12.46,1.16-25,1.55-37.32-1.23A44.06,44.06,0,0,1,49,218c-6.39-5.92-10-13.11-9.75-22C39.32,192.88,39.24,189.78,39.24,186.68Zm105.12-17.17q-44,0-88.05,0a19.35,19.35,0,0,0-4,.25c-4.29.92-5.68,2.74-5.69,7.14,0,6.42.06,12.85,0,19.27a20.24,20.24,0,0,0,5.43,14.21c5.21,5.81,11.86,9.21,19.33,11,11.24,2.63,22.7,2.08,34,1.09a13.85,13.85,0,0,0,9.06-5.31c6.93-10.11,16.7-14.43,28.27-14.79,12.75-.4,24.05,3.13,31.53,14.65a12.4,12.4,0,0,0,10.41,5.71c9,.19,17.94.29,26.87-.23A38.67,38.67,0,0,0,230,216.3c8.16-5.13,13-12,12.51-22.16-.32-6-.17-12,0-17.93.08-3.36-1.52-5.22-4.51-6a19.13,19.13,0,0,0-4.89-.64Q188.71,169.49,144.36,169.51Z"/><path class="cls-1" d="M144.36,169.51q44.34,0,88.7,0a19.13,19.13,0,0,1,4.89.64c3,.82,4.59,2.68,4.51,6-.16,6-.31,12,0,17.93.54,10.16-4.35,17-12.51,22.16a38.67,38.67,0,0,1-18.39,6.16c-8.93.52-17.92.42-26.87.23A12.4,12.4,0,0,1,174.29,217c-7.48-11.52-18.78-15-31.53-14.65-11.57.36-21.34,4.68-28.27,14.79a13.85,13.85,0,0,1-9.06,5.31c-11.33,1-22.79,1.54-34-1.09-7.47-1.74-14.12-5.14-19.33-11a20.24,20.24,0,0,1-5.43-14.21c.08-6.42,0-12.85,0-19.27,0-4.4,1.4-6.22,5.69-7.14a19.35,19.35,0,0,1,4-.25Q100.34,169.49,144.36,169.51Z"/></g></g></svg>