<svg xmlns="http://www.w3.org/2000/svg" viewBox="0 0 231.48 267.78"><defs><style>.cls-1{fill:#e1a507;}.cls-2{fill:#fc0;}.cls-3{fill:#fff;}</style></defs><g id="Capa_2" data-name="Capa 2"><g id="Capa_1-2" data-name="Capa 1"><path d="M231.48,158.74a23.33,23.33,0,0,0-18.11-23.08c-14.39-3.3-24.16-12-30.18-25.22-4.6-10.11-6.59-20.84-7.61-31.83-1.51-16.15-1.67-32.11,4-47.72,3.2-8.77-2.65-17.94-11.84-19.41a52.24,52.24,0,0,0-8.22-.36h-1.76a3.32,3.32,0,0,1-2.84-1.6c-.24-.32-.48-.65-.73-1a98.25,98.25,0,0,0-17.53-6,93,93,0,0,0-41.33-.43A90.87,90.87,0,0,0,77.81,7.73,11.31,11.31,0,0,1,71.26,11a19.27,19.27,0,0,1-3.65.19c-12-.37-18.81,9.82-15.17,21.33a92.78,92.78,0,0,1,4,18.84c.68,6.69.31,13.53.11,20.28a115.34,115.34,0,0,1-4.15,27.62c-5.24,18.93-15.8,32.41-36,37C6.58,138.45,0,148.06,0,158.21q0,42.43,0,84.91a24.49,24.49,0,0,0,24.71,24.57h91c30.17,0,60.35-.17,90.54.08a25,25,0,0,0,25.2-25.06Q231.11,200.73,231.48,158.74ZM80.54,19.22s0,0,0,0a34.18,34.18,0,0,1,2.92-5.54c2.53-.91,5.4-1.81,8.59-2.61a93.89,93.89,0,0,1,56.5,3.35c.31.49.6,1,.89,1.51a34.44,34.44,0,0,1,1.61,3.29l0,.09a31.18,31.18,0,0,1,2.42,12.78C153.11,45.14,147,54.92,136,61.63a39.49,39.49,0,0,1-49.2-7.13A32.85,32.85,0,0,1,80.54,19.22ZM100,179.81H36.6c-4.28,0-6.62-1.62-6.68-4.56s2.34-4.69,6.77-4.69q33.08,0,66.16,0c3.16,0,3.16,0,3.16,3.27C106,179.81,106,179.81,100,179.81Zm6,78.33a2.46,2.46,0,0,1-.07.29,1.7,1.7,0,0,1-.71,1,2.36,2.36,0,0,1-.39.19,4.77,4.77,0,0,1-1.6.21c-26-.06-52.08,0-78.12-.05a18.46,18.46,0,0,1-3.53-.34,16.47,16.47,0,0,1-2.46-.66,17.11,17.11,0,0,1-2.27-1,15.85,15.85,0,0,1-5.42-4.7,15,15,0,0,1-.88-1.36c-.14-.23-.27-.47-.4-.72a15.77,15.77,0,0,1-1-2.27,18.17,18.17,0,0,1-1-6q0-22.65,0-45.29V158.77a21.08,21.08,0,0,1,.11-2.13l.12-.88c.06-.38.12-.75.2-1.11a14.3,14.3,0,0,1,3.15-6.39c.15-.16.28-.31.43-.46a6.09,6.09,0,0,1,.44-.44l.47-.43a13.78,13.78,0,0,1,1.54-1.16,18.29,18.29,0,0,1,5.81-2.43,50.21,50.21,0,0,0,20.83-10.17c1-.83,2-1.71,2.9-2.63.47-.46.94-.93,1.4-1.42s.91-1,1.35-1.5c1.22-1.41,2.35-2.85,3.41-4.33.21-.29.42-.59.62-.89.41-.6.81-1.2,1.19-1.81A62.31,62.31,0,0,0,57,111c.54-1.32,1-2.66,1.51-4s.89-2.73,1.28-4.11q.66-2.34,1.2-4.74c.12-.53.23-1.06.34-1.6.15-.7.29-1.4.43-2.1.27-1.4.54-2.8.79-4.2s.48-2.8.69-4.2C65.53,70.93,65.94,55.7,63,40.4c-.09-.47-.19-.93-.29-1.39-.42-1.86-1-3.69-1.52-5.52-.43-1.37-.87-2.73-1.31-4.09-1.8-5.67,1.26-10.11,7.16-10.2,1.36,0,2.73,0,4.22,0h0c-.12.89-.26,1.75-.39,2.59s-.27,1.67-.4,2.48-.23,1.61-.33,2.4S70,28.26,70,29h0a44.26,44.26,0,0,0,3.37,19.89h0c.38.86.79,1.7,1.22,2.53h0c.44.82.91,1.63,1.4,2.42h0c.75,1.19,1.56,2.34,2.43,3.46.59.74,1.2,1.47,1.84,2.18s1.32,1.4,2,2.08a49.33,49.33,0,0,0,7.06,5.64Q90.59,68.13,92,69l1.41.81a52.11,52.11,0,0,0,10.21,3.94l.32.11a3.76,3.76,0,0,1,.57.24,2.74,2.74,0,0,1,.84.6,1.93,1.93,0,0,1,.28.36,2.5,2.5,0,0,1,.32.92.84.84,0,0,1,0,.27,2.66,2.66,0,0,1,0,.57,1.48,1.48,0,0,1,0,.21c0,1.32,0,2.65,0,4s0,2.64,0,4c0,2.65,0,5.31,0,8v66.19c0,.74,0,1.32,0,1.78a2.41,2.41,0,0,1-.15.79l-.09.22c-.36.61-1.19.61-3.06.61q-33.91,0-67.83,0a13.83,13.83,0,0,0-6.39,1.54,11.65,11.65,0,0,0-1.58,1c-.33.24-.65.5-1,.77l-.44.42a12.31,12.31,0,0,0-3.68,8.83,13.86,13.86,0,0,0,.14,1.91c.05.32.1.64.18,1s.16.65.26,1a11.49,11.49,0,0,0,.74,1.93,11.79,11.79,0,0,0,1.62,2.52c.21.25.43.49.66.73a11.59,11.59,0,0,0,1.5,1.29,13.27,13.27,0,0,0,7.81,2.46c12.78,0,25.57,0,38.36,0h8.23c7.3,0,14.6,0,21.91-.05h0a6.46,6.46,0,0,1,1,.07,2.64,2.64,0,0,1,.52.13,1.7,1.7,0,0,1,.62.35,1.06,1.06,0,0,1,.15.15.83.83,0,0,1,.13.18,2.23,2.23,0,0,1,.2.41,2.71,2.71,0,0,1,.11.54,1.36,1.36,0,0,1,0,.29,5.5,5.5,0,0,1,0,.71c0,.74-.06,1.48-.08,2.22s0,1.54,0,2.31c0,1.46,0,2.91.11,4.36a4.34,4.34,0,0,1-.09,1.25,1.82,1.82,0,0,1-.07.25v0a2.13,2.13,0,0,1-.2.4l0,0a.61.61,0,0,1-.14.17.75.75,0,0,1-.16.15l-.19.13a2.12,2.12,0,0,1-.77.27l-.2,0a7.94,7.94,0,0,1-1,.06q-10.4-.06-20.79-.05l-17.81,0c-10.13,0-20.27-.07-30.4,0a12.32,12.32,0,0,0-11.7,8.62c-.11.34-.2.69-.29,1a13,13,0,0,0-.31,1.74c0,.19,0,.39-.05.58a12,12,0,0,0,6.4,11.61h0c.47.23,1,.44,1.48.63l.46.16a14.66,14.66,0,0,0,1.64.45c.31.07.63.13.95.18a17.19,17.19,0,0,0,2.84.24q8.24,0,16.48.06c16.73,0,33.46,0,50.19,0,1.85,0,2.79,0,3.26.46s.48,1.37.48,3.23q0,6.06,0,12.11,0,3.41,0,6.81c0,2.27,0,4.54,0,6.81A5.8,5.8,0,0,1,105.92,258.14Zm-6.15-38.55H69.62c-5.49,0-11,0-16.49,0H36.66c-4.4,0-6.83-1.71-6.74-4.73s2.42-4.51,6.72-4.51c22.13,0,44.26,0,66.39-.06,2.35,0,3.09.66,3,3C106,219.57,106.06,219.59,99.77,219.59ZM117.33,259a.62.62,0,0,1-.1.22,1,1,0,0,1-.54.41,2,2,0,0,1-.88.13.85.85,0,0,1-.22,0,1.22,1.22,0,0,1-.24-.1,2.64,2.64,0,0,1-.7-.53,3.82,3.82,0,0,1-.36-.46,1.27,1.27,0,0,1-.12-.23,6.09,6.09,0,0,1-.09-2.31V79.25c0-.56-.07-1.16,0-1.72a2.48,2.48,0,0,1,.15-.82,1.37,1.37,0,0,1,.25-.41,2,2,0,0,1,1.3-.75.76.76,0,0,1,.21,0,1.52,1.52,0,0,1,.45.21,2.17,2.17,0,0,1,.86,1h0a2.13,2.13,0,0,1,.11.5.13.13,0,0,1,0,.06,16.38,16.38,0,0,1,0,2v88.64q0,19.76,0,39.5,0,12.34,0,24.69t0,24.68A6.52,6.52,0,0,1,117.33,259ZM132,210.33q30.64,0,61.29,0a16.85,16.85,0,0,1,3,.15,4.53,4.53,0,0,1,0,8.94,15.42,15.42,0,0,1-2.8.15c-10.69,0-21.36,0-32,0-11,0-22,0-33,0-2.22,0-3-.61-2.94-2.89C125.7,210.33,125.59,210.33,132,210.33Zm91.51-30.18q0,20.53,0,41v20.52a21.42,21.42,0,0,1-1.27,7.53q-.15.41-.33.81a15.45,15.45,0,0,1-1.2,2.28c-.15.23-.3.47-.47.7a14.77,14.77,0,0,1-1.62,1.9,15.33,15.33,0,0,1-3.33,2.52c-.26.14-.51.28-.77.4a20.45,20.45,0,0,1-9.14,2H128.9c-1.59,0-2.39,0-2.79-.41s-.4-1.21-.4-2.82c0-2.39,0-4.78,0-7.16,0-4.27,0-8.54,0-12.81v-.18q0-1.45,0-2.91c0-1,0-1.93,0-2.9a1.93,1.93,0,0,1,0-.24,1.06,1.06,0,0,1,0-.31c0-.09,0-.19,0-.28a3.38,3.38,0,0,1,.21-1,1.47,1.47,0,0,1,.22-.39,1.48,1.48,0,0,1,.37-.38,2.17,2.17,0,0,1,.46-.22l.15-.05.43-.1a6.67,6.67,0,0,1,1.16-.08l17.44,0q16.68,0,33.34,0l15.89,0a15.27,15.27,0,0,0,3-.29,12.51,12.51,0,0,0,5.48-2.52c.27-.23.54-.47.79-.71a3.41,3.41,0,0,0,.38-.38,13.87,13.87,0,0,0,1-1.25c.21-.3.4-.6.59-.92a13.78,13.78,0,0,0,.74-1.49,14.36,14.36,0,0,0,.83-2.79,12.55,12.55,0,0,0-6.12-13.37,11,11,0,0,0-1.09-.54,11.19,11.19,0,0,0-1.14-.44,12.89,12.89,0,0,0-3.77-.62l-3.73-.05c-3.45,0-6.9,0-10.35,0l-5.8,0-21.11,0h-4.78l-9.73,0h-3.37l-8.49,0a7.17,7.17,0,0,1-.84,0l-.28,0-.21,0a2.65,2.65,0,0,1-.85-.3,1.88,1.88,0,0,1-.34-.28l-.15-.18a1.07,1.07,0,0,1-.13-.21,4,4,0,0,1-.24-2c0-.35,0-.7.06-1.05a71.38,71.38,0,0,0,0-7.6,3.75,3.75,0,0,1,.22-1.76,1.69,1.69,0,0,1,.23-.36l.15-.16a1.49,1.49,0,0,1,.29-.2,3.82,3.82,0,0,1,1.87-.33c11.7.09,23.39,0,35.09,0,8.55,0,17.09,0,25.64,0l6.64,0a15.13,15.13,0,0,0,1.93-.13,12.1,12.1,0,0,0,5-1.77,10.59,10.59,0,0,0,1.37-1.05c.22-.19.43-.4.63-.61A3.74,3.74,0,0,0,205,184a11.28,11.28,0,0,0,.87-1.07,14.22,14.22,0,0,0,1.4-2.49,16.13,16.13,0,0,0,.76-2.06,11.72,11.72,0,0,0-1.41-9.71,16.41,16.41,0,0,0-1.46-2c-.16-.19-.33-.37-.49-.54a12.07,12.07,0,0,0-1.6-1.38,8.21,8.21,0,0,0-.73-.47,8.58,8.58,0,0,0-1-.56,12.92,12.92,0,0,0-4-1.1l-.7-.07c-.5,0-1-.06-1.51-.06q-32.16,0-64.33,0a20.1,20.1,0,0,0-2.33,0,3.47,3.47,0,0,1-1.67-.12,1.37,1.37,0,0,1-.52-.33,1,1,0,0,1-.14-.15,1.77,1.77,0,0,1-.3-.58,5,5,0,0,1-.18-1.56c.1-9,0-18.09,0-27.13q0-20.61,0-41.23,0-6.87,0-13.74a8.79,8.79,0,0,1,0-.92,2.2,2.2,0,0,1,0-.36,3.46,3.46,0,0,1,.23-.91c.38-.93,1.18-1.51,2.73-2a54.3,54.3,0,0,0,13-5.74c1-.6,1.89-1.23,2.79-1.88.3-.22.6-.44.89-.67,7.82-6,13.12-14.47,15.58-25.56a37,37,0,0,0,.52-12.71q-.08-.61-.18-1.23c-.2-1.23-.45-2.46-.76-3.68,0-.12-.06-.24-.08-.35-.09-.36-.16-.73-.23-1.14s-.13-.69-.21-1.1c2.59,0,5-.37,7.19.08a5.75,5.75,0,0,1,2.57,1.22,5.14,5.14,0,0,1,.42.38A7.91,7.91,0,0,1,172,28.8c-.53,1.94-1.09,3.88-1.63,5.82-.36,1.29-.71,2.59-1.05,3.89-.25,1-.5,2-.73,2.93s-.44,2-.64,2.94c-.25,1.22-.45,2.44-.62,3.67v0c-.17,1.22-.29,2.44-.4,3.67a127.33,127.33,0,0,0-.06,15.75c0,.92.09,1.84.13,2.76,0,.74.07,1.47.11,2.21.13,2.21.28,4.41.48,6.61a120.15,120.15,0,0,0,5,25.94,66.35,66.35,0,0,0,9.89,19.84c.45.59.9,1.16,1.37,1.73l.71.85c.73.84,1.48,1.66,2.27,2.46a49.67,49.67,0,0,0,5.11,4.54,50.48,50.48,0,0,0,18.93,8.83c.53.13,1,.28,1.54.44s1,.33,1.44.51l.68.29a12.85,12.85,0,0,1,1.29.63c.41.22.81.46,1.19.71l.56.38c.36.26.71.54,1,.83a13.35,13.35,0,0,1,2.86,3.5c.21.38.41.78.59,1.18a10.46,10.46,0,0,1,.49,1.25,20.05,20.05,0,0,1,1,6.64Zm-97.92-3.21c.09-6.39,0-6.39,6.41-6.39q30.64,0,61.29,0a17,17,0,0,1,3,.14,4.43,4.43,0,0,1,3.82,4.59,4.38,4.38,0,0,1-3.8,4.37,16.27,16.27,0,0,1-2.8.15h-32c-11,0-22-.06-33,0C126.31,179.87,125.58,179.21,125.61,176.94Z"/><path class="cls-1" d="M153.52,32.07C153.11,45.14,147,54.92,136,61.63a39.49,39.49,0,0,1-49.2-7.13,32.85,32.85,0,0,1-6.22-35.28s0,0,0,0a34.18,34.18,0,0,1,2.92-5.54c2.53-.91,5.4-1.81,8.59-2.61a93.89,93.89,0,0,1,56.5,3.35c.31.49.6,1,.89,1.51a34.44,34.44,0,0,1,1.61,3.29l0,.09A31.18,31.18,0,0,1,153.52,32.07Z"/><path class="cls-2" d="M223.53,159.62v82.1a21.42,21.42,0,0,1-1.27,7.53q-.15.41-.33.81a15.45,15.45,0,0,1-1.2,2.28c-.15.23-.3.47-.47.7a14.77,14.77,0,0,1-1.62,1.9,15.33,15.33,0,0,1-3.33,2.52c-.26.14-.51.28-.77.4a20.45,20.45,0,0,1-9.14,2H128.9c-1.59,0-2.39,0-2.79-.41s-.4-1.21-.4-2.82c0-2.39,0-4.78,0-7.16,0-4.27,0-8.54,0-12.81v-.18q0-2.91-.06-5.82a7.18,7.18,0,0,1,0-.82,3.38,3.38,0,0,1,.21-1,1.47,1.47,0,0,1,.22-.39,1.48,1.48,0,0,1,.37-.38,2.17,2.17,0,0,1,.46-.22l.15-.05.43-.1a7.94,7.94,0,0,1,1.16-.07q8.73,0,17.44,0,16.68,0,33.34,0l15.89,0a15.27,15.27,0,0,0,3-.29,12.51,12.51,0,0,0,5.48-2.52,8.73,8.73,0,0,0,.79-.71,3.41,3.41,0,0,0,.38-.38,11.12,11.12,0,0,0,1-1.25,9.61,9.61,0,0,0,.59-.92,10.88,10.88,0,0,0,.74-1.49,14.36,14.36,0,0,0,.83-2.79,12.55,12.55,0,0,0-6.12-13.37,11,11,0,0,0-1.09-.54,11.19,11.19,0,0,0-1.14-.44,12.89,12.89,0,0,0-3.77-.62l-3.73-.05c-3.45,0-6.9,0-10.35,0l-5.8,0-21.11,0h-4.78l-9.73,0h-3.37l-8.5,0c-.3,0-.58,0-.83,0l-.28,0-.21,0a2.65,2.65,0,0,1-.85-.3,1.88,1.88,0,0,1-.34-.28l-.15-.18a1.07,1.07,0,0,1-.13-.21,4,4,0,0,1-.24-2c0-.35,0-.7.06-1.05a71.38,71.38,0,0,0,0-7.6,3.75,3.75,0,0,1,.22-1.76,1.69,1.69,0,0,1,.23-.36l.15-.16a2.11,2.11,0,0,1,.29-.2,3.82,3.82,0,0,1,1.87-.33c11.7.09,23.39,0,35.09,0,8.55,0,17.09,0,25.64,0l6.64,0a15.13,15.13,0,0,0,1.93-.13,12.1,12.1,0,0,0,5-1.77,10.59,10.59,0,0,0,1.37-1.05c.22-.19.43-.4.63-.61A3.74,3.74,0,0,0,205,184a11.28,11.28,0,0,0,.87-1.07,14.22,14.22,0,0,0,1.4-2.49,16.13,16.13,0,0,0,.76-2.06,11.72,11.72,0,0,0-1.41-9.71,16.41,16.41,0,0,0-1.46-2c-.16-.19-.33-.37-.49-.54a12.07,12.07,0,0,0-1.6-1.38,8.21,8.21,0,0,0-.73-.47,8.58,8.58,0,0,0-1-.56,12.92,12.92,0,0,0-4-1.1l-.7-.07c-.5,0-1-.06-1.51-.06q-32.16,0-64.33,0a20.1,20.1,0,0,0-2.33,0,3.47,3.47,0,0,1-1.67-.12,1.37,1.37,0,0,1-.52-.33,1,1,0,0,1-.14-.15,1.77,1.77,0,0,1-.3-.58,5,5,0,0,1-.18-1.56c.1-9,0-18.09,0-27.13q0-20.61,0-41.23,0-6.87,0-13.74a8.79,8.79,0,0,1,0-.92c0-.12,0-.24,0-.36a3.46,3.46,0,0,1,.23-.91c.38-.93,1.18-1.51,2.73-2a54.3,54.3,0,0,0,13-5.74,41.46,41.46,0,0,0,3.68-2.55c7.82-6,13.12-14.47,15.58-25.56a37,37,0,0,0,.52-12.71,42,42,0,0,0-.93-4.91c-.12-.47-.21-.94-.32-1.49-.06-.33-.13-.69-.21-1.1,2.59,0,5-.37,7.19.08a5.75,5.75,0,0,1,2.57,1.22,5.14,5.14,0,0,1,.42.38A7.91,7.91,0,0,1,172,28.8c-.53,1.94-1.09,3.88-1.63,5.82-.36,1.29-.72,2.59-1.05,3.89-.51,2-1,3.9-1.38,5.87-.25,1.22-.45,2.45-.61,3.67v0c-.17,1.23-.3,2.45-.4,3.67a127.33,127.33,0,0,0-.06,15.75c0,.92.09,1.84.13,2.76,0,.74.07,1.47.11,2.21.13,2.21.28,4.41.48,6.61a120.15,120.15,0,0,0,5,25.94,66.35,66.35,0,0,0,9.89,19.84c.45.59.9,1.16,1.37,1.73l.71.85c.73.84,1.48,1.66,2.27,2.46a49.67,49.67,0,0,0,5.11,4.54,50.48,50.48,0,0,0,18.93,8.83c.53.13,1,.28,1.54.44s1,.33,1.44.51l.68.29q.67.3,1.29.63c.41.23.81.46,1.19.71l.56.38c.36.26.71.54,1,.83a13.35,13.35,0,0,1,2.86,3.5c.21.38.41.78.59,1.18a10.46,10.46,0,0,1,.49,1.25A20.05,20.05,0,0,1,223.53,159.62Z"/><path class="cls-2" d="M106,257.06a5.8,5.8,0,0,1-.08,1.08,2.46,2.46,0,0,1-.07.29,1.7,1.7,0,0,1-.71,1,2.36,2.36,0,0,1-.39.19,4.77,4.77,0,0,1-1.6.21c-26-.06-52.08,0-78.12-.05a18.46,18.46,0,0,1-3.53-.34,16.47,16.47,0,0,1-2.46-.66,17.11,17.11,0,0,1-2.27-1,15.85,15.85,0,0,1-5.42-4.7c-.31-.44-.61-.89-.88-1.36-.14-.23-.27-.47-.4-.72a15.77,15.77,0,0,1-1-2.27,18.17,18.17,0,0,1-1-6q0-22.65,0-45.29v-5.09q0-16.8,0-33.59c0-.73,0-1.44.1-2.12l.12-.88c.06-.38.12-.75.2-1.11a14.3,14.3,0,0,1,3.15-6.39c.15-.16.28-.31.43-.46a6.09,6.09,0,0,1,.44-.44l.47-.43a13.78,13.78,0,0,1,1.54-1.16,18.29,18.29,0,0,1,5.81-2.43,50.21,50.21,0,0,0,20.83-10.17c1-.82,2-1.7,2.9-2.63s1.87-1.89,2.76-2.92a56.72,56.72,0,0,0,5.21-7A62.31,62.31,0,0,0,57,111c.54-1.32,1.05-2.66,1.51-4s.89-2.73,1.28-4.11c.59-2.08,1.1-4.2,1.55-6.34q.22-1,.42-2.1.84-4.2,1.48-8.4C65.53,70.93,65.94,55.7,63,40.4c-.09-.47-.19-.93-.29-1.39-.42-1.86-1-3.69-1.52-5.52-.43-1.37-.87-2.73-1.31-4.09-1.8-5.67,1.26-10.11,7.16-10.2,1.36,0,2.73,0,4.22,0h0c-.12.89-.26,1.75-.39,2.59s-.27,1.67-.4,2.48-.23,1.61-.33,2.4S70,28.26,70,29h0a44.26,44.26,0,0,0,3.37,19.89s0,0,0,0c.38.86.79,1.7,1.22,2.53,0,0,0,0,0,0,.44.82.91,1.63,1.4,2.42h0c.75,1.19,1.56,2.34,2.43,3.46.59.74,1.2,1.47,1.84,2.18s1.31,1.41,2,2.08a49.33,49.33,0,0,0,7.06,5.64Q90.59,68.13,92,69l1.41.81a52.11,52.11,0,0,0,10.21,3.94l.32.11a3.76,3.76,0,0,1,.57.24,2.74,2.74,0,0,1,.84.6,1.93,1.93,0,0,1,.28.36,3.33,3.33,0,0,1,.36,1.19,4.89,4.89,0,0,1,0,.78c0,1.32,0,2.65,0,4s0,2.64,0,4c0,2.65,0,5.31,0,8v66.19c0,.74,0,1.32,0,1.78a2.41,2.41,0,0,1-.15.79l-.09.22c-.36.61-1.19.61-3.06.61q-33.91,0-67.83,0a13.83,13.83,0,0,0-6.39,1.54,11.65,11.65,0,0,0-1.58,1c-.33.24-.65.5-1,.77l-.44.42A12.53,12.53,0,0,0,21.88,177c.05.32.1.64.18,1s.15.65.25,1h0a11.49,11.49,0,0,0,.74,1.93,11.79,11.79,0,0,0,1.62,2.52c.21.25.43.49.66.73a11.59,11.59,0,0,0,1.5,1.29,13.27,13.27,0,0,0,7.81,2.46c12.78,0,25.57,0,38.36,0h8.23c7.3,0,14.6,0,21.91-.05h0a6.46,6.46,0,0,1,1,.07,3.29,3.29,0,0,1,.52.13,1.7,1.7,0,0,1,.62.35s.1.1.15.15a.83.83,0,0,1,.13.18,2.23,2.23,0,0,1,.2.41,2.71,2.71,0,0,1,.11.54,2.58,2.58,0,0,1,0,.29,5.5,5.5,0,0,1,0,.71c0,.74-.06,1.48-.08,2.22s0,1.54,0,2.31c0,1.45,0,2.91.1,4.36a4.12,4.12,0,0,1-.15,1.5v0a2.13,2.13,0,0,1-.2.4l0,0a1.15,1.15,0,0,1-.14.17.75.75,0,0,1-.16.15l-.19.13a2.12,2.12,0,0,1-.77.27l-.2,0a7.94,7.94,0,0,1-1,.06q-10.4-.06-20.79-.05l-17.81,0c-10.13,0-20.27-.07-30.4,0a12.32,12.32,0,0,0-11.7,8.62c-.12.34-.21.68-.3,1a13.39,13.39,0,0,0-.35,2.33,12,12,0,0,0,6.4,11.61h0c.47.23,1,.44,1.48.63l.46.16a14.66,14.66,0,0,0,1.64.45c.31.07.63.13.95.18a17.19,17.19,0,0,0,2.84.24q8.24,0,16.48.06c16.73,0,33.46,0,50.19,0,1.85,0,2.79,0,3.26.46s.48,1.37.48,3.23q0,6.06,0,12.11,0,3.41,0,6.81C106,252.52,106,254.79,106,257.06Z"/><path class="cls-1" d="M69.32,179.81H36.6c-4.28,0-6.62-1.62-6.69-4.56s2.35-4.69,6.78-4.69h66.15c3.17,0,3.17,0,3.18,3.26,0,6,0,6-6.07,6Z"/><path class="cls-1" d="M69.61,219.58h-33c-4.4,0-6.82-1.72-6.74-4.74s2.42-4.51,6.72-4.51c22.13,0,44.26,0,66.39-.05,2.36,0,3.09.65,3,3-.12,6.27,0,6.27-6.3,6.27Z"/><path class="cls-1" d="M161.52,179.81c-11,0-22-.06-33,0-2.23,0-3-.64-2.94-2.9.09-6.4,0-6.4,6.43-6.4h61.28a17,17,0,0,1,3,.14,4.53,4.53,0,0,1,0,9,15.33,15.33,0,0,1-2.8.15Z"/><path class="cls-1" d="M161.52,219.58c-11,0-22-.05-33,0-2.23,0-3-.63-3-2.9.09-6.4,0-6.4,6.42-6.4H193.3a17,17,0,0,1,3,.15,4.53,4.53,0,0,1,0,9,15.26,15.26,0,0,1-2.79.15Z"/><path class="cls-1" d="M117.33,259a.62.62,0,0,1-.1.22,1,1,0,0,1-.54.41,2.14,2.14,0,0,1-.87.12,1.08,1.08,0,0,1-.47-.13,2.64,2.64,0,0,1-.7-.53,3.82,3.82,0,0,1-.36-.46,1.27,1.27,0,0,1-.12-.23,6.09,6.09,0,0,1-.09-2.31V79.25c0-.56-.07-1.16,0-1.72a2.48,2.48,0,0,1,.15-.82,1.37,1.37,0,0,1,.25-.41,2,2,0,0,1,1.3-.75.76.76,0,0,1,.21,0,1.82,1.82,0,0,1,.45.21,2.17,2.17,0,0,1,.86,1h0a2.13,2.13,0,0,1,.11.5.13.13,0,0,1,0,.06,16.38,16.38,0,0,1,0,2v88.64q0,19.76,0,39.5,0,12.34,0,24.69t0,24.68A6.52,6.52,0,0,1,117.33,259Z"/><path class="cls-3" d="M71.26,19.2h0Z"/></g></g></svg>