<?xml version="1.0" encoding="UTF-8"?>
<!DOCTYPE svg PUBLIC "-//W3C//DTD SVG 1.1//EN" "http://www.w3.org/Graphics/SVG/1.1/DTD/svg11.dtd">
<!-- Creator: CorelDRAW 2020 (64-Bit) -->
<svg xmlns="http://www.w3.org/2000/svg" xml:space="preserve" width="2550px" height="448px" version="1.1" style="shape-rendering:geometricPrecision; text-rendering:geometricPrecision; image-rendering:optimizeQuality; fill-rule:evenodd; clip-rule:evenodd"
viewBox="0 0 2550 447.92"
 xmlns:xlink="http://www.w3.org/1999/xlink"
 xmlns:xodm="http://www.corel.com/coreldraw/odm/2003">
 <defs>
  <style type="text/css">
   <![CDATA[
    .fil3 {fill:#098CC1;fill-rule:nonzero}
    .fil2 {fill:#3E4095;fill-rule:nonzero}
    .fil1 {fill:url(#id0)}
    .fil0 {fill:url(#id1)}
   ]]>
  </style>
  <linearGradient id="id0" gradientUnits="userSpaceOnUse" x1="177.79" y1="344.62" x2="260.76" y2="247.76">
   <stop offset="0" style="stop-opacity:1; stop-color:#EEDE2C"/>
   <stop offset="0.54902" style="stop-opacity:1; stop-color:#D9C538"/>
   <stop offset="0.729412" style="stop-opacity:1; stop-color:#CCBB3C"/>
   <stop offset="1" style="stop-opacity:1; stop-color:#C3B13F"/>
  </linearGradient>
  <linearGradient id="id1" gradientUnits="userSpaceOnUse" x1="214.23" y1="166.62" x2="176.36" y2="335.3">
   <stop offset="0" style="stop-opacity:1; stop-color:#E1CB34"/>
   <stop offset="0.380392" style="stop-opacity:1; stop-color:#D4C339"/>
   <stop offset="0.639216" style="stop-opacity:1; stop-color:#BDAC3F"/>
   <stop offset="1" style="stop-opacity:1; stop-color:#978A40"/>
  </linearGradient>
 </defs>
 <g id="Capa_x0020_1">
  <metadata id="CorelCorpID_0Corel-Layer"/>
  <g id="_1983709968352">
   <path class="fil0" d="M289.46 54.01c4.69,0 9.31,0.28 13.86,0.81 2.59,-2.03 1.2,-6.32 -1.92,-8.83 -13.45,-3.37 -27.54,-5.18 -42.04,-5.18 -95.1,0 -172.18,77.09 -172.18,172.19 0,95.09 77.08,172.18 172.18,172.18 95.09,0 172.18,-77.09 172.18,-172.18 0,-30.42 -7.9,-58.99 -21.74,-83.79 -4.55,-1.09 -7.2,0.86 -8.52,4.86 4.05,11.92 6.24,24.7 6.24,37.99 0,65.21 -52.85,118.06 -118.06,118.06 -65.2,0 -118.05,-52.85 -118.05,-118.06 0,-65.2 52.85,-118.05 118.05,-118.05l0 0z"/>
   <path class="fil1" d="M347.57 196.84c-18.99,-33.31 -49.88,-11 -63.53,14.16 -5.16,9.51 -9.64,21 -13.43,34.46 -8.63,30.65 -9.03,43.2 -33.17,68.79 -30.78,32.64 -69.02,33.81 -114.72,3.53 41.55,51.96 99.53,74.78 165.8,64.78 43.11,-24.93 38.54,-62.25 35.15,-105.23 -1.58,-19.98 -4.48,-55.99 6.45,-72.49 3.87,-5.85 9.47,-9.12 17.45,-8z"/>
   <path class="fil2" d="M1380.92 383.74m0 0l28.69 -51.02 20.81 0 27.92 51.02 -16.98 0 -5.13 -9.1 -32.9 0 -4.82 9.1 -17.59 0zm28.07 -19.73l21.96 0 -11.17 -20.43 -10.79 20.43zm56.47 19.73m0 0l0 -51.02 24.71 0 18.51 33.81 18.52 -33.81 24.48 0 0 51.02 -15.23 0 0.84 -39.4 -22.57 39.4 -12.39 0 -22.26 -39.4 0.38 39.4 -14.99 0zm99.45 0m0 0l0 -51.02 46.14 0c5.43,0 9.33,0.61 11.7,1.83 3.98,1.99 5.89,5.89 5.89,11.63 0,4.44 -1.07,7.58 -3.29,9.33 -1.3,1.08 -3.52,1.84 -6.73,2.38 4.05,0.38 6.81,1.14 8.42,2.29 2.37,1.68 3.59,4.9 3.59,9.56 0,6.05 -1.91,10.1 -5.89,12.17 -2.22,1.22 -6.04,1.83 -11.63,1.83l-48.2 0zm15.23 -30.67l26.09 0c2.52,0 4.2,-0.23 5.05,-0.62 1.3,-0.68 1.98,-1.99 1.98,-3.82 0,-2.22 -0.91,-3.6 -2.75,-4.21 -0.76,-0.23 -2.3,-0.38 -4.74,-0.38l-25.63 0 0 9.03zm0 19.35l27.77 0c2.29,0 3.9,-0.15 4.67,-0.38 1.6,-0.61 2.44,-1.99 2.44,-4.21 0,-2.29 -0.84,-3.75 -2.6,-4.36 -0.69,-0.23 -2.37,-0.38 -4.97,-0.38l-27.31 0 0 9.33zm62.73 11.32m0 0l0 -51.02 15.53 0 0 51.02 -15.53 0zm28.84 0m0 -51.02l56.54 0 0 11.55 -41.23 0 0 8.8 38.94 0 0 10.1 -38.94 0 0 9.02 41.77 0 0 11.55 -57.08 0 0 -51.02zm68.55 51.02m0 0l0 -51.02 24.71 0 30.91 38.86 -0.38 -38.86 14.69 0 0 51.02 -24.94 0 -30.45 -38.4 0.38 38.4 -14.92 0zm78.65 0m22.72 0l0 -38.4 -22.72 0 0 -12.62 60.98 0 0 12.62 -22.73 0 0 38.4 -15.53 0zm46.9 0m0 -51.02l56.54 0 0 11.55 -41.24 0 0 8.8 38.94 0 0 10.1 -38.94 0 0 9.02 41.77 0 0 11.55 -57.07 0 0 -51.02z"/>
   <path class="fil2" d="M1977.79 383.74m56.77 -36.87l-6.2 0c0,-0.31 0,-0.69 0,-1.07 -0.08,-0.38 -0.08,-0.84 -0.15,-1.23 -0.08,-0.99 -0.38,-1.99 -0.77,-2.98 -0.46,-0.99 -1.22,-1.68 -2.22,-2.14 -0.99,-0.54 -2.37,-0.92 -4.13,-1.15 -1.76,-0.23 -3.59,-0.38 -5.51,-0.46 -1.3,-0.07 -2.52,-0.07 -3.67,-0.15 -1.22,0 -2.37,0 -3.36,0l-2.15 0c-1.14,0.08 -2.44,0.08 -4.05,0.15 -1.61,0.08 -3.29,0.15 -5.05,0.31 -1.84,0.15 -3.6,0.38 -5.36,0.61 -1.76,0.31 -3.13,0.69 -4.28,1.22 -1.3,0.54 -2.14,1.38 -2.52,2.53 -0.46,1.15 -0.77,2.29 -0.85,3.59 0,0.16 0,0.31 0,0.46 0,0.16 0,0.31 0,0.46 0,3.29 0.92,5.43 2.83,6.43 1.92,0.99 4.29,1.53 7.2,1.61 0.46,0.07 0.91,0.07 1.37,0.07 0.46,0.08 0.92,0.08 1.46,0.08 0.46,0 0.91,0 1.37,0 0.46,0 0.92,0 1.38,0 1,0 2.07,0 3.06,0 1,0 1.99,0 2.99,-0.08 0.99,0 1.98,0 2.98,0 0.99,0 1.99,0 2.98,0 0.84,0 1.76,0 2.68,0 0.84,0 1.76,0 2.68,0.08 0.84,0.08 1.76,0.08 2.67,0.15 0.85,0.08 1.76,0.15 2.61,0.23 4.66,0.54 8.11,1.68 10.17,3.6 2.07,1.91 3.14,5.35 3.14,10.17 0,2.83 -0.46,5.28 -1.3,7.5 -0.84,2.22 -2.68,3.9 -5.51,5.13 -1.53,0.68 -3.37,1.22 -5.43,1.45 -2.14,0.3 -4.29,0.53 -6.51,0.61 -1.14,0.08 -2.29,0.08 -3.44,0.15 -1.15,0 -2.29,0 -3.36,0l-4.06 0c-1.3,0 -2.52,0 -3.82,0 -1.3,-0.07 -2.61,-0.07 -3.91,-0.15 -1.3,-0.08 -2.6,-0.08 -3.9,-0.15 -1.3,-0.08 -2.6,-0.23 -3.9,-0.38 -5.36,-0.69 -8.8,-2.22 -10.4,-4.44 -1.61,-2.22 -2.45,-5.89 -2.45,-11.17l6.19 -0.08 0 1.07c0,0.08 0,0.16 0,0.16 0,0.07 0,0.07 0,0.15 0.08,1.91 0.31,3.67 0.69,5.13 0.39,1.45 1.61,2.52 3.83,3.21 1.22,0.38 2.68,0.61 4.28,0.76 1.61,0.23 3.29,0.39 5.05,0.46 1.53,0.08 3.06,0.08 4.59,0.08 1.53,0.07 2.91,0.07 4.06,0.07 0.84,0 1.6,0 2.45,-0.07 0.76,0 1.53,0 2.37,0 1.6,-0.08 3.29,-0.15 4.89,-0.31 1.61,-0.07 3.14,-0.23 4.75,-0.46 2.9,-0.38 5.05,-1.14 6.42,-2.44 1.3,-1.23 1.99,-3.29 1.99,-6.28 0,-3.9 -0.99,-6.35 -2.91,-7.19 -1.98,-0.84 -4.74,-1.22 -8.33,-1.3l-11.71 -0.23c-0.46,0.08 -0.92,0.08 -1.38,0.08 -0.46,0 -0.91,0 -1.37,-0.08 -1.84,0 -3.68,0 -5.51,-0.08 -1.84,-0.07 -3.67,-0.15 -5.43,-0.23 -4.44,-0.22 -8.04,-1.14 -10.79,-2.75 -2.83,-1.61 -4.21,-4.67 -4.21,-9.33 0,-3.14 0.54,-5.89 1.61,-8.42 0.99,-2.45 3.06,-4.28 6.19,-5.43 1.46,-0.54 3.14,-0.92 5.05,-1.23 1.92,-0.3 3.98,-0.53 6.05,-0.61 1.83,-0.15 3.67,-0.23 5.43,-0.3 1.76,0 3.29,0 4.67,0 1.22,0 2.44,0 3.75,0 1.3,0.07 2.52,0.07 3.82,0.15 1.22,0.08 2.45,0.08 3.75,0.15 1.3,0.08 2.52,0.23 3.75,0.39 4.51,0.45 7.73,1.83 9.71,4.05 1.99,2.22 2.99,5.58 2.99,9.95l0 -0.08zm13.39 36.87m6.19 -45.82l0 16.83 42.77 0 0 5.12 -42.77 0 0 18.75 44.91 0 0 5.12 -51.1 0 0 -51.02 50.57 0 0 5.2 -44.38 0zm55.93 45.82m57.68 -20.04l-26.77 0 0 -5.13 33.2 0c0,0.39 0,0.77 0.08,1.15 0,0.39 0,0.77 0,1.15 0,0.38 0,0.76 0,1.15 0,0.38 0,0.76 0,1.15 0,7.19 -1,12.47 -3.06,15.91 -2.07,3.44 -7.35,5.12 -15.84,5.12l-12.55 0.08c-0.69,0 -1.45,0 -2.14,0 -0.76,0 -1.53,0 -2.29,0.08 -0.69,0 -1.46,0 -2.15,0 -0.76,0 -1.53,0 -2.29,0 -9.49,0 -15.84,-1.38 -19.05,-4.21 -3.21,-2.83 -4.82,-9.03 -4.82,-18.74l0 -2.91c0,-8.8 0.99,-15.3 3.06,-19.59 1.99,-4.2 7.8,-6.35 17.52,-6.35l12.85 -0.23c0.54,0.08 1,0.08 1.53,0.08 0.54,0 1.07,0 1.61,-0.08 0.53,0 0.99,0 1.53,0 0.53,0 0.99,0 1.53,0 0.84,0 1.76,0 2.6,0 0.84,0 1.68,0 2.52,0.08 0.85,0.08 1.69,0.08 2.53,0.08 0.84,0.07 1.68,0.15 2.52,0.23 5.05,0.38 8.57,1.68 10.48,4.05 1.92,2.37 2.99,6.04 3.06,11.02l-6.12 -0.08c0,-4.82 -1.07,-7.57 -3.28,-8.41 -2.22,-0.92 -5.36,-1.38 -9.41,-1.46 -0.08,0 -0.24,0 -0.31,0 -0.08,0 -0.23,0 -0.31,0 0,0 0,0 0,0 0,0 0,0 0,0 -0.07,0 -0.07,0 -0.07,0 0,0 0,0 0,0l-10.41 -0.15c-0.53,0.08 -0.99,0.08 -1.53,0.08 -0.53,0 -0.99,0 -1.45,-0.08 -0.54,0 -1,0 -1.53,0 -0.54,0 -1,0 -1.53,0 -0.84,0 -1.61,0 -2.45,0 -0.84,0 -1.68,0 -2.52,0.08 -0.85,0.07 -1.69,0.07 -2.53,0.07 -0.84,0.08 -1.68,0.15 -2.52,0.23 -0.08,0 -0.23,0 -0.31,0 -0.15,0.08 -0.31,0.08 -0.38,0.08 -2.83,0.23 -5.05,0.92 -6.81,1.91 -1.76,1 -2.83,3.9 -3.14,8.72 -0.08,1.07 -0.08,2.14 -0.15,3.22 -0.08,1.14 -0.08,2.21 -0.08,3.36 -0.07,1.07 -0.07,2.22 -0.07,3.29 0,1.07 0,2.22 0,3.21 0,6.28 0.53,10.56 1.68,13.09 1.15,2.45 5.05,3.75 11.86,3.82l13 0.08c0.46,0.07 0.92,0.07 1.38,0.07 0.46,0 0.92,0 1.38,0 0.46,0.08 0.91,0.08 1.37,0.08 0.46,0 0.92,0 1.38,0 0.77,0 1.53,0 2.3,0 0.69,0 1.45,0 2.21,-0.08 0.77,-0.07 1.54,-0.07 2.3,-0.15 0.69,-0.07 1.45,-0.07 2.22,-0.15 4.82,-0.54 7.65,-1.84 8.57,-3.98 0.84,-2.14 1.37,-4.97 1.53,-8.64 0,-0.39 0,-0.69 0.07,-1.15 0,-0.38 0,-0.77 0,-1.15zm18.06 20.04m53.86 -51.02l6.2 0 0 35.27c0,7.72 -1.61,12.31 -4.9,13.77 -3.29,1.45 -8.42,2.21 -15.38,2.44 -0.07,0 -0.07,0 -0.15,0 -0.08,0 -0.15,0 -0.23,0 -1.68,0.08 -3.37,0.08 -5.05,0.08 -1.76,0 -3.44,0 -5.2,0 -2.37,0 -4.82,0 -7.27,0 -2.45,-0.08 -4.9,-0.15 -7.34,-0.23 -4.98,-0.23 -8.65,-1.38 -11.02,-3.44 -2.37,-2.07 -3.52,-5.66 -3.52,-10.71l0 -37.18 6.2 0 0 36.41c0,4.44 0.99,7.12 3.06,8.03 2.06,1 5.05,1.54 9.1,1.61l10.94 0.08 11.86 -0.23c4.21,-0.08 7.42,-0.54 9.56,-1.53 2.07,-1 3.14,-3.75 3.14,-8.42l0 -1.22 0 -34.73zm19.97 51.02m0 -51.02l41.54 0c5.74,0.07 10.1,0.99 13.01,2.9 2.83,1.92 4.28,6.05 4.28,12.32 0,4.51 -0.69,7.57 -1.99,9.33 -1.38,1.76 -4.36,2.99 -8.87,3.68 2.98,0.38 5.35,1.07 7.19,2.22 1.83,1.14 2.75,3.44 2.75,6.8l0 13.77 -6.12 0 0 -11.32c0,-3.9 -0.84,-6.42 -2.52,-7.57 -1.76,-1.15 -4.52,-1.68 -8.27,-1.68l-34.81 0 0 20.57 -6.19 0 0 -51.02zm6.19 25.24l34.2 0c4.36,0.08 7.42,-0.61 9.26,-1.91 1.84,-1.3 2.75,-4.13 2.75,-8.49 0,-4.29 -1.07,-6.96 -3.13,-8.04 -2.07,-0.99 -5.13,-1.53 -9.03,-1.53l-34.05 0 0 19.97zm63.35 25.78m0 -25.17c0,-0.76 0,-1.6 0,-2.52 0,-0.84 0,-1.68 0.08,-2.45 0,-1.76 0.07,-3.52 0.23,-5.2 0.15,-1.76 0.38,-3.44 0.76,-5.05 1,-4.59 3.14,-7.5 6.28,-8.8 3.13,-1.3 6.73,-2.06 10.78,-2.14 1.92,-0.08 3.75,-0.08 5.66,-0.15 1.92,0 3.75,0 5.67,0 1.83,0 3.67,0 5.58,0 1.91,0 3.75,0 5.66,0 10.64,0 17.44,1.37 20.43,4.2 2.98,2.76 4.44,9.42 4.44,19.74 0,2.3 0,4.59 -0.08,6.89 -0.08,2.29 -0.23,4.59 -0.46,6.88 -0.53,4.9 -1.99,8.34 -4.51,10.33 -2.53,1.99 -6.2,3.14 -11.1,3.52 -2.06,0.23 -4.2,0.31 -6.27,0.38 -2.14,0 -4.28,0 -6.35,0l-11.4 0c-1.76,0 -3.6,0 -5.35,-0.07 -1.84,-0.08 -3.68,-0.16 -5.44,-0.39 -0.23,-0.07 -0.53,-0.07 -0.76,-0.07 -0.31,0 -0.61,0 -0.84,-0.08 -1.92,-0.3 -3.83,-0.84 -5.59,-1.68 -1.76,-0.77 -3.21,-1.99 -4.36,-3.75 -0.84,-1.38 -1.53,-2.98 -1.91,-4.9 -0.38,-1.91 -0.69,-3.75 -0.84,-5.73 -0.16,-1.53 -0.23,-3.14 -0.23,-4.67 -0.08,-1.53 -0.08,-2.91 -0.08,-4.21l0 -0.08zm6.43 -0.15l0 3.75c0,5.59 0.61,9.72 1.76,12.39 1.14,2.68 4.89,4.06 11.24,4.14l13.16 0.15 4.75 0c0.99,0.07 2.06,0.07 3.13,0.07 1,0 2.07,0 3.14,-0.07 0.99,-0.08 2.06,-0.08 3.14,-0.15 0.99,-0.08 2.06,-0.16 3.06,-0.23 4.05,-0.39 6.65,-1.76 7.65,-4.13 0.99,-2.38 1.53,-5.28 1.53,-8.88 0,-0.84 0,-1.76 0.07,-2.6 0,-0.84 0,-1.76 0,-2.68 0.08,-0.84 0.08,-1.76 0.08,-2.6 0,-0.84 0,-1.76 0,-2.6 0,-0.77 0,-1.61 0,-2.53 -0.08,-0.84 -0.08,-1.75 -0.15,-2.6 -0.08,-1.76 -0.31,-3.36 -0.54,-4.97 -0.31,-1.61 -0.76,-2.83 -1.45,-3.82 -0.39,-0.54 -0.84,-1.08 -1.38,-1.46 -0.61,-0.38 -1.22,-0.61 -1.84,-0.84 -0.07,-0.08 -0.07,-0.08 -0.15,-0.15 -0.08,0 -0.23,0 -0.3,0 -0.85,-0.23 -1.69,-0.46 -2.61,-0.54 -0.91,-0.08 -1.83,-0.15 -2.75,-0.23 -0.54,-0.07 -1.07,-0.07 -1.61,-0.07 -0.53,0 -1.07,0 -1.6,0l-12.02 -0.16 -11.85 0.23c-5.51,0.08 -9.18,0.84 -11.1,2.22 -1.91,1.45 -2.98,5.05 -3.13,10.79l-0.23 7.57z"/>
   <path class="fil3" d="M479.87 298.71m0 -244.22l270.58 0 0 55.29 -197.35 0 0 42.11 186.36 0 0 48.33 -186.36 0 0 43.2 199.91 0 0 55.29 -273.14 0 0 -244.22z"/>
   <path class="fil3" d="M782.59 298.71m0 0l0 -244.22 118.26 0 147.92 186 -1.83 -186 70.3 0 0 244.22 -119.36 0 -145.73 -183.8 1.84 183.8 -71.4 0z"/>
   <path class="fil2" d="M1149.34 296.88m1.1 -77.62l72.86 0c0,6.95 0.74,11.71 1.83,14.28 1.47,4.76 5.13,8.05 10.26,9.88 4.02,1.47 10.61,2.2 19.77,2.2l28.92 1.1c4.4,0 22.34,0 54.56,-0.73 13.18,-0.37 22.33,-1.1 27.46,-2.93 9.88,-3.3 14.64,-9.89 14.64,-19.77 0,-12.45 -6.95,-19.41 -21.6,-21.24 -3.29,-0.73 -15.74,-0.73 -37.34,-0.73l-67.37 0c-32.96,0 -55.29,-1.83 -67.01,-5.5 -15.01,-4.39 -25.26,-13.18 -31.12,-25.63 -4.76,-9.88 -6.96,-23.43 -6.96,-41 0,-28.56 6.59,-47.97 19.78,-58.59 10.98,-9.15 31.48,-15.01 61.87,-17.94 11.72,-1.1 35.52,-1.46 71.03,-1.46 50.9,0 82.75,1.46 95.57,4.39 17.21,3.66 29.65,10.99 36.61,21.6 6.59,9.52 9.89,23.44 9.89,41.74l0 8.43 -72.5 0c0,-12.82 -6.59,-20.14 -20.14,-23.07 -2.56,-0.37 -14.64,-0.73 -35.51,-0.73 -29.29,0 -51.63,0.36 -67.37,1.46 -8.79,0.73 -14.65,1.83 -18.31,4.03 -5.49,3.29 -8.06,8.42 -8.06,16.11 0,10.25 5.13,16.84 15.75,19.4 4.39,1.1 14.64,1.84 30.02,1.84l69.2 0c4.76,0 16.85,0.36 36.62,1.09 23.06,0.74 39.17,3.3 48.69,6.96 21.24,9.15 31.86,31.12 31.86,66.64 0,32.95 -8.79,54.19 -26.73,63.71 -16.84,9.15 -60.05,13.91 -129.98,13.91 -53.46,0 -88.24,-1.83 -104.72,-5.13 -16.11,-3.29 -27.46,-10.62 -34.41,-21.23 -5.49,-9.52 -8.43,-22.7 -8.43,-40.28 0,-2.19 0,-6.22 0.37,-12.81z"/>
   <path class="fil2" d="M1454.85 298.71m0 0l137.31 -244.22 99.59 0 133.64 244.22 -81.28 0 -24.53 -43.57 -157.45 0 -23.06 43.57 -84.22 0zm134.38 -94.46l105.08 0 -53.46 -97.76 -51.62 97.76z"/>
   <path class="fil2" d="M1835.11 298.71m0 0l0 -244.22 259.23 0 0 55.29 -185.27 0 0 48.7 175.75 0 0 55.29 -175.75 0 0 84.94 -73.96 0z"/>
   <path class="fil2" d="M2121.73 298.71m0 -244.22l270.58 0 0 55.29 -197.35 0 0 42.11 186.37 0 0 48.33 -186.37 0 0 43.2 199.91 0 0 55.29 -273.14 0 0 -244.22z"/>
  </g>
 </g>
</svg>
