<svg xmlns="http://www.w3.org/2000/svg" viewBox="0 0 331.97 324.55"><defs><style>.cls-1{fill:#fc0;}</style></defs><g id="Capa_2" data-name="Capa 2"><g id="Capa_1-2" data-name="Capa 1"><path class="cls-1" d="M245.82,119.28l12.26-12.22c1.33.34,1.78,1.53,2.39,2.52a133.41,133.41,0,0,1,19.44,58.63c2.36,26.89-2.31,52.43-15,76.3A135.48,135.48,0,0,1,205.6,303a136.23,136.23,0,0,1-121.3,1.32,136.29,136.29,0,0,1-41.09-30.22,138.06,138.06,0,0,1-27.65-44.48A134,134,0,0,1,7,172c2-30.42,13.14-57.3,33-80.48A136.85,136.85,0,0,1,221.32,68.17c.81.56,1.81,1,2,2.15l-12.4,12.37a4.6,4.6,0,0,1-2.75-1.14,113.15,113.15,0,0,0-50.92-18.32c-33.22-3.44-63,5.15-89,26.37a116.44,116.44,0,0,0-36.78,53,110.34,110.34,0,0,0-6.08,34.61c-.22,13.17,1,26.07,5,38.66a119.47,119.47,0,0,0,60.93,71.44A115.81,115.81,0,0,0,133.53,299a117.54,117.54,0,0,0,63.36-12.11,114.74,114.74,0,0,0,26.66-18.48c19.86-18.27,32.41-40.64,36.78-67.18,4.1-25,1.26-49.31-10.26-72.23-1.19-2.39-2.28-4.83-3.67-7.11A2.88,2.88,0,0,1,245.82,119.28Z"/><path class="cls-1" d="M185.39,108.14q-7.19,7.71-14.89,14.9c-1.46.22-2.69-.49-4-1a63.1,63.1,0,0,0-71.28,18.21,61,61,0,0,0-14.44,33.43C79,191.37,83.39,207.45,95,221.24c13.49,16.08,31,23.78,51.75,22.87,18-.79,33.12-8.33,45-22.1a60.87,60.87,0,0,0,14.67-33.32,62.33,62.33,0,0,0-1.48-23.54c-.38-1.4-1-2.78-.68-4.31q7.8-7.8,15.61-15.59c1.45.63,1.67,2.12,2.18,3.34a83.85,83.85,0,0,1,6.1,25.63,79.38,79.38,0,0,1-5.7,38.05c-11.7,27.81-32.34,45.59-61.91,51.68-26.7,5.5-51-.85-71.9-18.56C71.87,231.18,62,212.9,59.43,191c-2.81-24.25,3.65-46.05,19.38-64.66,14.26-16.87,32.56-27,54.72-29.53,17.27-2,33.72.76,49.16,8.9C183.75,106.3,185.24,106.5,185.39,108.14Z"/><path class="cls-1" d="M223.29,70.32A143.82,143.82,0,0,0,182.68,50.4C108,27.94,28.94,73.52,11,149.38a136.48,136.48,0,0,0,104.81,165c71.92,15.07,143.94-30.54,160.31-101.92,8.59-37.5,2.52-72.77-18.08-105.4,1.45-1.52,2.9-3,4.37-4.55a8.59,8.59,0,0,1,.95-.73,139.41,139.41,0,0,1,18.93,42,143.58,143.58,0,0,1-70.77,163.72c-71.41,38.61-161.87,9.41-197-63.59C-11.53,189.58-2.1,126.39,39.15,82.54c23.61-25.11,52.78-39.93,87.1-44,36.41-4.32,69.75,4.15,100,24.9,2.18,1.49,2.16,2.37.24,3.85A43.58,43.58,0,0,0,223.29,70.32Z"/><path class="cls-1" d="M245.82,119.28c6.44,11.17,11.56,22.88,14.14,35.56,7.61,37.43.09,71.43-23.9,101.32-17.63,22-40.53,36.07-68.14,41.49-38.77,7.61-73.55-1.57-103.42-27.58A113.1,113.1,0,0,1,26.67,204c-6.51-35.07.75-67.28,22.54-95.76C65.84,86.5,87.58,72,114.14,65.48c33.94-8.39,65.8-3,95.24,16a18.5,18.5,0,0,1,1.51,1.17c-1.68,1.68-3.1,4.21-5.1,4.82s-3.89-1.87-5.82-3a106.91,106.91,0,0,0-42.05-14.35c-30.64-3.49-58.56,3.76-83,22.84-20.69,16.15-34.4,37.14-40,62.73-8,36.32,0,69.2,24,97.77,16.69,19.87,38.06,32.69,63.55,37,43.32,7.39,79.72-5.83,108.15-39.65a105.15,105.15,0,0,0,23.06-50.37c4.51-25.87.33-50.46-12.26-73.53-.9-1.65-1.09-2.69.46-3.93S244.49,120.55,245.82,119.28Z"/><path class="cls-1" d="M299.07,32.87c11.74-2.75,22-.77,30.85,7.2,2.67,2.41,2.72,4.24.23,6.73-9,9-17.89,18-26.93,26.91-9.65,9.52-25.15,11.54-37.22,4.88-1.39-.76-2.2-1-3.47.32q-45.19,45.32-90.47,90.54c-.38.38-.71.82-1.15,1.33,1.83,1.78,3.63,3.49,5.37,5.26,2.09,2.13,2.14,4.08-.07,6.16-10,9.48-22,13.57-35.72,12.74l-.28-.05c-9.85-.77-9.15-1.56-9.33-10.44a35.6,35.6,0,0,1,10.88-26.51c1.69-1.7,3.37-3.4,5.08-5.07,2.34-2.29,4-2.3,6.37,0,1.54,1.46,3,2.94,4.48,4.5.8.86,1.42,1,2.17,0a12.8,12.8,0,0,1,1-1q45-45,89.95-89.89a3.3,3.3,0,0,0,.93-4.15c-4.55-12.73-2.41-24.27,7.06-34.06,8.57-8.85,17.4-17.45,26.11-26.16,2.89-2.88,4.61-2.87,7.3.21,7.44,8.5,9.62,18.31,7.2,29.25C299.3,31.93,299.21,32.27,299.07,32.87Z"/><path class="cls-1" d="M185.39,108.14a71.69,71.69,0,0,0-29.67-10.35c-35.53-4-64,8.59-83.27,38.74C40.26,187,70.64,253.81,129.7,263.84a84.18,84.18,0,0,0,90.11-118.6c1.83-1.79,3.66-3.59,5.56-5.47a88,88,0,0,1,8.43,25.11,92.71,92.71,0,0,1,.48,29,88.54,88.54,0,0,1-16.85,41.22c-14,18.82-32.49,30.93-55.42,35.51-27.33,5.46-52.45-.39-74.57-17.44-17.23-13.28-28.52-30.71-33-52.06-6.51-31,.7-58.66,22-82.28a87.49,87.49,0,0,1,49-27.64c22.39-4.47,43.69-1,63.7,10.2,2,1.12,1.69,1.76.3,3S186.72,106.89,185.39,108.14Z"/><path class="cls-1" d="M204.2,160.84a61.5,61.5,0,0,1-1.41,44.4A64,64,0,0,1,80.57,192c-6.43-36.26,19.63-70.85,56.18-74.58A61.62,61.62,0,0,1,170.5,123a1.89,1.89,0,0,1-.11.25c-3,4.3-6.26,4.94-11.75,3.44-19.08-5.2-36.63-1.37-51.88,11.6A54.35,54.35,0,0,0,87.7,172.88a56.45,56.45,0,0,0,44.69,63.34C163,242.38,192.26,223,199,192.41a51.92,51.92,0,0,0-.09-23c-.49-2.13-.22-3.44,1.34-4.77C201.63,163.48,202.88,162.13,204.2,160.84Z"/><path class="cls-1" d="M322.45,43.45c-8.59,8.77-16.78,17.76-25.66,26-8,7.42-20.3,7.58-29.39,1.39-3.95-2.7-4.56-2.65-7.93.73l-95,95c-3.36,3.36-3.35,4.65,0,8l.58.59c4.13,4.13,4.14,4.13-1.06,7.2a40.24,40.24,0,0,1-23.83,5.27c-1.44-.1-1.87-.69-1.91-2-.3-9.94,3.67-18,10.86-24.63.91-.84,1.42-.36,2,.27,1.56,1.57,3.08,3.17,4.69,4.67,2,1.84,3.81,1.85,5.87.09.63-.53,1.19-1.15,1.77-1.73l94.23-94.22c3.87-3.87,3.88-3.92,1.55-8.71a24.2,24.2,0,0,1,4.44-27.58c7.63-7.85,15.47-15.48,23.16-23.27,1.17-1.18,1.66-1.11,2.56.29,5.72,8.83,4.58,21.17-2.84,29.38-1.3,1.44-2.38,2.84-1.42,4.89,1.13,2.41,4,2.85,6.22.79a24.27,24.27,0,0,1,19.14-6.76A23.44,23.44,0,0,1,322.45,43.45Z"/></g></g></svg>