<svg xmlns="http://www.w3.org/2000/svg" viewBox="0 0 336.67 244.86"><defs><style>.cls-1{fill:#fecb00;}.cls-2{fill:#fed73b;}</style></defs><g id="Capa_2" data-name="Capa 2"><g id="Capa_1-2" data-name="Capa 1"><path class="cls-1" d="M149.69,234.21q-36.22,0-72.44,0c-7.49,0-13.29-4.32-15.33-11.13a17.05,17.05,0,0,1,6.25-19c3.24-2.25,6.91-2.64,10.7-2.64q61.74,0,123.46,0a20.09,20.09,0,0,0,7-1.18q53.07-18.86,106.16-37.66c8.65-3.07,16.83.53,20,8.81,3.39,8.86-.5,18.53-9.06,21.65-16.58,6-33.46,11.32-49.83,17.86-15.52,6.22-30.6,13.56-45.78,20.6a28.86,28.86,0,0,1-12.73,2.75C195.26,234.13,172.47,234.21,149.69,234.21Z"/><path class="cls-1" d="M144.74,63.24c-10.6-3.89-17.8-10.35-21.35-20.36a31.71,31.71,0,0,1-.31-20.37A32.1,32.1,0,0,1,184.77,24a31.56,31.56,0,0,1-2.94,23.69c-3.44,6.21-5.12,7.63-18.43,15.69A85,85,0,0,1,189.2,75.2C201.82,84,210.86,95.36,214,110.79a45,45,0,0,1,.89,10.81c-.08,1.94-.7,2.71-2.83,2.7q-58.34-.1-116.67,0c-2.44,0-2.74-1-2.78-3-.31-17.67,7.57-31.35,20.72-42.39C122.26,71.38,132.64,66.53,144.74,63.24Z"/><path class="cls-1" d="M133.25,187.26c-18.25,0-36.51.05-54.76,0-12.35-.05-20.35-10.77-16.42-21.83,2.53-7.12,8.64-10.92,17.76-10.93q52.55,0,105.11,0c1.92,0,3.85.11,5.76.29a16.21,16.21,0,0,1,.7,32.19,34,34,0,0,1-4.4.28Z"/><path class="cls-1" d="M241,54.88c4.35.88,8.75,1.61,13.06,2.68,12.23,3,23.25,8.29,31.69,18A31.45,31.45,0,0,1,293.86,98c-.09,2.69-1,3.66-3.82,3.63-15.42-.14-30.84-.06-46.26-.06-1.46,0-2.77.17-3.64-1.64-8.43-17.68-23.08-28-41-34.44-1-.37-2.28-.33-3.21-1.56a74.05,74.05,0,0,1,31.85-8.45,45.48,45.48,0,0,1,10.28-.91C239.05,54.4,240.07,54.08,241,54.88Z"/><path class="cls-1" d="M51.08,198c0,10.77.11,21.54,0,32.3a14.87,14.87,0,0,1-12.51,14.42c-7.75,1.12-14.76-3.06-17-10.3a18.57,18.57,0,0,1-.8-5.34q-.07-31.29,0-62.56c0-8.33,5.61-14.81,13.14-15.68A15.22,15.22,0,0,1,50.65,162a20.41,20.41,0,0,1,.45,5.39q0,15.3,0,30.6Z"/><path class="cls-1" d="M104.13,66.92c-9.92,4.26-18.37,9.41-25.46,16.6a53.93,53.93,0,0,0-11,15.41,3.87,3.87,0,0,1-4.09,2.64q-25-.13-49.94,0c-2.46,0-3.14-.73-2.86-3.1C12,88.78,17,81.33,24.35,75.36,37.18,64.93,52.3,60.9,68.5,60.32A81.22,81.22,0,0,1,104.13,66.92Z"/><path class="cls-1" d="M45.55,28.27a26.88,26.88,0,1,1,26.94,27A26.69,26.69,0,0,1,45.55,28.27Z"/><path class="cls-1" d="M241,54.88l-2.17.64c-2.65-1.09-5.75.66-8.28-1.28-12.25-2.89-20.86-14.78-20-27.6a26.74,26.74,0,0,1,24-25c14.18-1.36,26.83,8,29.33,21.62a26.92,26.92,0,0,1-19.59,31.06A30.78,30.78,0,0,1,241,54.88Z"/><path class="cls-1" d="M.07,198.1c0-12.46,0-24.93,0-37.39,0-2.35.59-3.22,3-3.06a62,62,0,0,0,8.83,0c2.54-.19,3.26.62,3.23,3.19C15,173.3,15,185.77,15,198.23c0,12.23-.06,24.47.05,36.7,0,2.38-.6,3.18-3,3a63.47,63.47,0,0,0-8.83,0c-2.5.19-3.29-.5-3.26-3.13C.15,222.57.07,210.33.07,198.1Z"/><path class="cls-2" d="M230.5,54.24c2.64,1.19,5.68-.15,8.28,1.28l-11-.09C228.48,54.55,230,55.52,230.5,54.24Z"/></g></g></svg>