<svg xmlns="http://www.w3.org/2000/svg" viewBox="0 0 336.67 300.37"><defs><style>.cls-1{fill:#fc0;}</style></defs><g id="Capa_2" data-name="Capa 2"><g id="Capa_1-2" data-name="Capa 1"><path class="cls-1" d="M335.76,228l-5.28-15.43L268.37,30.61c-3.65-19.8-25.28-33.3-48.29-30.15S181.37,22.2,185,42l2,57.61a40.83,40.83,0,0,0-37.18-3.09l1.9-54.5a31.54,31.54,0,0,0-3.48-21.14C142.51,10.37,131,2.42,116.71.46,93.7-2.69,72.07,10.79,68.4,30.6L6.17,212.53.92,227.91c-6.32,34.14,20.72,66.22,60.38,71.66s77-17.81,83.29-51.95l.55-16,2.11-60.84c.34.17.67.33,1,.47a40.8,40.8,0,0,0,41.08-4l2.21,64.38.55,16c6.31,34.13,43.58,57.4,83.25,52S342.06,262.09,335.76,228Zm-214,16.54a51.34,51.34,0,0,1-102-8.34,49.44,49.44,0,0,1,.31-5.61A51.34,51.34,0,1,1,121.8,244.5Zm142.12,43A51.34,51.34,0,1,1,315,230.81a49.5,49.5,0,0,1,.28,5.35A51.33,51.33,0,0,1,263.92,287.5Z"/><path class="cls-1" d="M111.83,248.21a1.67,1.67,0,0,1,0,.32,5.87,5.87,0,0,1-2.11,4.21h0a44.35,44.35,0,0,1-63.31,14.89,5.84,5.84,0,0,1-5.27-4.19,5.45,5.45,0,0,1-.26-1.67,5.89,5.89,0,0,1,5.88-5.88,5.47,5.47,0,0,1,1.68.26,5.79,5.79,0,0,1,3.38,2.65,34,34,0,0,0,48.31-10.14,2.32,2.32,0,0,1,0-.46,5.88,5.88,0,0,1,2.71-4.94,5.78,5.78,0,0,1,3.17-.93A5.88,5.88,0,0,1,111.83,248.21Z"/><path class="cls-1" d="M304.71,248.21c0,.11,0,.22,0,.32a5.87,5.87,0,0,1-2.11,4.21h0a44.34,44.34,0,0,1-63.3,14.89,5.87,5.87,0,0,1-5.28-4.19,5.77,5.77,0,0,1-.25-1.67,5.88,5.88,0,0,1,5.87-5.88,5.53,5.53,0,0,1,1.69.26,5.82,5.82,0,0,1,3.38,2.65A34,34,0,0,0,293,248.67a2.32,2.32,0,0,1,0-.46,5.86,5.86,0,0,1,2.71-4.94,5.78,5.78,0,0,1,3.17-.93A5.87,5.87,0,0,1,304.71,248.21Z"/></g></g></svg>