<?xml version="1.0" encoding="UTF-8"?>
<!DOCTYPE svg PUBLIC "-//W3C//DTD SVG 1.1//EN" "http://www.w3.org/Graphics/SVG/1.1/DTD/svg11.dtd">
<!-- Creator: CorelDRAW 2020 (64-Bit) -->
<svg xmlns="http://www.w3.org/2000/svg" xml:space="preserve" width="91.44mm" height="91.44mm" version="1.1" style="shape-rendering:geometricPrecision; text-rendering:geometricPrecision; image-rendering:optimizeQuality; fill-rule:evenodd; clip-rule:evenodd"
viewBox="0 0 9144 9144"
 xmlns:xlink="http://www.w3.org/1999/xlink"
 xmlns:xodm="http://www.corel.com/coreldraw/odm/2003">
 <defs>
  <style type="text/css">
   <![CDATA[
    .str6 {stroke:#373435;stroke-width:468.84;stroke-miterlimit:22.9256}
    .str3 {stroke:#373435;stroke-width:468.84;stroke-miterlimit:22.9256}
    .str5 {stroke:#FEFEFE;stroke-width:468.84;stroke-miterlimit:22.9256}
    .str4 {stroke:#FF5E5B;stroke-width:468.84;stroke-miterlimit:22.9256}
    .str12 {stroke:#BDBFC1;stroke-width:169.33;stroke-miterlimit:22.9256}
    .str16 {stroke:#373435;stroke-width:169.33;stroke-miterlimit:22.9256}
    .str7 {stroke:#373435;stroke-width:62.44;stroke-miterlimit:22.9256}
    .str10 {stroke:#373435;stroke-width:16.93;stroke-miterlimit:22.9256}
    .str11 {stroke:#BDBFC1;stroke-width:211.67;stroke-miterlimit:22.9256}
    .str13 {stroke:#373435;stroke-width:211.67;stroke-miterlimit:22.9256}
    .str15 {stroke:#373435;stroke-width:211.67;stroke-miterlimit:22.9256}
    .str9 {stroke:#373435;stroke-width:211.67;stroke-miterlimit:22.9256}
    .str8 {stroke:#373435;stroke-width:20;stroke-miterlimit:22.9256}
    .str2 {stroke:#FFCC00;stroke-width:20;stroke-miterlimit:22.9256}
    .str0 {stroke:#373435;stroke-width:135.47;stroke-miterlimit:22.9256}
    .str14 {stroke:#373435;stroke-width:135.47;stroke-miterlimit:22.9256}
    .str1 {stroke:#373435;stroke-width:135.47;stroke-miterlimit:22.9256}
    .fil1 {fill:none}
    .fil12 {fill:#FEFEFE}
    .fil9 {fill:#373435}
    .fil8 {fill:#ED3237}
    .fil7 {fill:#6B809B}
    .fil3 {fill:#6B809B}
    .fil0 {fill:#E1C536}
    .fil4 {fill:#E1C536}
    .fil6 {fill:#FEE010}
    .fil5 {fill:#FEFEFE}
    .fil11 {fill:#FFCC00}
    .fil2 {fill:#FFCC00}
    .fil10 {fill:#373435;fill-rule:nonzero}
   ]]>
  </style>
 </defs>
 <g id="Capa_x0020_1">
  <metadata id="CorelCorpID_0Corel-Layer"/>
  <path class="fil0 str0" d="M-19270.73 -9511.69l772.53 0c185.21,0 336.72,-151.53 336.72,-336.72 0,-185.2 -151.51,-336.72 -336.72,-336.72l-772.53 0 0 673.44z"/>
  <line class="fil1 str1" x1="-19270.73" y1="-10185.13" x2="-19270.73" y2= "-8813.52" />
  <polygon class="fil2 str2" points="-116292.06,-51293.93 -102610.52,-51293.93 -102610.52,-47820.48 -116292.06,-47820.48 "/>
  <g id="_2691837996944">
   <path class="fil1 str3" d="M-79180.5 -50435.75l0 -7567.88c0,-555.36 454.29,-1009.65 1009.65,-1009.65 555.36,0 1009.65,454.29 1009.65,1009.65l0 5404.38"/>
   <path class="fil1 str3" d="M-77161.2 -52599.25l0 -6999.29c0,-555.36 454.29,-1009.65 1009.65,-1009.65 555.36,0 1009.65,454.29 1009.65,1009.65l0 6020.06"/>
   <path class="fil1 str3" d="M-75141.9 -53578.47l0 -7308.85c0,-555.36 454.29,-1009.65 1009.65,-1009.65 555.36,0 1009.65,454.29 1009.65,1009.65l0 7173.91"/>
   <path class="fil1 str3" d="M-73122.6 -53713.41l0 -5885.13c0,-555.36 454.55,-1009.65 1009.91,-1009.65 555.1,0 1009.65,454.29 1009.65,1009.65l0 6523.3"/>
   <path class="fil1 str3" d="M-69545.17 -52679.94l1298.31 -2380.19c265.91,-487.63 882.39,-668.87 1369.75,-402.96 487.63,265.91 668.87,882.12 402.96,1369.75l-1942.84 3562.35"/>
   <path class="fil1 str3" d="M-71103.83 -53091.11c0.26,1.06 0.53,1.85 0.79,2.91"/>
   <line class="fil1 str3" x1="-71103.04" y1="-53839.35" x2="-71103.04" y2= "-52544.48" />
   <line class="fil1 str3" x1="-69387.48" y1="-52968.87" x2="-69772.45" y2= "-52254.49" />
   <path class="fil1 str3" d="M-71103.04 -52544.48c281.25,570.71 724.69,667.28 1330.59,289.98"/>
   <g>
    <path class="fil1 str3" d="M-68383.39 -50592.91c-41.28,67.73 -73.55,146.58 -97.1,236.27"/>
    <path class="fil1 str3" d="M-69094.59 -46539.23c-865.72,1635.13 -2706.42,2763.57 -4837.38,2763.57 -1968.5,0 -3689.61,-963.35 -4622.8,-2399.51"/>
   </g>
   <path class="fil1 str3" d="M-78733.62 -44577.34c-35.98,277.55 -100.01,538.69 -191.82,783.7"/>
   <path class="fil0 str3" d="M-78144.13 -43793.65l8477.25 0c948.93,-0.01 1718.48,289.92 1718.48,647.43l-0.01 0.01c0.01,357.5 -769.54,647.43 -1718.46,647.43l-8477.26 0c-948.92,0 -1718.46,-289.93 -1718.46,-647.44l-0.01 0.01c0.01,-357.52 769.55,-647.45 1718.48,-647.45z"/>
  </g>
  <path class="fil1 str3" d="M-78650.28 -48013.75c196.32,1516.59 104.78,2923.12 -275.17,4220.1"/>
  <path class="fil1 str3" d="M-69026.59 -43793.65c-198.44,-2364.85 -45.77,-4458.23 458.26,-6280.15 58.47,-188.65 87.84,-282.84 87.84,-282.84"/>
  <path class="fil1 str3" d="M-79180.5 -50435.75c153.99,1214.17 330.73,2021.68 530.23,2422 167.48,1796.52 75.67,3203.05 -275.17,4220.1"/>
  <path class="fil1 str3" d="M-79180.5 -55011.19c581.55,-361.69 1254.65,-361.69 2019.3,0"/>
  <path class="fil1 str3" d="M-77161.2 -55822.4c695.06,-360.63 1368.16,-360.63 2019.3,0"/>
  <path class="fil1 str3" d="M-75141.9 -56678.86c647.96,-360.63 1321.06,-360.63 2019.3,0"/>
  <path class="fil1 str3" d="M-73122.6 -55814.99c656.7,-358.25 1329.8,-370.68 2019.56,-37.57"/>
  <path class="fil1 str3" d="M-69222.12 -53272.35c900.64,-69.85 1491.46,252.68 1772.71,967.05"/>
  <path class="fil2 str3" d="M-77161.2 -58003.62l0 2992.44 0 2411.94 0 -5404.38zm4038.6 -1594.91l0 2919.68 0 2965.45 0 -5885.13zm-6057.9 4587.34l0 4575.44c153.99,1214.17 330.73,2021.68 530.23,2422 81.76,632.09 113.77,1244.86 95.51,1838.59 858.57,1321.59 2384.43,2242.61 4156.34,2381.51l933.19 0c1930.4,-151.08 3568.7,-1231.11 4370.65,-2745.58 51.33,-1273.97 226.75,-2452.16 526.26,-3534.57 58.47,-188.65 87.84,-282.84 87.84,-282.84 16.67,-63.76 37.84,-121.71 63.5,-174.36 10.58,-21.43 21.7,-42.07 33.6,-61.91l933.98 -1712.38c-281.25,-714.38 -872.07,-1036.9 -1772.71,-967.05l-165.36 303.48 -384.97 714.38c-605.9,377.3 -1049.34,280.72 -1330.59,-289.98l0 -530.75 0 -12.96 0 -2764.37 0 -3745.97c0,-555.36 -454.55,-1009.65 -1009.91,-1009.65 -555.1,0 -1009.65,454.29 -1009.65,1009.65l0 -1288.79c0,-555.36 -454.29,-1009.91 -1009.65,-1009.91 -555.36,0 -1009.65,454.55 -1009.65,1009.91l0 1288.79c0,-555.36 -454.29,-1009.65 -1009.65,-1009.65 -555.36,0 -1009.65,454.29 -1009.65,1009.65l0 1594.91c0,-555.36 -454.29,-1009.65 -1009.65,-1009.65 -555.36,0 -1009.65,454.29 -1009.65,1009.65l0 2992.44 -0.01 -0.03z"/>
  <path class="fil0 str3" d="M-66877.11 -55463.1c-487.36,-265.91 -1103.84,-84.67 -1369.75,402.96l-975.25 1787.79c900.64,-69.85 1491.46,252.68 1772.71,967.05l975.25 -1788.05c265.91,-487.63 84.67,-1103.84 -402.96,-1369.75z"/>
  <path class="fil0 str3" d="M-71103.04 -55852.56l0 -3745.97c0,-555.36 -454.55,-1009.65 -1009.91,-1009.65 -555.1,0 -1009.65,454.29 -1009.65,1009.65l0 2919.68 0 863.86c656.7,-358.25 1329.8,-370.68 2019.56,-37.57z"/>
  <path class="fil0 str3" d="M-73122.6 -56678.86l0 -2919.68 0 -1288.79c0,-555.36 -454.29,-1009.91 -1009.65,-1009.91 -555.36,0 -1009.65,454.55 -1009.65,1009.91l0 1288.79 0 2919.68c647.96,-360.63 1321.06,-360.63 2019.3,0z"/>
  <path class="fil0 str3" d="M-75141.9 -56678.86l0 -2919.68c0,-555.36 -454.29,-1009.65 -1009.65,-1009.65 -555.36,0 -1009.65,454.29 -1009.65,1009.65l0 1594.91 0 2181.23c695.06,-360.63 1368.16,-360.63 2019.3,0l0 -856.46z"/>
  <path class="fil0 str3" d="M-77161.2 -55822.4l0 -2181.23c0,-555.36 -454.29,-1009.65 -1009.65,-1009.65 -555.36,0 -1009.65,454.29 -1009.65,1009.65l0 2992.44c581.55,-361.69 1254.65,-361.69 2019.3,0l0 -811.21z"/>
  <path class="fil3 str3" d="M-74398.42 -43793.65c-1771.91,-138.91 -3297.77,-1059.92 -4156.34,-2381.51 -8.73,282.84 -28.84,561.45 -60.06,835.55 -35.45,380.74 -91.28,731.04 -167.48,1050.4 -35.98,171.98 -83.87,337.08 -143.14,495.56l4527.02 0z"/>
  <path class="fil0 str3" d="M-69094.59 -46539.23c-801.95,1514.48 -2440.25,2594.5 -4370.65,2745.58l4438.65 0c-80.7,-959.91 -103.19,-1875.1 -68,-2745.58z"/>
  <path class="fil0 str3" d="M-74398.42 -43793.65c-1771.91,-138.91 -3297.77,-1059.92 -4156.34,-2381.51 -8.73,282.84 -28.84,561.45 -60.06,835.55 -35.45,380.74 -91.28,731.04 -167.48,1050.4 -35.98,171.98 -83.87,337.08 -143.14,495.56l4527.02 0z"/>
  <g id="_2691837973952">
   <path class="fil1 str3" d="M-56422.9 -42692.72l2520.42 -7135.81c184.94,-523.61 -92.34,-1103.31 -615.95,-1288.26 -523.61,-184.94 -1103.31,92.08 -1288.26,615.69l-1799.7 5095.88"/>
   <path class="fil1 str3" d="M-57606.38 -45405.22l2330.98 -6599.77c184.94,-523.61 -92.34,-1103.31 -615.95,-1288.26 -523.61,-184.94 -1103.31,92.08 -1288.26,615.69l-2004.75 5676.37"/>
   <path class="fil1 str3" d="M-59184.35 -47001.19l2434.17 -6891.6c184.94,-523.61 -92.34,-1103.31 -615.95,-1288.26 -523.61,-184.94 -1103.31,92.08 -1288.26,615.69l-2389.19 6764.6"/>
   <path class="fil1 str3" d="M-61043.58 -47800.76l1960.03 -5549.11c184.94,-523.88 -92.08,-1103.31 -615.95,-1288.52 -523.61,-184.94 -1103.31,92.34 -1288.26,615.95l-2172.23 6150.77"/>
   <path class="fil1 str3" d="M-64760.71 -48017.72l-431.54 -2676.79c-88.37,-548.22 -609.07,-924.45 -1157.55,-836.08 -548.22,88.37 -924.45,609.07 -836.08,1157.29l645.85 4006.32"/>
   <path class="fil1 str3" d="M-63154.16 -47886.22c-0.53,0.79 -1.06,1.59 -1.59,2.38"/>
   <line class="fil1 str3" x1="-62905.72" y1="-48592.13" x2="-63336.72" y2= "-47371.08" />
   <line class="fil1 str3" x1="-64813.1" y1="-48342.63" x2="-64688.22" y2= "-47540.68" />
   <path class="fil1 str3" d="M-63336.72 -47371.08c-455.35,444.24 -905.67,387.61 -1351.49,-169.6"/>
   <g>
    <path class="fil1 str3" d="M-66551.41 -46436.83c16.4,77.79 20.64,162.98 12.96,255.06"/>
    <path class="fil1 str3" d="M-67230.6 -42377.6c271.73,1830.12 1631.42,3507.32 3640.67,4216.93 1856.32,655.64 3799.95,320.41 5158.05,-723.11"/>
   </g>
   <path class="fil1 str3" d="M-58795.15 -37317.71c-58.47,273.84 -85.2,541.34 -80.17,802.75"/>
   <path class="fil0 str3" d="M-59612.11 -36775.09l-7993.29 -2823.14c-894.8,-316.05 -1717.02,-298.95 -1836.09,38.17l0 0c-119.07,337.12 510.03,866.81 1404.84,1182.85l7993.29 2823.15c894.8,316.03 1717.02,298.93 1836.08,-38.19l0.02 0.01c119.05,-337.13 -510.04,-866.81 -1404.86,-1182.85z"/>
  </g>
  <path class="fil1 str3" d="M-57729.41 -40585.57c-690.3,1364.46 -1072.09,2721.5 -1145.91,4070.61"/>
  <path class="fil1 str3" d="M-68209.03 -39811.4c974.46,-2163.76 1527.7,-4188.35 1659.47,-6074.3 7.41,-197.38 11.11,-296.07 11.11,-296.07"/>
  <path class="fil1 str3" d="M-56422.9 -42692.72c-549.54,1093.52 -985.04,1795.99 -1306.51,2107.14 -756.18,1638.04 -1137.97,2995.08 -1145.91,4070.61"/>
  <path class="fil1 str3" d="M-54899.16 -47007.01c-427.83,-534.72 -1062.57,-759.09 -1903.94,-672.57"/>
  <path class="fil1 str3" d="M-56532.96 -48444.49c-535.25,-571.5 -1169.99,-795.6 -1904.21,-672.57"/>
  <path class="fil1 str3" d="M-58151.95 -49924.31c-490.8,-555.89 -1125.27,-779.99 -1903.94,-672.57"/>
  <path class="fil1 str3" d="M-60343.76 -49782.49c-499.8,-556.42 -1130.3,-792.43 -1891.51,-707.76"/>
  <path class="fil1 str3" d="M-64868.13 -48683.68c-826.03,-365.92 -1490.4,-258.76 -1993.64,321.2"/>
  <path class="fil2 str3" d="M-55806.68 -50501.1l-996.42 2821.52 -803.28 2274.36 1799.7 -5095.88zm-3276.87 -2848.77l-972.34 2752.99 -987.69 2796.12 1960.03 -5549.11zm4184.39 6342.86l-1523.74 4314.3c-549.54,1093.52 -985.04,1795.99 -1306.51,2107.14 -287.6,568.59 -521.76,1135.86 -702.47,1701.8 -1249.63,960.17 -2995.08,1320.54 -4711.96,861.22l-880 -310.62c-1769.8,-785.55 -2955.13,-2349.24 -3206.75,-4044.42 375.71,-1218.41 602.72,-2387.86 681.04,-3508.11 7.41,-197.38 11.11,-296.07 11.11,-296.07 5.56,-65.35 5.03,-127.26 -1.85,-185.47 -2.65,-23.81 -6.35,-46.83 -11.11,-69.59l-310.36 -1925.64c503.24,-579.97 1167.61,-687.12 1993.64,-321.2l55.03 341.05 124.88 801.95c445.82,557.21 896.14,613.83 1351.23,169.6l177.01 -500.59 4.23 -12.17 920.49 -2606.41 1247.51 -3532.19c184.94,-523.61 764.65,-800.63 1288.26,-615.69 523.88,184.94 800.89,764.38 615.95,1288.26l429.15 -1215.5c184.94,-523.61 764.65,-800.63 1288.26,-615.69 523.61,184.94 800.89,764.65 615.95,1288.26l-429.42 1215.23c184.94,-523.61 764.65,-800.63 1288.26,-615.69 523.88,184.94 800.89,764.65 615.95,1288.26l-531.28 1503.89c184.94,-523.61 764.65,-800.63 1288.26,-615.69 523.61,184.94 800.89,764.65 615.95,1288.26l-996.69 2821.52 -0.02 0z"/>
  <path class="fil0 str3" d="M-66349.8 -51530.59c548.48,-88.37 1069.18,287.87 1157.55,836.08l324.11 2010.83c-826.03,-365.92 -1490.4,-258.76 -1993.64,321.2l-324.11 -2010.83c-88.37,-548.22 287.87,-1068.92 836.08,-1157.29l0.01 0.01z"/>
  <path class="fil0 str3" d="M-62235.26 -50490.25l1247.51 -3532.19c184.94,-523.61 764.65,-800.63 1288.26,-615.69 523.88,184.94 800.89,764.38 615.95,1288.26l-972.34 2752.99 -287.87 814.39c-499.8,-556.42 -1130.3,-792.43 -1891.51,-707.76z"/>
  <path class="fil0 str3" d="M-60055.89 -50596.88l972.34 -2752.99 429.15 -1215.5c184.94,-523.61 764.65,-800.63 1288.26,-615.69 523.61,184.94 800.89,764.65 615.95,1288.26l-429.42 1215.23 -972.34 2753.25c-490.8,-555.89 -1125.27,-779.99 -1903.94,-672.57l0 0.01z"/>
  <path class="fil0 str3" d="M-58151.95 -49924.31l972.34 -2753.25c184.94,-523.61 764.65,-800.63 1288.26,-615.69 523.88,184.94 800.89,764.65 615.95,1288.26l-531.28 1503.89 -726.28 2056.61c-535.25,-571.5 -1169.99,-795.6 -1904.21,-672.57l285.22 -807.24 0 -0.01z"/>
  <path class="fil0 str3" d="M-56532.96 -48444.49l726.28 -2056.61c184.94,-523.61 764.65,-800.63 1288.26,-615.69 523.61,184.94 800.89,764.65 615.95,1288.26l-996.69 2821.52c-427.83,-534.72 -1062.57,-759.09 -1903.94,-672.57l270.14 -764.91z"/>
  <path class="fil3 str3" d="M-63143.84 -38022.56c1716.88,459.32 3462.34,98.95 4711.96,-861.22 -85.99,269.61 -159.81,538.96 -221.46,807.77 -93.4,370.95 -157.43,719.67 -191.82,1046.16 -23.28,174.36 -33.34,345.81 -30.16,514.88l-4268.52 -1507.6 0 0.01z"/>
  <path class="fil0 str3" d="M-67230.6 -42377.6c251.62,1695.19 1436.95,3258.87 3206.75,4044.42l-4185.18 -1478.23c395.55,-878.42 721.78,-1733.55 978.43,-2566.19z"/>
  <path class="fil0 str3" d="M-63143.84 -38022.56c1716.88,459.32 3462.34,98.95 4711.96,-861.22 -85.99,269.61 -159.81,538.96 -221.46,807.77 -93.4,370.95 -157.43,719.67 -191.82,1046.16 -23.28,174.36 -33.34,345.81 -30.16,514.88l-4268.52 -1507.6 0 0.01z"/>
  <path class="fil1 str3" d="M-92576.4 -56359.11l0 3009.37m0 1796.25l0 4072.73m0 1796.26l0 2814.9c0,878.42 -718.87,1597.03 -1597.03,1597.03l-20521.61 0c-878.42,0 -1597.03,-718.61 -1597.03,-1597.03l0 -2723.09m0 -1979.88l0 -3889.11m0 -1979.87l0 -2917.56"/>
  <path class="fil1 str3" d="M-93340.26 -57162.65l-3707.87 0c-878.42,0 -1597.03,-718.87 -1597.03,-1597.03l0 -7949.94"/>
  <path class="fil1 str3" d="M-110143.68 -66889.27l0 8129.59c0,878.15 -718.61,1597.03 -1596.76,1597.03l-3787.78 0"/>
  <path class="fil1 str3" d="M-109855.55 -67077.65c3575.84,2736.32 7151.42,2785 10727.27,146.84"/>
  <line class="fil1 str3" x1="-104491.91" y1="-64987.97" x2="-104491.91" y2= "-41272.57" />
  <path class="fil1 str3" d="M-115398.04 -53609.57l21797.7 0c802.38,-0.01 1453.09,518.47 1453.09,1157.81l0 0.01c0,639.33 -650.71,1157.81 -1453.09,1157.81l-21797.7 0.01c-802.37,-0.01 -1453.08,-518.49 -1453.08,-1157.83l-0.01 0.01c0.01,-639.35 650.72,-1157.83 1453.1,-1157.83z"/>
  <path class="fil1 str3" d="M-115398.04 -47740.58l21797.7 0c802.38,-0.01 1453.09,518.47 1453.09,1157.81l0 0.01c0,639.33 -650.71,1157.81 -1453.09,1157.81l-21797.7 0.01c-802.37,-0.01 -1453.08,-518.49 -1453.08,-1157.83l-0.01 0.01c0.01,-639.35 650.72,-1157.83 1453.1,-1157.83z"/>
  <path class="fil0 str3" d="M-105432.51 -48319.49l2395.54 0c881.87,-0.01 1597.03,715.15 1597.03,1597.02l-0.01 279.41c0.01,881.86 -715.15,1597.02 -1597.02,1597.02l-2395.54 0c-881.86,0 -1597.02,-715.16 -1597.02,-1597.03l0 -279.39c0,-881.88 715.16,-1597.04 1597.03,-1597.04z"/>
  <path class="fil1 str4" d="M-107608.97 -65712.14c2307.7,-895.35 4450.56,-895.35 6429.11,0"/>
  <path class="fil1 str3" d="M-99128.28 -66930.81c289.45,-108.74 450.59,-34.93 483.13,221.19"/>
  <path class="fil1 str3" d="M-109855.55 -67077.39c-121.97,6.09 -218.02,68.79 -288.13,188.12"/>
  <path class="fil1 str3" d="M-93340.26 -57162.65c421.75,0 763.85,359.57 763.85,803.54"/>
  <path class="fil1 str3" d="M-116292.07 -56359.11c0,-443.97 342.11,-803.54 763.85,-803.54"/>
  <path class="fil0 str3" d="M-107608.97 -65712.14c2143.13,965.46 4286.25,965.46 6429.11,0 -1978.55,-895.35 -4121.41,-895.35 -6429.11,0z"/>
  <path class="fil2 str3" d="M-101179.86 -65712.14c-2142.86,965.46 -4285.99,965.46 -6429.11,0 -748.77,-337.08 -1497.54,-792.43 -2246.58,-1365.25 -121.97,6.09 -218.02,68.79 -288.13,188.12l0 8129.59c0,878.15 -718.61,1597.03 -1596.76,1597.03l-3787.78 0c-421.75,0 -763.85,359.57 -763.85,803.54l0 2917.56c174.89,-106.36 379.94,-168.01 598.75,-168.01l8969.9 0c293.42,-341.58 728.13,-558.8 1211,-558.8l860.95 0 0 -10660.06c0,-87.84 71.7,-159.54 159.54,-159.54 87.84,0 159.54,71.7 159.54,159.54l0 10660.06 1215.5 0c483.13,0 917.84,217.22 1211.26,558.8l8600.28 0c275.7,0 529.43,97.63 728.93,259.82l0 -3009.37c0,-443.97 -342.11,-803.54 -763.85,-803.54l-3707.87 0c-878.42,0 -1597.03,-718.87 -1597.03,-1597.03l0 -7949.94c-32.54,-256.12 -193.68,-329.94 -483.13,-221.19 -683.95,504.56 -1367.63,910.7 -2051.58,1218.67l0.02 0z"/>
  <path class="fil2 str3" d="M-104332.37 -50694.91l0 2375.43 1295.4 0c492.39,0 934.51,225.95 1228.2,578.91l8503.44 0c275.7,0 529.43,97.63 728.93,259.82l0 -4072.73c-199.5,162.19 -453.23,259.56 -728.93,259.56l-8566.94 0c-293.42,364.6 -742.95,599.02 -1244.6,599.02l-1215.5 0 0 -0.01z"/>
  <path class="fil3 str3" d="M-106660.44 -45424.68l-9032.87 0c-218.81,0 -423.86,-61.65 -598.75,-168.01l0 2723.09c0,878.42 718.61,1597.03 1597.03,1597.03l10203.13 0c-87.84,0 -159.54,-71.7 -159.54,-159.54l0 -3413.65 -781.05 0c-492.39,0 -934.51,-225.95 -1227.93,-578.91l-0.02 -0.01z"/>
  <path class="fil2 str3" d="M-104332.37 -44845.77l0 3413.65c0,87.84 -71.7,159.54 -159.54,159.54l10318.49 0c878.15,0 1597.03,-718.61 1597.03,-1597.03l0 -2814.9c-199.5,162.19 -453.23,259.82 -728.93,259.82l-8503.44 0c-293.69,352.95 -735.81,578.91 -1228.2,578.91l-1295.4 0 -0.01 0.01z"/>
  <path class="fil2 str3" d="M-104651.46 -41432.12l0 -3413.65 -781.05 0c-492.39,0 -934.51,-225.95 -1227.93,-578.91l-9032.87 0c-218.81,0 -423.86,-61.65 -598.75,-168.01l0 2723.09c0,878.42 718.61,1597.03 1597.03,1597.03l10203.13 0c-87.84,0 -159.54,-71.7 -159.54,-159.54l-0.02 -0.01z"/>
  <path class="fil1 str3" d="M-74629.54 -9895.67l0 -17653.25c0,-646.38 528.9,-1175.28 1175.28,-1175.28l8018.98 0c646.38,0 1175.54,528.9 1175.54,1175.28l0 9714.71m-1175.54 12535.68l-1739.64 0"/>
  <path class="fil1 str3" d="M-61928.76 -14492.8l1181.63 0c2528.36,0 4597.14,2068.78 4597.14,4597.14 0,2528.62 -2068.78,4597.14 -4597.14,4597.14l-6427.79 0"/>
  <path class="fil1 str3" d="M-64259.74 -18099.59c-33.34,2482.31 849.58,3684.58 2649.01,3606.79"/>
  <path class="fil1 str3" d="M-64259.74 -22155.12l0 -5393.8c0,-646.38 -529.17,-1175.28 -1175.54,-1175.28l-8018.98 0c-646.38,0 -1175.28,528.9 -1175.28,1175.28l0 11962.33"/>
  <path class="fil1 str3" d="M-67174.91 -5298.53l6427.79 0c2528.36,0 4597.14,-2068.51 4597.14,-4597.14 0,-2528.36 -2068.78,-4597.14 -4597.14,-4597.14l-863.6 0c-109.27,4.76 -215.37,4.76 -318.03,0 -1524,-70.11 -2301.08,-1184.01 -2330.98,-3341.41 -1.32,-86.78 -1.32,-175.15 0,-265.38l0 -4055.53m-10369.81 6568.54l0 5690.92"/>
  <path class="fil1 str3" d="M-70749.69 -5298.53l-1981.46 0c-212.73,0 -417.78,-35.45 -609.34,-100.81m-1289.05 -1797.58l0 -3645.43"/>
  <path class="fil1 str3" d="M-67174.91 -5298.53l6427.79 0c2528.36,0 4597.14,-2068.51 4597.14,-4597.14 0,-2528.36 -2068.78,-4597.14 -4597.14,-4597.14l-863.6 0c-109.27,4.76 -215.37,4.76 -318.03,0 -1524,-70.11 -2301.08,-1184.01 -2330.98,-3341.41 -1.32,-86.78 -1.32,-175.15 0,-265.38l0 -4055.53"/>
  <line class="fil1 str3" x1="-74629.54" y1="-7641.42" x2="-56744.51" y2= "-7641.42" />
  <path class="fil1 str3" d="M-74629.54 -17553.76c1909.76,-869.95 2915.18,-2921 3016.25,-6153.41l7177.34 -4458.76"/>
  <path class="fil4 str3" d="M-74629.54 -17553.76c1909.76,-869.95 2915.18,-2921 3016.25,-6153.41l7177.34 -4458.76c-207.96,-334.43 -578.64,-558.27 -999.33,-558.27l-8018.98 0c-646.38,0 -1175.28,528.9 -1175.28,1175.28l0 9995.16z"/>
  <path class="fil2 str3" d="M-71613.29 -23707.17c-101.07,3232.41 -1106.49,5283.46 -3016.25,6153.41l0 6711.41 0 946.68 0 2254.25 17885.03 0c378.35,-667.01 594.52,-1436.69 594.52,-2254.25 0,-2528.36 -2068.78,-4597.14 -4597.14,-4597.14l-863.6 0c-109.27,4.76 -215.37,4.76 -318.03,0 -1524,-70.11 -2301.08,-1184.01 -2330.98,-3341.41 -1.32,-86.78 -1.32,-175.15 0,-265.38l0 -9449.33c0,-225.69 -64.82,-437.36 -176.21,-617.01l-7177.34 4458.76 0 0.01z"/>
  <path class="fil1 str3" d="M-70749.69 -5298.53c-22.75,-123.56 -34.66,-251.62 -34.66,-382.59 0,-1082.68 815.71,-1960.3 1821.92,-1960.3 1006.47,0 1822.18,877.62 1822.18,1960.3 0,130.97 -11.91,259.03 -34.66,382.59"/>
  <path class="fil1 str3" d="M-73340.49 -5399.34c191.56,65.35 396.61,100.81 609.34,100.81l1981.46 0c-22.75,-123.56 -34.66,-251.62 -34.66,-382.59 0,-1082.68 815.71,-1960.3 1821.92,-1960.3l-5667.11 0 0 444.5"/>
  <path class="fil4 str3" d="M-68962.43 -7641.42c1006.47,0 1822.18,877.62 1822.18,1960.3 0,130.97 -11.91,259.03 -34.66,382.59l6427.79 0c1710.8,0 3211.25,-946.94 4002.62,-2342.89l-12217.92 0 -0.01 0z"/>
  <polygon class="fil5 str5" points="-78089.23,-6469.84 -69034.66,-6469.84 -69034.66,-8852.15 -78089.23,-8852.15 "/>
  <path class="fil1 str3" d="M-80811 -9895.67l0 -17653.25c0,-646.38 528.9,-1175.28 1175.54,-1175.28l8018.73 0c646.64,0 1175.54,528.9 1175.54,1175.28l0 9714.71m-1175.54 12535.68l-1739.64 0"/>
  <path class="fil1 str3" d="M-68110.22 -14492.8l1181.63 0c2528.36,0 4597.14,2068.78 4597.14,4597.14 0,2528.62 -2068.78,4597.14 -4597.14,4597.14l-6427.78 0"/>
  <path class="fil1 str3" d="M-70441.19 -18099.59c-33.34,2482.31 849.58,3684.58 2649,3606.79"/>
  <path class="fil1 str3" d="M-70441.19 -22155.12l0 -5393.8c0,-646.38 -528.9,-1175.28 -1175.54,-1175.28l-8018.73 0c-646.64,0 -1175.54,528.9 -1175.54,1175.28l0 11962.33"/>
  <path class="fil1 str3" d="M-73356.36 -5298.53l6427.78 0c2528.36,0 4597.14,-2068.51 4597.14,-4597.14 0,-2528.36 -2068.78,-4597.14 -4597.14,-4597.14l-863.6 0c-109.27,4.76 -215.37,4.76 -318.03,0 -1523.99,-70.11 -2301.07,-1184.01 -2330.97,-3341.41 -1.32,-86.78 -1.32,-175.15 0,-265.38l0 -4055.53m-10369.82 6568.54l0 5690.92"/>
  <path class="fil1 str3" d="M-76931.15 -5298.53l-1981.2 0c-1044.31,0 -1898.65,-854.34 -1898.65,-1898.39l0 -3645.43"/>
  <path class="fil1 str3" d="M-73356.36 -5298.53l6427.78 0c2528.36,0 4597.14,-2068.51 4597.14,-4597.14 0,-2528.36 -2068.78,-4597.14 -4597.14,-4597.14l-863.6 0c-109.27,4.76 -215.37,4.76 -318.03,0 -1523.99,-70.11 -2301.07,-1184.01 -2330.97,-3341.41 -1.32,-86.78 -1.32,-175.15 0,-265.38l0 -4055.53"/>
  <line class="fil1 str3" x1="-80811" y1="-7641.42" x2="-62925.97" y2= "-7641.42" />
  <path class="fil1 str3" d="M-80811 -17553.76c1909.76,-869.95 2915.18,-2921 3016.25,-6153.41l7177.35 -4458.76"/>
  <path class="fil4 str3" d="M-80811 -17553.76c1909.76,-869.95 2915.18,-2921 3016.25,-6153.41l7177.35 -4458.76c-207.7,-334.43 -578.64,-558.27 -999.33,-558.27l-8018.73 0c-646.64,0 -1175.54,528.9 -1175.54,1175.28l0 9995.16z"/>
  <path class="fil2 str3" d="M-77794.75 -23707.17c-101.07,3232.41 -1106.49,5283.46 -3016.25,6153.41l0 6711.41 0 946.68 0 2254.25 17885.03 0c378.35,-667.01 594.52,-1436.69 594.52,-2254.25 0,-2528.36 -2068.78,-4597.14 -4597.14,-4597.14l-863.6 0c-109.27,4.76 -215.37,4.76 -318.03,0 -1523.99,-70.11 -2301.07,-1184.01 -2330.97,-3341.41 -1.32,-86.78 -1.32,-175.15 0,-265.38l0 -9449.33c0,-225.69 -64.56,-437.36 -176.21,-617.01l-7177.35 4458.76 0 0.01z"/>
  <path class="fil1 str3" d="M-76931.15 -5298.53c-22.75,-123.56 -34.66,-251.62 -34.66,-382.59 0,-1082.68 815.71,-1960.3 1821.92,-1960.3 1006.48,0 1822.19,877.62 1822.19,1960.3 0,130.97 -11.91,259.03 -34.66,382.59"/>
  <path class="fil4 str3" d="M-76931.15 -5298.53c-22.75,-123.56 -34.66,-251.62 -34.66,-382.59 0,-1082.68 815.71,-1960.3 1821.92,-1960.3l-5667.11 0 0 444.5c0,1044.05 854.34,1898.39 1898.65,1898.39l1981.2 0z"/>
  <path class="fil4 str3" d="M-75143.89 -7641.42c1006.48,0 1822.19,877.62 1822.19,1960.3 0,130.97 -11.91,259.03 -34.66,382.59l6427.78 0c1710.8,0 3211.25,-946.94 4002.62,-2342.89l-12217.92 0 -0.01 0z"/>
  <path class="fil1 str3" d="M-105941.58 -10287.24c0,-2648.66 -2147.17,-4795.83 -4795.83,-4795.83 -2648.66,0 -4795.83,2147.17 -4795.83,4795.83 0,2648.66 2147.17,4795.83 4795.83,4795.83 2648.66,0 4795.83,-2147.17 4795.83,-4795.83z"/>
  <path class="fil1 str3" d="M-105083 -9265.68c-482.07,2685.52 -2830.25,4723.34 -5654.41,4723.34 -2790.83,0 -5117.04,-1990.2 -5636.42,-4628.89m0 -2232.29c519.64,-2638.43 2845.59,-4628.62 5636.42,-4628.62 2930.26,0 5348.29,2193.93 5700.71,5028.94"/>
  <path class="fil1 str3" d="M-93347.68 -10287.24c0,-2648.66 -2147.17,-4795.83 -4795.83,-4795.83 -2648.66,0 -4795.83,2147.17 -4795.83,4795.83 0,2648.66 2147.17,4795.83 4795.83,4795.83 2648.66,0 4795.83,-2147.17 4795.83,-4795.83z"/>
  <path class="fil1 str3" d="M-103844.22 -11003.2c352.42,-2835.01 2770.18,-5028.94 5700.7,-5028.94 2857.24,0 5227.11,2085.98 5670.29,4817.8m0 1853.93c-443.18,2732.09 -2813.05,4818.06 -5670.29,4818.06 -2825.75,0 -5174.99,-2040.2 -5655.19,-4727.84"/>
  <path class="fil1 str3" d="M-105084.58 -9264.1c394.76,-375.18 825.76,-375.18 1293.55,0"/>
  <path class="fil1 str3" d="M-105036.69 -11003.2c399.52,316.71 796.93,316.71 1192.48,0"/>
  <path class="fil1 str3" d="M-92473.23 -11214.34c65.35,-232.04 279.4,-403.23 531.55,-403.23 303.74,0 552.19,248.18 552.19,551.92l0 1556.54c0,303.74 -248.44,552.19 -552.19,552.19 -252.15,0 -466.2,-171.45 -531.55,-403.49"/>
  <path class="fil1 str3" d="M-116373.82 -9171.23c-101.07,130.18 -259.29,214.31 -436.03,214.31 -303.48,0 -551.92,-248.44 -551.92,-552.19l0 -1556.54c0,-303.74 248.44,-551.92 551.92,-551.92 176.74,0 334.96,83.87 436.03,214.05"/>
  <path class="fil1 str3" d="M-114219.06 -18046.4l19632.08 0c1829.04,-0.01 3312.32,231.74 3312.32,517.5l-0.01 0.01c0.01,285.76 -1483.27,517.51 -3312.31,517.51l-19632.08 0.02c-1829.03,-0.02 -3312.31,-231.77 -3312.31,-517.54l-0.01 0.01c0.01,-285.77 1483.29,-517.52 3312.33,-517.52z"/>
  <path class="fil1 str3" d="M-116810.12 -18046.4c-21.96,-300.57 -33.07,-604.04 -33.07,-910.17 0,-5942.01 4178.56,-10907.98 9757.57,-12120.03m806.18 -147.37c451.64,-66.94 911.23,-109.8 1377.16,-127m806.18 -3.71c465.93,12.7 925.5,51.06 1377.41,114.04m805.92 139.17c5637.74,1167.08 9875.31,6161.35 9875.31,12144.9 0,306.12 -11.11,609.6 -33.07,910.17"/>
  <path class="fil1 str3" d="M-104499.19 -31776.95l0 0c222.58,0 403.09,1204.2 403.09,2689.09l0 0c0,1484.89 -180.51,2689.09 -403.09,2689.09l0 0c-222.57,0 -403.08,-1204.2 -403.08,-2689.09l-0.02 0c0.02,-1484.89 180.53,-2689.09 403.1,-2689.09z"/>
  <path class="fil1 str3" d="M-106682.53 -31776.95l0 0c222.59,0 403.1,948.22 403.1,2117.46l-0.01 0c0.01,1169.24 -180.5,2117.46 -403.08,2117.46l-0.01 0c-222.57,0 -403.08,-948.22 -403.08,-2117.46l-0.02 0c0.02,-1169.24 180.53,-2117.46 403.11,-2117.46z"/>
  <path class="fil1 str3" d="M-102315.6 -31776.95l0 0c222.58,0 403.09,948.22 403.09,2117.46l0.01 0c-0.01,1169.24 -180.52,2117.46 -403.1,2117.46l0 0c-222.58,0 -403.09,-948.22 -403.09,-2117.46l0 0c0,-1169.24 180.51,-2117.46 403.09,-2117.46z"/>
  <path class="fil2 str6" d="M-110737.41 -5491.4c-2648.74,0 -4795.84,-2147.09 -4795.84,-4795.84 0,-2648.74 2147.09,-4796.1 4795.84,-4796.1 2648.74,0 4795.84,2147.36 4795.84,4796.1 0,2648.74 -2147.09,4795.84 -4795.84,4795.84zm0 949.06c2824.16,0 5172.34,-2037.82 5654.41,-4723.34 392.11,-371.48 820.21,-373.06 1284.29,-4.5 480.21,2687.64 2829.44,4727.84 5655.19,4727.84 2857.24,0 5227.11,-2085.98 5670.29,-4818.06 65.35,232.04 279.4,403.49 531.55,403.49 303.74,0 552.19,-248.44 552.19,-552.19l0 -1556.54c0,-303.74 -248.44,-551.92 -552.19,-551.92 -252.15,0 -466.2,171.19 -531.55,403.23 -443.18,-2731.82 -2813.05,-4817.8 -5670.29,-4817.8 -2930.53,0 -5348.29,2193.93 -5700.7,5028.94 -395.55,316.71 -792.96,316.71 -1192.48,0 -352.43,-2835.01 -2770.45,-5028.94 -5700.71,-5028.94 -2790.83,0 -5116.78,1990.2 -5636.42,4628.62 -101.07,-130.18 -259.29,-214.05 -436.03,-214.05 -303.48,0 -551.92,248.18 -551.92,551.92l0 1556.54c0,303.74 248.44,552.19 551.92,552.19 176.74,0 334.96,-84.14 436.03,-214.31 519.38,2638.69 2845.59,4628.89 5636.42,4628.89l0 -0.01zm7797.79 -5744.9c0,-2648.74 2147.36,-4796.1 4796.1,-4796.1 2648.48,0 4795.84,2147.36 4795.84,4796.1 0,2648.74 -2147.36,4795.84 -4795.84,4795.84 -2648.74,0 -4796.1,-2147.09 -4796.1,-4795.84z"/>
  <path class="fil4 str3" d="M-117013.85 -17011.36l25221.66 0c284.69,0 517.53,-232.83 517.53,-517.53 0,-284.68 -232.83,-517.52 -517.53,-517.52l-278.34 0 -24739.59 0 -203.73 0c-284.69,0 -517.53,232.83 -517.53,517.52 0,284.69 232.83,517.53 517.53,517.53z"/>
  <path class="fil0 str3" d="M-116810.12 -18046.4l24739.59 0c21.96,-300.57 33.07,-604.04 33.07,-910.17 0,-5983.55 -4237.57,-10977.83 -9875.31,-12144.9l0 3156.21c0,221.72 -181.24,402.96 -402.96,402.96 -221.72,0 -402.96,-181.24 -402.96,-402.96l0 -3295.39c-451.91,-62.97 -911.48,-101.34 -1377.41,-114.04l0 4552.69c0,221.72 -181.24,402.96 -402.96,402.96 -221.72,0 -403.23,-181.24 -403.23,-402.96l0 -4548.98c-465.93,17.2 -925.51,60.06 -1377.16,127l0 3278.72c0,221.72 -181.5,402.96 -403.23,402.96 -221.72,0 -402.96,-181.24 -402.96,-402.96l0 -3131.34c-5579,1212.06 -9757.57,6178.02 -9757.57,12120.03 0,306.12 11.11,609.6 33.07,910.17l0.02 0z"/>
  <path class="fil6 str7" d="M-92070.53 -18046.4c21.96,-300.57 33.07,-604.04 33.07,-910.17 0,-5983.55 -4237.57,-10977.83 -9875.31,-12144.9l0 3156.21c0,221.72 -181.24,402.96 -402.96,402.96 -221.72,0 -402.96,-181.24 -402.96,-402.96l0 -3295.65c-451.91,-62.71 -911.48,-101.07 -1377.41,-113.77l0 4552.69c0,221.72 -181.24,402.96 -402.96,402.96 -221.72,0 -403.23,-181.24 -403.23,-402.96l0 -4548.98c-465.93,17.2 -925.51,60.06 -1377.16,127l0 3278.72c0,221.72 -181.5,402.96 -403.23,402.96 -221.72,0 -402.96,-181.24 -402.96,-402.96l0 -3131.34c-5579,1212.06 -9757.57,6178.02 -9757.57,12120.03 0,306.12 11.11,609.6 33.07,910.17l24739.59 0 0.02 -0.01z"/>
  <path class="fil2 str8" d="M-92037.46 -18956.57c0,-5983.55 -4237.57,-10977.83 -9875.31,-12144.9l0 1365.23c0.17,25.47 0.26,51.06 0.27,76.75 0,26.15 -0.09,52.19 -0.27,78.11l0 1636.12c0,219.25 -177.22,398.92 -395.56,402.89 -2.42,0.23 -4.84,0.34 -7.27,0.34 -2.41,0 -4.81,-0.11 -7.2,-0.33 -218.49,-3.81 -395.89,-183.54 -395.89,-402.9l0 -1714.23 0 -1581.16c-311.99,-43.47 -627.63,-75.22 -946.49,-94.89 -143,-8.82 -286.66,-15.21 -430.92,-19.14l0 2266.82 0 2285.87c0,219.72 -177.98,399.68 -396.97,402.92 -2.03,0.2 -4.08,0.3 -6.12,0.3 -2.06,0 -4.12,-0.1 -6.17,-0.31 -218.85,-3.39 -396.93,-183.29 -396.93,-402.91l0 -2285.87 0 -2263.11c-465.93,17.2 -925.51,60.06 -1377.16,127l0 1543.17c0.01,7.1 0.02,14.2 0.01,21.31 0,5.06 0,10.12 -0.01,15.17l0 1699.07c0,219.28 -177.53,398.97 -395.93,402.89 -2.38,0.22 -4.76,0.33 -7.15,0.33 -2.36,0 -4.71,-0.11 -7.06,-0.32 -218.57,-3.72 -396.05,-183.49 -396.05,-402.9l0 -1714.24 0 -1417.1c-5579,1212.06 -9757.57,6178.02 -9757.57,12120.03 0,306.12 11.11,609.6 33.07,910.17l2561.67 0c9.8,-0.01 19.6,-0.02 29.41,-0.01l19632.08 0c6.98,0 13.95,0 20.92,0.01l2495.53 -0.01c21.96,-300.57 33.07,-604.04 33.07,-910.17z"/>
  <path class="fil0 str3" d="M-105432.5 -54188.48l2395.53 0c881.87,0 1597.03,715.15 1597.03,1597.02l0 279.41c0,881.86 -715.16,1597.02 -1597.03,1597.02l-2395.53 0c-881.86,0 -1597.02,-715.16 -1597.02,-1597.03l-0.01 -279.39c0.01,-881.88 715.17,-1597.03 1597.04,-1597.03z"/>
  <g id="_2692163319056">
   <path class="fil1 str6" d="M-88000.77 -89590.2c1644.12,-3005.4 5273.41,-4514.06 8632.3,-3396.46 3775.08,1255.98 5836.18,5372.36 4580.2,9147.44l-3673.48 11041.33c-1255.98,3775.08 -5372.36,5836.18 -9147.44,4580.2 -3775.08,-1255.98 -5836.18,-5372.36 -4580.2,-9147.44l353.75 -1063.89"/>
   <path class="fil1 str6" d="M-87286.13 -89097.02c1474.79,-2609.06 4653.76,-3908.95 7598.04,-2929.47 3341.95,1111.78 5166.25,4755.62 4054.48,8097.31l-3617.65 10873.32c-1111.78,3341.95 -4755.36,5166.25 -8097.31,4054.48 -3341.69,-1111.78 -5165.99,-4755.62 -4054.21,-8097.31l341.31 -1026.58"/>
   <path class="fil1 str6" d="M-89103.02 -79574.66c-14.82,89.69 -36.78,179.65 -66.41,268.55 -304.8,915.99 -1294.34,1411.55 -2210.33,1106.75 -915.99,-304.8 -1411.55,-1294.34 -1106.75,-2210.33 304.8,-915.99 1294.34,-1411.29 2210.33,-1106.75 183.89,61.38 350.84,150.02 497.68,260.35"/>
   <path class="fil2 str6" d="M-89435.31 -81394.29l2564.29 -1032.62c1415.99,-570.2 2715.86,-656.26 2902.74,-192.18l-0.01 0.01c186.9,464.08 -809.86,1302.86 -2225.83,1873.06l-2564.31 1032.62c-1415.97,570.2 -2715.83,656.25 -2902.71,192.17l-0.02 0.01c-186.87,-464.09 809.88,-1302.86 2225.86,-1873.07z"/>
   <path class="fil1 str6" d="M-88000.77 -89590.2c63.5,388.41 301.63,552.98 714.64,493.18"/>
   <path class="fil2 str6" d="M-90482.29 -79019.3c-462.23,186.27 -992.72,-39.69 -1178.98,-501.91 -186,-462.23 39.95,-992.72 502.18,-1178.98l1380.6 -555.89c-146.84,-110.33 -313.8,-198.97 -497.68,-260.35 -915.99,-304.54 -1905.53,190.76 -2210.33,1106.75 -249.24,749.56 37.04,1548.08 650.88,1980.67 136.53,96.31 289.19,174.36 455.88,229.66 105.57,35.19 212.2,59.8 318.29,74.08 816.5,110.86 1622.43,-370.42 1892.04,-1180.84 29.63,-88.9 51.59,-178.86 66.41,-268.55l-1379.27 555.36 -0.02 0z"/>
   <path class="fil2 str6" d="M-91661.28 -79521.22c186.27,462.23 716.76,688.18 1178.98,501.91l1379.27 -555.36 4167.45 -1678.25 465.4 -187.33c462.23,-186.27 687.92,-716.49 501.91,-1178.98 -186.27,-462.23 -716.49,-687.92 -1178.98,-501.91l-631.56 254.26 -3999.71 1610.78 -1380.6 555.89c-462.23,186.27 -688.18,716.76 -502.18,1178.98l0.02 0.01z"/>
   <path class="fil2 str8" d="M-92189.39 -77365.13c-1255.98,3775.08 805.12,7891.46 4580.2,9147.44 3775.08,1255.98 7891.46,-805.12 9147.44,-4580.2l3673.48 -11041.33c1255.98,-3775.08 -805.12,-7891.46 -4580.2,-9147.44 -3358.89,-1117.6 -6988.18,391.06 -8632.3,3396.46 63.5,388.41 301.63,552.98 714.64,493.18 1474.79,-2609.06 4653.76,-3908.95 7598.04,-2929.47 3341.95,1111.78 5166.25,4755.62 4054.48,8097.31l-3617.65 10873.32c-1111.78,3341.95 -4755.36,5166.25 -8097.31,4054.48 -3341.69,-1111.78 -5165.99,-4755.62 -4054.21,-8097.31l341.33 -1026.58c-106.09,-14.28 -212.72,-38.89 -318.29,-74.08 -166.69,-55.3 -319.35,-133.35 -455.9,-229.67l-353.75 1063.89z"/>
  </g>
  <path class="fil1 str9" d="M-14322.53 13490.28c0,2274.7 -1844.02,4118.72 -4118.72,4118.72 -2274.71,0 -4118.72,-1844.02 -4118.72,-4118.72 0,-2274.71 1844.01,-4118.72 4118.72,-4118.72 798.58,0 1544.08,227.28 2175.35,620.68"/>
  <path class="fil1 str9" d="M-15129.31 13490.28c0,1829.13 -1482.81,3311.93 -3311.94,3311.93 -1829.15,0 -3311.95,-1482.8 -3311.95,-3311.93 0,-1829.15 1482.8,-3311.95 3311.95,-3311.95 642.15,0 1241.64,182.76 1749.24,499.09"/>
  <path class="fil1 str9" d="M-15736.65 13490.28c0,1493.7 -1210.89,2704.6 -2704.6,2704.6 -1493.73,0 -2704.62,-1210.9 -2704.62,-2704.6 0,-1493.72 1210.89,-2704.62 2704.62,-2704.62 524.4,0 1013.95,149.25 1428.47,407.58"/>
  <path class="fil1 str9" d="M-16383.94 13490.27c0,1136.22 -921.1,2057.32 -2057.32,2057.32 -1136.21,0 -2057.31,-921.1 -2057.31,-2057.32 0,-1136.21 921.1,-2057.31 2057.31,-2057.31 398.9,0 771.28,113.53 1086.6,310.04"/>
  <path class="fil7 str9" d="M-15129.31 13490.28c0,1829.13 -1482.81,3311.93 -3311.94,3311.93 -1829.15,0 -3311.95,-1482.8 -3311.95,-3311.93 0,-1829.15 1482.8,-3311.95 3311.95,-3311.95 642.15,0 1241.64,182.76 1749.24,499.09l426.11 -685.18c-631.27,-393.4 -1376.77,-620.68 -2175.35,-620.68 -2274.71,0 -4118.72,1844.01 -4118.72,4118.72 0,2274.7 1844.01,4118.72 4118.72,4118.72 2274.7,0 4118.72,-1844.02 4118.72,-4118.72l-806.78 0z"/>
  <path class="fil8 str9" d="M-18441.25 16194.88c1493.71,0 2704.6,-1210.9 2704.6,-2704.6l-647.29 -0.01c0,1136.22 -921.1,2057.32 -2057.32,2057.32 -1136.21,0 -2057.31,-921.1 -2057.31,-2057.32 0,-1136.21 921.1,-2057.31 2057.31,-2057.31 398.9,0 771.28,113.53 1086.6,310.04l341.88 -549.76c-414.52,-258.33 -904.07,-407.58 -1428.47,-407.58 -1493.73,0 -2704.62,1210.9 -2704.62,2704.62 0,1493.7 1210.89,2704.6 2704.62,2704.6z"/>
  <path class="fil8 str9" d="M-18441.25 16802.21c-1829.15,0 -3311.95,-1482.8 -3311.95,-3311.93 0,-1829.15 1482.8,-3311.95 3311.95,-3311.95 642.15,0 1241.64,182.76 1749.24,499.09l426.11 -685.18c-631.27,-393.4 -1376.77,-620.68 -2175.35,-620.68 -2274.71,0 -4118.72,1844.01 -4118.72,4118.72 0,2274.7 1844.01,4118.72 4118.72,4118.72 2274.7,0 4118.72,-1844.02 4118.72,-4118.72l-806.78 0c0,1829.13 -1482.81,3311.93 -3311.94,3311.93z"/>
  <path class="fil9 str10" d="M-14769.67 11303.7c-3,12.29 -69.61,47.84 -84.77,57.03l-264.22 160.47c-33.47,19 -326.33,203.68 -350.82,209l50.41 -207.41c55.81,-230.83 11.17,-156.14 184.53,-265.93 76.18,-48.25 542.1,-331.93 557.71,-334.82l-92.84 381.66zm485.18 265.42c-14.49,15.04 -72.45,44.67 -94.73,59.54 -125.89,83.96 -341.73,205.15 -479.21,291.62 -33.56,21.11 -66.85,39.18 -98.19,59.01 -25.87,16.38 -21.53,16.45 -61.34,6.28 -101.12,-25.84 -255.3,-58.83 -348.97,-85.96 13.35,-20.25 519.84,-318.11 621.07,-382.08 23.45,-14.81 59.38,-47.1 95.78,-38.15l365.59 89.74zm-4086.36 1782.68c23.46,-6.05 128.41,26.12 155.2,32.58 47.13,11.37 105.27,22.36 152.16,38.43l-74.67 303.43 -12.36 2.13 -444.21 14.45 223.88 -391.02zm3833.4 -2187.11c18.4,-84.97 41.5,-171.08 62.2,-255.72 16.2,-66.23 60.74,-185.13 33.46,-236.35 -42.48,-79.72 -115.72,-52.16 -171.78,-18.08l-786.1 477.36c-36.8,22.09 -129.56,65.81 -148.68,115.59 -28.85,75.12 -138.79,597.39 -156.5,625.28l-1021.89 624.86c-28.67,17.28 -48.69,28.28 -78.28,47.67 -24.6,16.12 -52.34,33.42 -78.8,46.6l-315.88 192.95c-50.91,31.09 -102.28,63.11 -156.38,95.43 -112.7,67.34 -286.8,168.93 -394.65,239.78l-156.79 94.65c-21.92,12.59 -18.23,10.48 -38.54,24.82 -18.98,13.41 -21.74,9.49 -51.04,2.06 -83.49,-21.15 -168.09,-41.79 -251.9,-61.73 -80.07,-19.06 -171.27,-59.16 -226.23,-17.82 -32.49,24.45 -263.74,447.85 -318.24,542.23 -33.58,58.16 -90.28,127.83 -52.91,192.19 37.7,64.95 130.4,45.58 199.7,42.56 71.3,-3.12 139.99,-5.07 209.63,-8.41 487.17,-23.37 436.54,39.95 503.97,-238.8 20.3,-83.94 40.27,-168.4 61.08,-252.16 10.49,-42.23 39.4,-48.25 66.45,-64.39l1810.18 -1099.5c105.8,-64.62 207.38,-125.35 313.41,-189.68 20.22,-12.26 61.83,-45.56 84.11,-44.21 38.5,2.34 561.72,145.99 628.04,150.92 40.24,2.99 62.46,-18.41 86.94,-33.33l707.85 -429.8c41.74,-25.31 212.29,-115.82 230.3,-158.33 58.24,-137.48 -149.5,-153.99 -240.35,-176.08 -82.28,-20 -169.38,-38.94 -250.46,-61.69 13.17,-18.48 157.84,-99.86 188.93,-118.8 50.52,-30.8 169.67,-79.42 107.82,-176.92 -21.68,-34.16 -62.03,-54.86 -110.8,-41.31 -29,8.05 -264.84,164.34 -287.87,168.16z"/>
  <polygon class="fil10" points="25154.05,837.51 25154.05,-2321.27 26112.13,-2321.27 26678.3,-166.89 27237.85,-2321.27 28198.13,-2321.27 28198.13,837.51 27606.96,837.51 27604.76,-1649.22 26981.97,837.51 26367.27,837.51 25747.43,-1649.22 25745.22,837.51 "/>
  <path id="1" class="fil10" d="M28833.41 -1760.99l0 -560.28 604.41 0 0 560.28 -604.41 0zm0 2598.5l0 -2289.68 604.41 0 0 2289.68 -604.41 0z"/>
  <path id="2" class="fil10" d="M29842.96 193.4l608.82 -92.65c25.73,116.91 77.94,205.88 157.35,266.18 78.67,61.03 189.7,91.17 331.61,91.17 156.62,0 274.26,-28.67 353.67,-86.03 52.94,-40.44 79.41,-94.85 79.41,-162.49 0,-45.59 -14.7,-83.83 -43.38,-113.97 -30.15,-28.68 -97.79,-55.88 -202.2,-80.15 -488.97,-108.09 -798.52,-206.61 -929.4,-295.58 -181.62,-124.27 -272.06,-296.32 -272.06,-516.17 0,-199.27 78.68,-366.18 235.29,-501.47 156.62,-135.29 399.26,-202.94 727.94,-202.94 313.23,0 546.31,51.47 698.52,153.68 152.2,102.94 257.35,254.41 314.7,455.14l-569.11 105.88c-24.27,-89.7 -71.33,-158.82 -139.71,-206.61 -68.38,-47.8 -166.17,-71.33 -293.38,-71.33 -160.29,0 -274.99,22.06 -344.84,66.91 -46.33,31.62 -69.12,72.8 -69.12,122.8 0,43.38 19.85,80.14 60.29,110.29 55.15,40.44 244.12,97.06 567.64,170.59 323.53,73.52 549.26,163.23 677.2,269.84 127.2,107.36 190.44,258.09 190.44,450.73 0,209.56 -87.5,390.44 -263.23,541.17 -175,150.74 -434.56,226.47 -778.67,226.47 -311.76,0 -558.82,-63.23 -741.17,-188.97 -181.61,-125.73 -300.73,-296.32 -356.61,-512.49z"/>
  <path id="3" class="fil10" d="M32512.78 -1760.99l0 -560.28 604.41 0 0 560.28 -604.41 0zm0 2598.5l0 -2289.68 604.41 0 0 2289.68 -604.41 0z"/>
  <path id="4" class="fil10" d="M33597.33 -335.27c0,-201.47 49.26,-396.32 148.53,-584.55 99.26,-188.97 239.7,-332.35 421.31,-431.61 181.62,-99.27 383.82,-149.27 608.08,-149.27 346.32,0 629.41,112.5 850.73,337.5 221.32,225.73 331.61,509.55 331.61,853.67 0,347.05 -111.76,634.55 -334.55,862.48 -223.53,227.94 -504.41,341.91 -843.37,341.91 -209.56,0 -409.56,-47.79 -600,-142.64 -189.7,-94.85 -334.55,-233.82 -433.81,-417.64 -99.27,-183.09 -148.53,-406.62 -148.53,-669.85zm622.05 32.35c0,227.21 53.68,401.47 161.03,522.06 108.08,121.32 240.44,181.61 398.52,181.61 157.35,0 289.7,-60.29 396.32,-181.61 106.62,-120.59 160.29,-296.32 160.29,-526.47 0,-224.26 -53.67,-397.05 -160.29,-517.64 -106.62,-121.32 -238.97,-181.61 -396.32,-181.61 -158.08,0 -290.44,60.29 -398.52,181.61 -107.35,120.59 -161.03,294.85 -161.03,522.05zm282.35 -1444.83l300 -644.11 674.99 0 -595.58 644.11 -379.41 0z"/>
  <path id="5" class="fil10" d="M38515.65 837.51l-604.4 0 0 -1166.9c0,-247.05 -13.24,-406.61 -38.97,-478.67 -26.47,-72.79 -68.39,-128.67 -127.21,-169.11 -58.82,-40.44 -129.41,-60.3 -211.76,-60.3 -105.88,0 -200.73,28.68 -284.56,86.03 -84.55,57.35 -141.91,133.82 -172.79,227.94 -31.62,94.85 -47.06,269.85 -47.06,525.73l0 1035.28 -604.4 0 0 -2289.68 560.29 0 0 336.03c200.73,-256.62 452.93,-384.56 758.08,-384.56 133.82,0 256.61,24.27 367.64,72.06 111.76,48.53 195.58,109.56 252.2,183.82 57.35,75 97.06,159.56 119.12,254.41 22.79,94.85 33.82,230.15 33.82,406.61l0 1421.31z"/>
  <polygon class="fil10" points="44062.86,-2338.9 44804.61,-2338.9 43631.83,1102.95 42957.8,1102.95 41793.79,-2338.9 42561.83,-2338.9 43309.16,274.36 "/>
  <path id="1" class="fil10" d="M45779.8 -1746.14l-674.03 0 0 -611.88 674.03 0 0 611.88zm-674.03 301.16l674.03 0 0 2547.93 -674.03 0 0 -2547.93z"/>
  <path id="2" class="fil10" d="M46940.63 290.29c14.34,118.71 44.62,203.17 91.62,253.36 82.86,89.23 235.83,133.85 459.71,133.85 130.67,0 235.04,-19.92 312.32,-58.96 77.28,-39.04 116.32,-97.2 116.32,-175.28 0,-74.89 -31.07,-132.25 -93.21,-171.29 -62.15,-39.04 -294,-105.97 -695.55,-200.78 -289.21,-71.7 -493.17,-160.94 -611.08,-268.5 -118.72,-105.16 -177.67,-258.13 -177.67,-456.52 0,-235.03 92.42,-436.6 277.26,-605.51 184.84,-168.11 444.57,-252.56 779.99,-252.56 317.89,0 577.63,62.94 777.6,189.62 199.98,126.68 315.51,345.78 344.99,656.5l-664.47 0c-9.56,-86.05 -33.47,-153.77 -72.5,-203.96 -73.3,-90.03 -198.39,-135.44 -375.26,-135.44 -145.01,0 -248.58,22.3 -310.72,67.72 -61.35,45.41 -92.42,97.99 -92.42,159.34 0,76.49 32.66,131.46 98.79,165.72 65.33,35.85 297.18,97.2 694.74,184.04 264.52,62.95 463.7,156.96 596.75,282.84 131.46,127.48 196.79,286.82 196.79,478.04 0,251.76 -94.01,458.11 -282.04,617.46 -188.03,159.34 -478.03,239.02 -871.62,239.02 -400.75,0 -696.33,-84.46 -887.55,-253.36 -191.21,-168.91 -286.82,-384.02 -286.82,-645.35l674.03 0z"/>
  <path id="3" class="fil10" d="M49766.61 -1746.14l-674.03 0 0 -611.88 674.03 0 0 611.88zm-674.03 301.16l674.03 0 0 2547.93 -674.03 0 0 -2547.93z"/>
  <path id="4" class="fil10" d="M51557.65 634.48c193.6,0 342.59,-69.32 446.96,-207.15 104.37,-138.63 156.16,-335.42 156.16,-590.38 0,-254.15 -51.79,-450.94 -156.16,-587.98 -104.37,-137.83 -253.36,-206.35 -446.96,-206.35 -194.4,0 -344.19,68.52 -449.35,206.35 -104.37,137.04 -156.96,333.83 -156.96,587.98 0,254.96 52.59,451.75 156.96,590.38 105.16,137.83 254.95,207.15 449.35,207.15zm1301.05 -799.92c0,372.87 -107.56,692.36 -321.88,956.87 -215.11,265.31 -540.97,397.57 -978.37,397.57 -437.41,0 -763.27,-132.26 -978.38,-397.57 -214.32,-264.51 -321.88,-584 -321.88,-956.87 0,-366.49 107.56,-684.38 321.88,-952.88 215.11,-268.5 540.97,-403.14 978.38,-403.14 437.4,0 763.26,134.64 978.37,403.14 214.32,268.5 321.88,586.39 321.88,952.88zm-501.94 -2321.65l-709.08 697.93 -481.22 0 448.55 -697.93 741.75 0z"/>
  <path id="5" class="fil10" d="M54746.94 -1502.34c262.13,0 476.44,69.31 642.96,207.15 166.52,138.63 250.17,366.49 250.17,685.98l0 1712.16 -683.59 0 0 -1546.44c0,-133.85 -17.53,-236.63 -53.38,-308.34 -64.53,-130.66 -188.82,-195.99 -371.27,-195.99 -223.88,0 -378.45,95.61 -461.31,286.82 -43.82,101.18 -65.33,230.25 -65.33,387.21l0 1376.74 -664.47 0 0 -2538.37 645.35 0 0 371.28c85.25,-131.46 165.72,-226.27 242.2,-283.64 136.24,-102.77 309.13,-154.56 518.67,-154.56z"/>
  <polygon class="fil10" points="61115.07,-2351.82 61865.86,-2351.82 60678.79,1131.97 59996.55,1131.97 58818.35,-2351.82 59595.75,-2351.82 60352.18,293.28 "/>
  <path id="1" class="fil10" d="M63416.64 -119.61c-42.75,26.61 -86.29,48.38 -130.65,64.51 -43.54,16.94 -104.03,32.26 -180.64,46.77l-153.22 28.23c-143.55,25 -245.96,55.64 -308.86,91.93 -105.65,62.1 -158.07,157.26 -158.07,287.09 0,115.32 32.26,198.38 96.78,250 64.51,50.8 143.54,76.61 236.28,76.61 146.77,0 282.25,-42.74 405.64,-128.23 123.38,-84.67 187.9,-240.31 192.74,-466.11l0 -250.8zm-411.29 -313.71c125,-16.13 214.52,-35.48 268.55,-59.67 96.77,-40.32 145.15,-104.84 145.15,-191.13 0,-105.64 -37.09,-178.22 -111.28,-218.54 -74.2,-40.32 -183.06,-60.48 -326.61,-60.48 -161.29,0 -274.99,39.51 -341.93,117.74 -48.38,58.06 -79.83,136.28 -95.96,235.47l-648.37 0c14.51,-224.99 77.41,-410.47 189.51,-554.82 179.03,-226.61 485.47,-340.32 919.33,-340.32 283.06,0 533.86,56.45 754.02,168.55 219.35,112.09 329.02,323.38 329.02,633.05l0 1179.81c0,82.26 1.61,181.45 4.84,297.57 4.84,87.9 18.55,147.58 40.32,179.03 22.58,31.45 55.65,57.26 100,77.42l0 101.61 -732.24 0c-20.16,-51.61 -34.68,-100 -42.74,-145.96 -7.26,-45.16 -13.71,-96.78 -18.55,-154.84 -93.55,100.8 -200.8,187.09 -322.57,258.06 -145.97,83.06 -310.48,125 -493.54,125 -234.67,0 -428.22,-66.94 -580.63,-200 -152.42,-133.06 -229.03,-321.77 -229.03,-566.12 0,-316.92 122.58,-545.95 368.54,-687.88 134.67,-77.42 332.25,-132.26 593.53,-165.32l230.64 -28.23z"/>
  <polygon id="2" class="fil10" points="65364.98,1131.97 64692.41,1131.97 64692.41,-2346.98 65364.98,-2346.98 "/>
  <path id="3" class="fil10" d="M67177.84 657.79c195.96,0 346.76,-70.16 452.41,-209.68 105.64,-140.31 158.06,-339.5 158.06,-597.56 0,-257.25 -52.42,-456.44 -158.06,-595.15 -105.65,-139.51 -256.45,-208.87 -452.41,-208.87 -196.77,0 -348.38,69.36 -454.83,208.87 -105.64,138.71 -158.87,337.9 -158.87,595.15 0,258.06 53.23,457.25 158.87,597.56 106.45,139.52 258.06,209.68 454.83,209.68zm1316.9 -809.66c0,377.41 -108.86,700.79 -325.8,968.52 -217.73,268.55 -547.56,402.41 -990.3,402.41 -442.73,0 -772.56,-133.86 -990.3,-402.41 -216.93,-267.73 -325.79,-591.11 -325.79,-968.52 0,-370.96 108.86,-692.73 325.79,-964.5 217.74,-271.76 547.57,-408.05 990.3,-408.05 442.74,0 772.57,136.29 990.3,408.05 216.94,271.77 325.8,593.54 325.8,964.5z"/>
  <path id="4" class="fil10" d="M70368.9 -1505.07c12.09,0 23.38,0 31.45,0.81 8.87,0.81 28.22,2.42 58.06,4.03l0 691.92c-42.74,-5.64 -80.64,-9.68 -113.71,-11.29 -33.06,-2.42 -59.67,-3.22 -79.83,-3.22 -270.96,0 -453.22,87.9 -545.96,264.51 -52.42,99.19 -78.22,252.41 -78.22,458.86l0 1231.42 -672.57 0 0 -2578.97 638.7 0 0 450.79c104.03,-170.96 194.35,-287.89 270.96,-350.8 125.8,-105.64 289.51,-158.06 491.12,-158.06z"/>
  <path id="5" class="fil10" d="M71926.92 -953.47c-173.38,0 -307.25,47.58 -402.41,143.55 -95.16,95.16 -155.64,224.99 -179.83,388.7l1161.26 0c-12.09,-174.19 -71.77,-306.45 -179.83,-396.77 -107.26,-90.32 -240.32,-135.48 -399.19,-135.48zm4.04 -561.27c224.18,0 425.79,40.32 604.82,120.15 179.84,80.65 327.41,207.26 444.35,380.64 105.64,153.22 174.19,330.64 204.83,532.25 18.55,117.74 25.81,287.89 22.58,510.47l-1877.38 0c10.49,259.67 100,441.92 269.35,545.95 102.42,65.33 225.8,97.58 370.96,97.58 153.22,0 277.41,-39.51 373.38,-117.74 52.42,-42.74 98.38,-101.61 138.71,-177.41l691.11 0c-17.74,153.22 -101.61,308.06 -249.19,466.12 -230.64,250.8 -553.21,375.79 -967.72,375.79 -342.73,0 -645.14,-105.64 -906.43,-316.92 -262.09,-211.29 -392.73,-555.64 -392.73,-1032.24 0,-446.76 117.74,-788.69 354.02,-1027.39 236.29,-237.9 542.73,-357.25 919.34,-357.25z"/>
  <path id="6" class="fil10" d="M74069.62 309.41c14.52,120.16 45.16,205.64 92.74,256.44 83.87,90.32 238.7,135.48 465.31,135.48 132.26,0 237.9,-20.16 316.12,-59.67 78.23,-39.52 117.74,-98.39 117.74,-177.42 0,-75.8 -31.45,-133.86 -94.35,-173.38 -62.9,-39.52 -297.57,-107.26 -704.02,-203.22 -292.73,-72.58 -499.18,-162.9 -618.53,-271.77 -120.16,-106.45 -179.84,-261.28 -179.84,-462.09 0,-237.89 93.55,-441.92 280.64,-612.88 187.1,-170.16 449.99,-255.64 789.5,-255.64 321.77,0 584.67,63.7 787.08,191.93 202.42,128.22 319.35,349.99 349.19,664.5l-672.57 0c-9.68,-87.1 -33.87,-155.64 -73.38,-206.45 -74.2,-91.13 -200.81,-137.09 -379.84,-137.09 -146.77,0 -251.6,22.58 -314.5,68.54 -62.1,45.97 -93.55,99.2 -93.55,161.29 0,77.42 33.06,133.06 100,167.74 66.12,36.29 300.8,98.38 703.21,186.29 267.73,63.7 469.34,158.86 604.02,286.28 133.06,129.03 199.18,290.31 199.18,483.86 0,254.83 -95.15,463.7 -285.47,624.98 -190.32,161.29 -483.86,241.93 -882.24,241.93 -405.64,0 -704.82,-85.48 -898.37,-256.44 -193.54,-170.96 -290.31,-388.7 -290.31,-653.21l682.24 0z"/>
  <line class="fil1 str11" x1="29813.97" y1="3102.54" x2="68201.22" y2= "3102.54" />
  <line class="fil1 str12" x1="39915.96" y1="-2351.84" x2="39915.96" y2= "24146.73" />
  <line class="fil1 str12" x1="57364.71" y1="-2351.84" x2="57364.71" y2= "23963.06" />
  <path class="fil11 str13" d="M-22559.97 13490.27c0,2274.71 1844.01,4118.73 4118.72,4118.73 2274.7,0 4118.72,-1844.02 4118.72,-4118.73l-806.78 0c0,1829.14 -1482.81,3311.94 -3311.94,3311.94 -1829.14,0 -3311.95,-1482.8 -3311.95,-3311.94 0,-1829.13 1482.81,-3311.94 3311.95,-3311.94 642.15,0 1241.64,182.75 1749.25,499.1l426.1 -685.19c-631.27,-393.4 -1376.77,-620.68 -2175.35,-620.68 -2274.71,0 -4118.72,1844.01 -4118.72,4118.71z"/>
  <path class="fil11 str13" d="M-21145.87 13490.27c0,1493.71 1210.89,2704.62 2704.62,2704.62 1493.72,0 2704.61,-1210.91 2704.61,-2704.62l-647.3 -0.01c0,1136.23 -921.1,2057.33 -2057.33,2057.33 -1136.21,0 -2057.3,-921.1 -2057.3,-2057.33 0,-1136.21 921.09,-2057.3 2057.3,-2057.3 398.9,0 771.29,113.53 1086.61,310.03l341.88 -549.76c-414.52,-258.32 -904.07,-407.57 -1428.47,-407.57 -1493.73,0 -2704.62,1210.9 -2704.62,2704.61z"/>
  <polygon class="fil11 str0" points="-19279.71,-9103.02 -16379.95,-3800.61 -22922.87,-3800.61 -23696.13,-3800.61 -21264.84,-7585.69 -20477.5,-6798.37 -20459.87,-6780.74 "/>
  <path class="fil2 str14" d="M-23472.89 -5482.4c-233.63,-169.54 -177.45,-79.24 -145.1,-441.04 6.33,-70.73 42.01,-309.52 26.59,-356.6 -47.65,-16.58 -120.42,31.58 -167.27,52.36l-330.21 147.02c-146.65,63.73 -88.89,86.72 -307.12,-71.65 -87.14,-63.24 -45.39,-100.83 30.23,-134l786.3 -349.53c54.01,-22.95 272.36,-140.66 316.84,-114.09 52.57,31.39 2.79,273.65 -2.53,332.75l-88.4 855.74c-8.18,83.37 -24.5,147.86 -119.33,79.04z"/>
  <path class="fil2 str14" d="M-24075.39 -4632c-235.94,-171.22 -176.85,-81.13 -145.3,-441 5.3,-60.54 11.57,-117.35 18.78,-179.73 6.22,-53.83 29.33,-144.44 -1.37,-184.01 -48.59,-0.21 -266.36,107.93 -330.92,135.68 -55.68,23.93 -108.5,47.8 -165.12,73.73 -135.65,62.12 -89.01,77.95 -299.18,-74.58 -132.33,-96.03 35.29,-136.62 187.52,-203.62l629 -280.72c400.02,-170.44 352.62,-203.54 313.98,219.55l-88.17 855.7c-8.17,82.8 -25.72,146.86 -119.22,79z"/>
  <path class="fil2 str14" d="M-22869.86 -6288.17c-233.63,-169.54 -177.45,-79.23 -145.1,-441.04 6.32,-70.73 42.01,-309.52 26.59,-356.6 -47.65,-16.58 -120.42,31.58 -167.27,52.36l-330.22 147.02c-146.65,63.74 -88.88,86.72 -307.11,-71.65 -87.14,-63.24 -45.39,-100.83 30.22,-134l786.3 -349.52c54.02,-22.96 272.36,-140.67 316.85,-114.1 52.56,31.39 2.79,273.65 -2.54,332.75l-88.4 855.74c-8.17,83.38 -24.49,147.86 -119.32,79.04z"/>
  <g id="_2692163184896">
   <ellipse class="fil2 str15" cx="67456.23" cy="6382.51" rx="1308.78" ry="1325.82"/>
   <path class="fil1 str15" d="M64362.4 10126.94c264.91,-1377.14 1494.44,-2418.63 2971.17,-2418.63 1476.73,0 2706.26,1041.49 2971.17,2418.63"/>
   <line class="fil1 str15" x1="64362.4" y1="10126.96" x2="70304.75" y2= "10126.96" />
  </g>
  <g id="_2691843402288">
   <ellipse class="fil2 str15" cx="64095.45" cy="6440.16" rx="996.76" ry="1009.74"/>
   <path class="fil1 str15" d="M61739.21 9291.89c201.75,-1048.82 1138.15,-1842.01 2262.83,-1842.01 490.31,0 944.85,150.76 1318.31,407.72"/>
   <line class="fil1 str15" x1="61739.21" y1="9291.9" x2="63945.82" y2= "9291.9" />
  </g>
  <g id="_2691843398400">
   <ellipse class="fil2 str15" cx="70530.05" cy="6346.01" rx="996.76" ry="1009.74"/>
   <path class="fil1 str15" d="M68991.04 7857.61c395.23,-313.91 898.11,-501.88 1445.58,-501.88 1124.68,0 2061.08,793.19 2262.83,1842.01"/>
   <line class="fil1 str15" x1="70530.05" y1="9197.76" x2="72699.46" y2= "9197.76" />
  </g>
  <line class="fil1 str15" x1="70530.05" y1="7355.74" x2="70530.05" y2= "7357.56" />
  <path class="fil1 str15" d="M65320.35 7857.6c-564.99,363.3 -973.29,841.4 -1224.91,1434.3m0 -1840.19l0 -1.81"/>
  <path class="fil1 str15" d="M70530.05 9197.76c-354.07,-660.63 -867.07,-1107.34 -1539.01,-1340.15"/>
  <line class="fil1 str15" x1="64095.44" y1="9291.9" x2="63945.82" y2= "9291.9" />
  <path class="fil2 str15" d="M67333.57 7708.31c-1476.74,0 -2706.26,1041.49 -2971.17,2418.65l5942.34 -0.02c-264.91,-1377.14 -1494.43,-2418.63 -2971.17,-2418.63z"/>
  <path class="fil2 str15" d="M64095.44 9291.9c251.62,-592.9 659.92,-1071 1224.91,-1434.3 -349.63,-240.57 -770.33,-388.05 -1224.91,-405.89 -30.98,-1.22 -62.12,-1.83 -93.4,-1.83 -1124.68,0 -2061.08,793.19 -2262.83,1842.02l2206.61 0 149.62 0z"/>
  <path class="fil2 str15" d="M68991.04 7857.61c671.94,232.81 1184.94,679.52 1539.01,1340.15l2169.4 -0.02c-196.13,-1019.64 -1086.61,-1797.68 -2169.4,-1840.18 -30.99,-1.22 -62.13,-1.83 -93.43,-1.83 -547.47,0 -1050.35,187.97 -1445.58,501.88z"/>
  <path class="fil2 str15" d="M65873.36 12971.59c-61.9,-150.26 -50.46,-282.09 34.33,-395.51l2203.55 191.24c42.37,3.68 84.74,7.36 133.03,4.43 48.29,-2.92 102.48,-12.45 188.87,-23.93 86.38,-11.47 204.96,-24.89 315.78,-37.81 110.83,-12.92 213.89,-25.32 291.48,-44.68 77.58,-19.36 129.68,-45.67 180.62,-79.2 50.94,-33.53 100.73,-74.28 140.26,-112.95 39.53,-38.67 68.79,-75.27 87.46,-126.42 18.68,-51.16 26.75,-116.87 31.55,-172.19 4.8,-55.33 6.33,-100.26 -3.48,-144.4 -9.8,-44.14 -30.95,-87.48 -53.15,-127.36 -22.2,-39.88 -45.45,-76.29 -69.33,-108.61 -23.88,-32.32 -48.38,-60.53 -75.33,-83.03 -26.94,-22.5 -56.31,-39.28 -451.62,-75.96 -395.3,-36.68 -1156.53,-93.26 -1537.15,-121.54 -380.61,-28.3 -380.61,-28.3 -450.55,-62.83 -69.94,-34.54 -209.83,-103.61 -341.92,-166.66 -132.1,-63.06 -256.43,-120.1 -396.82,-169.64 -140.39,-49.54 -296.84,-91.59 -455.96,-130.3 -159.12,-38.71 -320.9,-74.1 -476.69,-96.52 -155.79,-22.42 -305.59,-31.86 -501.09,-34 -195.5,-2.14 -436.7,3.01 -666.82,10.32 -230.12,7.3 -449.16,16.76 -649.65,24.26 -200.49,7.51 -382.42,13.06 -507.96,24.7 -125.53,11.63 -194.66,29.34 -229.23,38.19 -34.56,8.85 -34.56,8.85 -34.56,8.85l-203.51 2344.8c1333.23,256.74 2510.58,629.33 3532.06,1117.76 828.34,314.48 1730.49,250.45 2706.46,-192.06l4646.03 -3026.59c169.49,-382.31 54.36,-572.57 -345.38,-570.78l-2921.49 1358.18c5.73,43.2 11.45,86.4 17.01,124.83 5.55,38.44 10.93,72.12 12.47,109.01 1.54,36.9 -0.75,77.03 -5.51,118.12 -4.75,41.1 -11.96,83.17 -23.82,131.04 -11.86,47.86 -28.38,101.54 -49.92,144.73 -21.54,43.2 -48.09,75.93 -84.12,115.22 -36.03,39.29 -81.51,85.16 -126.88,122.74 -45.36,37.56 -90.6,66.85 -134.84,91.47 -44.24,24.62 -87.48,44.59 -129.29,61.71 -41.81,17.13 -82.19,31.42 -133.95,47.09 -51.76,15.66 -114.91,32.72 -171.97,47.93 -57.06,15.21 -108.04,28.57 -159.5,40.72 -51.45,12.13 -103.4,23.04 -155.39,34.54 -52,11.48 -104.04,23.57 -158.31,27.16 -54.27,3.59 -110.78,-1.32 -139.02,-3.76 -28.25,-2.45 -28.25,-2.45 -28.25,-2.45l-2648.5 -229.86z"/>
  <path class="fil2 str15" d="M62101.88 13147.48l187.45 -2159.77c17.97,-207.09 -150.98,-392.46 -375.44,-411.95 -224.47,-19.48 -422.82,134.02 -440.79,341.11l-187.45 2159.77c-17.97,207.09 150.97,392.47 375.44,411.95 224.46,19.48 422.82,-134.02 440.79,-341.11z"/>
  <path class="fil2 str16" d="M-17590.33 4473.48c-24.61,103.7 -132.15,328.42 -190.09,380.26 -29.04,69.78 -177.71,241.07 -225.84,292.4 -34.35,36.63 -229.53,206.02 -283.28,225.38 -23.38,42.33 -34.92,40.69 -77.31,64.29 -34.22,19.06 -49.66,33.57 -85.46,47.1 -72.77,27.49 -121.41,60.92 -194.38,83.06 -78.55,26.18 -250.59,95.68 -336.88,92.29 -48.2,30.98 -151.38,31.73 -216.69,34.02l-171.8 5.52 -174.04 -12.03 -171.8 -29.59c-132.47,-13.86 -290.6,-68.07 -388.95,-126.32 -213.52,-83.12 -478.54,-297.43 -628.17,-476.42 -98.29,-117.59 -201,-234.93 -261.21,-390.37l-30.43 -41.32c-32.36,-60.88 -93.14,-258.82 -104.73,-319.28l-28.03 -157.88c-19.02,-33.22 -23.83,-104.95 -26.82,-153.33l0.47 -295.34c3.75,-48.83 6.39,-119.22 26.35,-153.34l23.69 -136.32c9.65,-57.06 82.3,-335.14 136.54,-375.03 38.89,-109.23 113.86,-193.54 167.87,-277.14 87.35,-135.2 204.88,-237.58 328.7,-344.66 89.42,-77.32 304.09,-233.63 403.4,-246.81 55.47,-62.96 263.49,-111.14 367.8,-129.75l182.07 -30.7 180.53 -12.04 168.56 5.28c64.97,2.32 167.93,4.72 216.69,33.51l159.59 29.87c107.44,32.47 332.37,120.97 433.27,180.05 24.91,14.58 48.02,24.9 68.2,40.05 17.96,13.48 42.08,36.51 54.32,45.3l278.09 236.84c58.03,60.99 191.15,222.01 224.63,297.22 49.55,51.9 74.21,100.06 101.93,171.55 22.6,58.31 55.76,120.1 76.87,187.94 65.76,191.3 108.73,418.05 107.79,637.9 -0.76,175.94 -45.24,469.79 -111.45,617.84zm-3848.58 -1618.71c-41.39,121.76 -87.55,228.06 -129.69,359.73 -56.6,213.27 -91.79,406.83 -90.27,641.16 0.65,100.14 12.08,241.65 25.55,335.96 14.04,98.35 46.5,190.12 64.66,291.41 12.66,26.56 56.28,147.21 66.48,182.73 18.1,63.12 49.82,128.68 72.55,184.75 31.15,35.27 69.3,135.38 100.29,182.52 42.32,64.41 72.88,108.42 109.7,169.52 45.23,57.52 121.27,127.52 163.68,195.78 42.53,68.45 112.58,109.54 181.95,179.93 67.28,68.26 42.71,34.48 94,73.43 2,1.52 4.56,3.95 6.53,5.51 15.2,12.11 3.51,4.53 26.68,21.74 184.79,137.34 378.09,255 594.43,338.37 -216.34,-16.68 -669.32,-218.11 -841.23,-306.79 -57.14,-22.04 -137.77,-70.9 -189.03,-102.39 -52.02,-31.95 -118.52,-63.83 -174.97,-98.25l-188.97 -114.45c-100.08,-67.09 -194.07,-119.5 -281.83,-199.8 -32.65,-29.87 -57.38,-43.36 -91.71,-64.36 -50.55,-30.92 -133.92,-97.51 -167.89,-146 -45.53,-25.53 -40.95,-27.27 -79.6,-63.67 -28.98,-27.29 -49.05,-31.31 -77.68,-65.12l-23.25 -27.67c-30.78,-19.23 -68.42,-48.7 -93.1,-74.77 -14.98,-15.83 -23.39,-28.97 -39.12,-44.91 -22.63,-22.94 -21.1,-12.98 -39.89,-44.34 -64.68,-32.74 -141.12,-124.82 -186.08,-174.64 -26.15,-28.97 -57.92,-65.19 -87,-93.89 -45.15,-44.54 -62.94,-39.13 -84.88,-95.63l-148.79 -168.16c-34.6,-24.45 -71.95,-58.76 -90.97,-85.38l-36.25 -48.48c-15.75,-18.81 -19.5,-25.98 -34.86,-49.44 -75.01,-114.51 -156.28,-114.8 -41.1,-190.15l741.69 -825.18c61.28,-75.23 66.24,-41.68 162.58,-149.77l343.53 -270.43c20.34,-57.78 317.99,-250.61 347.78,-267.6 74.18,-42.29 323.14,-199.07 382.78,-219.8 109.32,-90.9 569.2,-263.19 705.29,-314.28 516.59,-193.92 1214.73,-251.86 1764.03,-145.75 145.14,28.03 271.94,65.54 405.46,100.44 55.15,14.42 338.59,112.12 364.88,133.68 68.6,17.48 128.2,54.97 201.84,79.64 62.4,20.91 119.41,51.87 165.64,95.49 111.07,43.75 188.02,113.23 286.12,163.45 51.24,26.23 82.06,57.32 128.72,88.68 45.23,30.4 80.83,52.86 125.13,87.5 47.83,18.67 80.85,50.29 117.79,77.78l113.98 78.5c41.14,36.93 56.35,57.18 101.64,91.15 79.84,59.86 36.91,10.72 106.5,85.89 61.53,66.48 190.08,152.36 207.87,177.2 47.75,66.67 28.42,52.78 94.28,97.24 105.9,71.49 104.81,108.44 136.84,141.25 55.21,56.56 26.9,9.27 142.27,147.21 33.27,39.78 73.45,60.04 99.27,92.3 91.61,114.49 76.54,110.53 174.73,198.35l83.27 109.6c59.54,76.77 122.63,123.28 167.99,207.96l-97.05 122.29 -218.29 263.31c-32.56,37.95 -48.25,35.27 -75.19,80.53 -42.62,71.62 -14.88,33.42 -76.44,80.54 -65.48,50.11 -105.88,137.67 -143.55,169.93l-155.93 155.95c-42.04,49.13 -99.42,53.9 -169.09,144.46 -38.5,50.05 -55.22,54.17 -125.84,114.59l-302.72 240.43c-40.07,32.27 -86.79,65.65 -129.88,96.99 -46.39,33.75 -70.75,60.29 -125.29,91.84 -93.5,54.09 -170.71,120.37 -267.6,175.17 -82.36,74.47 -428.47,233.73 -567.01,283.16 -85.6,54.99 -578.65,204.47 -686.32,213 16.83,-1.36 187.18,-63.98 213.21,-75.8 317.88,-144.35 599.4,-356.61 832.42,-613.79 16.71,-18.43 16.36,-24.13 29.67,-42.5 12.46,-17.21 19.98,-23.68 32.56,-39.66l177.15 -248.92c15.53,-32.86 171,-365.07 183.55,-377.32l48.91 -160.28c6.24,-48.53 68.06,-365.47 82.16,-385.19l3.87 -171.62 0 -174.05 -9.18 -183.46c-37.06,-73.57 -40.52,-254.57 -75.07,-358.13l-57.38 -187.02c-15.64,-24.1 -25.58,-61.28 -37.36,-88.87 -21.18,-49.62 -24.91,-36.65 -44.37,-89.54 -21.84,-59.34 -61.56,-134.05 -89.47,-177.87 -29.52,-45.97 -50.52,-92.43 -77.3,-134.9l-90.07 -114.75c-128.75,-178.1 -348.57,-381.18 -533.95,-501.95 -38.43,-25.03 -82.95,-60.31 -121.48,-83.68 -578.65,-350.91 -1338.98,-411.6 -1997.61,-176.49 -125.67,44.86 -432.84,202.18 -541.35,290.47 -304.83,248.03 -385.29,314.43 -600.84,639.29l-148.11 259.09zm1712.27 -1668.93l-187.01 26.01c-247.69,27.84 -498.22,126.95 -730.86,184.11 -26.35,17.81 -124.41,45.03 -166.81,65.24 -58.21,27.76 -113.08,53.8 -170.24,71.59 -55.52,43.12 -310.2,161.51 -381.08,191.12 -51.37,42.3 -112.74,58.8 -169.52,99.46 -57.27,41.01 -114.16,76.71 -171.53,106.59l-93.27 75.52c-37.26,23.3 -60.63,39.93 -95.75,60.69 -138.08,81.58 -81.39,75.82 -187.83,137.14 -84.46,48.65 -325.37,268.79 -357.31,280.28l-193.31 179.23c-32.86,35.17 -60.59,54.29 -93.78,87.32l-441.67 470.54c-32.1,42.78 -72.08,83.52 -106.17,124.95l-155.32 193.72c-28.02,38.95 -19.95,36.76 -39.74,67.76 -40.32,63.18 -68,52.71 -78.28,152.23l-1.66 168.38c17.17,21.76 10.07,19.45 23.23,39.78 10.83,16.73 -1.04,2.81 21.42,27.77 100,111.2 76.33,131.1 185.48,234.7 32.43,30.78 15.29,19.78 40.15,56.5l494.52 540.13c71.32,71.36 128.6,124.57 213.33,207.83l107.23 96.94c37.19,28.1 32.83,5.37 65.77,43.16 30.09,34.51 -2.42,14.55 45.05,51.15l467.38 363.04c61.34,31.95 111.03,69.56 172.99,116.39 49.68,37.57 124.7,66.31 175.96,108.41 90.53,48.04 180.89,99.25 266.15,147.18l247.25 112.81c2.42,1.29 5.55,2.91 7.83,4.33l26.43 22.82 175.56 72.4c120.19,54.63 265.89,74.89 375.95,136.47l166.17 44.06c255.16,48.9 452.04,91.35 720.58,114l183.78 7.73 177.54 -1.38 183.52 -10.65c122.41,-19.38 241.99,-21.64 364.82,-49.59 116.81,-26.57 236.65,-46.46 354.06,-79.69l179.45 -49.87 362.15 -142.7c59.79,-25.43 120.19,-48.38 173.85,-77.12 57.73,-30.92 122.61,-78.27 178.93,-86.47 27.25,-28.22 133.57,-92.76 176.98,-113.02 75.44,-35.2 124.4,-70.72 190.82,-113.01 48.54,-18.85 328.45,-222.27 365.75,-255.61l260.63 -209.51c44.27,-38.88 36.36,-41.52 86.07,-69.4l31.23 -25.78c11.04,-37.22 46.31,-43.04 77.2,-71.37 44.18,-40.5 25.53,-45.15 83,-75.66 6.8,-21.14 0.61,-14.95 21.75,-21.75 40.01,-47.67 100.88,-94.86 148.82,-141.59 15.56,-18.1 30.8,-33.34 48.9,-48.9l123.22 -128.65c17.89,-17.03 4.57,-5.19 20.31,-17.53l19.81 -24.39c23.16,-38.9 42.65,-55.59 81.15,-89.61 38.27,-33.81 36.04,-55.79 76.87,-81.21l21.1 -21.47 269.26 -325.2c63.98,-68.1 105.76,-113.35 152.47,-207.56 8.8,-34.93 7.45,-170.99 3.68,-210.15 -16.03,-83.12 -59.35,-91.53 -84.37,-147.67 -72.95,-53.46 -98.61,-121.33 -216.22,-240.82l-113.88 -151.54c-31.54,-42.89 -55.42,-36.11 -93.33,-86.58 -32.04,-42.64 -34.2,-56.81 -81.34,-99.38 -160.05,-144.53 -96.4,-111.68 -173.18,-187.97l-239.34 -218.18c-26.31,-21.65 -1.99,0.83 -24.5,-23.04 -76,-80.57 -160,-140.98 -236.42,-208.83 -20.48,-18.17 -5.95,-1.71 -26.31,-22.44 -71.34,-72.64 -201.99,-142.36 -243.27,-202.84 -46.9,-33.52 -87.51,-59.85 -133.8,-94.21 -54.46,-40.44 -76.58,-60.51 -133.87,-94.76 -94.77,-56.65 -164.77,-121.79 -267.19,-174.73 -64.73,-24.33 -121.28,-73.19 -190.98,-100.65 -56.29,-22.18 -136.34,-67.13 -190.71,-101.01l-163.09 -74.24c-59.55,-23.93 -343.16,-127.18 -369.35,-149.33l-172.25 -44.55 -357.82 -83.08 -171.8 -29.12 -189.26 -19.02 -187.02 -8.78 -174.04 -1.94 -75.34 -4.75c-56.72,27.65 -207.29,20.08 -285.73,28.82z"/>
  <path class="fil2 str16" d="M-18758.88 4347.29c-219.59,-293.44 -185.41,-162.8 -10.16,-589.42 34.26,-83.4 167.31,-359.57 166.3,-422.47 -51.55,-38.02 -157.91,-6.97 -222.54,0.62l-455.73 54.16c-201.81,22.16 -140.41,71.75 -345.52,-202.35 -81.91,-109.45 -17.14,-139.35 87.03,-151.14l1084.98 -128.29c74.14,-7.53 383.18,-68.2 427.15,-19.25 51.94,57.82 -99.49,332.91 -128.17,402.58l-428.92 1004.57c-41.25,98.03 -85.29,170.1 -174.42,50.99z"/>
  <path class="fil2 str16" d="M-19809.26 5152.11c-221.77,-296.35 -183.97,-164.88 -10.42,-589.45 29.19,-71.42 58.15,-137.96 90.34,-210.91 27.78,-62.94 89.87,-164.13 67.52,-223.66 -58.85,-18.53 -363.61,30.75 -452.34,40.13 -76.52,8.09 -149.55,17.18 -227.95,27.34 -187.86,24.34 -137.25,61.07 -334.79,-202.91 -124.39,-166.22 94.14,-152.42 303.95,-176.45l868.35 -103.97c549.2,-56.33 504.15,-114.28 298.24,384.29l-428.62 1004.6c-41.03,97.34 -86.39,168.43 -174.28,50.99z"/>
  <g id="_2691902376256">
   <path class="fil2 str15" d="M7069.12 4127.75c639.42,-59.72 1276.93,456.4 1322.18,1155.32 70.97,1095.81 -1211.04,1756.26 -2073.62,1007.21 -220.48,-191.38 -385.24,-518.22 -407.67,-837.67 -47.14,-673.8 446.54,-1258.38 1159.11,-1324.86zm-2630.5 -360.13c324.14,-59.5 588.57,176.62 631.44,447.54 49.93,316.17 -180.31,574.82 -441.86,619.47 -331.22,56.62 -580.7,-175.52 -628.54,-446.54 -57.02,-321.94 175.82,-572.12 438.96,-620.47zm-118.82 1448.97c130.38,-18.94 328.54,-16.75 457.12,8.77 128.88,25.41 215.59,94.69 289.65,185.09 82.33,100.67 75.85,222.18 137.95,337.2 48.74,90.3 147.11,188.39 233.14,241.21 115.32,70.97 204.13,87.22 293.94,180.81 76.35,79.64 137.15,195.46 206.12,268.92 174.73,186.19 283.47,294.74 529.87,419.43 499.87,252.97 1082.16,188.38 1526.41,-71.76 639.71,-374.78 985.98,-1208.65 714.56,-1958.1 -44.94,-124.1 -88.4,-218.69 -152.7,-322.35 -63.88,-102.96 -122.8,-176.03 -207.32,-267.03 -140.04,-150.5 -318.85,-287.86 -558.78,-390.32 -146.81,-62.8 -203.23,-65.69 -309.08,-166.06 -76.75,-72.67 -159.18,-156.29 -251.08,-223.77 -176.83,-129.97 -371.19,-261.15 -656.96,-302.31 -234.23,-33.69 -450.03,82.43 -574.21,252.57 -18.54,25.52 -33.5,43.26 -49.64,66.09 -71.58,100.76 -102.47,213.6 -210.02,264.43 -170.84,80.74 -545.11,-115.32 -699.01,-200.54 -105.56,-58.51 -188.98,-113.73 -330.33,-144.53 -481.02,-104.96 -665.13,175.92 -1081.56,312.08 -226.46,74.06 -356.54,106.15 -474.94,-126.78 -36.98,-72.76 -146.43,-216.1 -205.24,-269.72 -270.91,-246.8 -602.53,-162.48 -886.5,-19.74 -189.68,95.39 -279.89,187.78 -419.33,308.69 -271.42,235.33 -66.28,102.77 -438.86,267.33 -1083.07,478.43 -1315.41,1976.14 -397.9,2747.12 369.88,310.78 835.67,489.11 1456.14,358.13 343.27,-72.46 666.42,-321.25 865.76,-569.04 67.68,-84.12 131.37,-198.15 209.42,-264.83 77.65,-66.19 204.94,-112.83 298.63,-176.33 394.31,-267.02 128.58,-664.13 684.75,-744.66z"/>
   <path class="fil12 str15" d="M1764.4 4127.13c-712.57,66.48 -1206.26,651.07 -1159.11,1324.87 22.42,319.45 187.19,646.29 407.66,837.66 862.59,749.05 2144.6,88.61 2073.63,-1007.21 -45.25,-698.91 -682.77,-1215.03 -1322.18,-1155.32z"/>
   <path class="fil12 str15" d="M7058.14 4127.13c-712.58,66.48 -1206.26,651.07 -1159.12,1324.87 22.43,319.45 187.19,646.29 407.67,837.66 862.58,749.05 2144.59,88.61 2073.62,-1007.21 -45.25,-698.91 -682.76,-1215.03 -1322.17,-1155.32z"/>
   <path class="fil2 str15" d="M4502.64 3768.65c-307.22,28.67 -520.07,280.71 -499.75,571.22 9.67,137.73 80.71,278.65 175.77,361.16 371.9,322.95 924.64,38.2 894.04,-434.26 -19.51,-301.34 -294.37,-523.86 -570.06,-498.12z"/>
  </g>
 </g>
</svg>
