<?xml version="1.0" encoding="UTF-8"?>
<!DOCTYPE svg PUBLIC "-//W3C//DTD SVG 1.1//EN" "http://www.w3.org/Graphics/SVG/1.1/DTD/svg11.dtd">
<!-- Creator: CorelDRAW 2020 (64-Bit) -->
<svg xmlns="http://www.w3.org/2000/svg" xml:space="preserve" width="91.44mm" height="91.44mm" version="1.1" style="shape-rendering:geometricPrecision; text-rendering:geometricPrecision; image-rendering:optimizeQuality; fill-rule:evenodd; clip-rule:evenodd"
viewBox="0 0 9144 9144"
 xmlns:xlink="http://www.w3.org/1999/xlink"
 xmlns:xodm="http://www.corel.com/coreldraw/odm/2003">
 <defs>
  <style type="text/css">
   <![CDATA[
    .str0 {stroke:#373435;stroke-width:84.67;stroke-miterlimit:22.9256}
    .str1 {stroke:#FEFEFE;stroke-width:84.67;stroke-miterlimit:22.9256}
    .fil0 {fill:none}
    .fil1 {fill:#E1C536}
    .fil3 {fill:#FEFEFE}
    .fil2 {fill:#FFCC00}
   ]]>
  </style>
 </defs>
 <g id="Capa_x0020_1">
  <metadata id="CorelCorpID_0Corel-Layer"/>
  <path class="fil0 str0" d="M2602.96 7059.43l0 -5882.53c0,-215.39 176.25,-391.63 391.64,-391.63l2672.13 0c215.39,0 391.72,176.24 391.72,391.63l0 3237.2m-391.72 4177.21l-579.69 0"/>
  <path class="fil0 str0" d="M6835.2 5527.55l393.75 0c842.51,0 1531.88,689.37 1531.88,1531.88 0,842.6 -689.37,1531.89 -1531.88,1531.89l-2141.91 0"/>
  <path class="fil0 str0" d="M6058.45 4325.67c-11.11,827.17 283.11,1227.8 882.72,1201.88"/>
  <path class="fil0 str0" d="M6058.45 2974.26l0 -1797.36c0,-215.39 -176.33,-391.63 -391.72,-391.63l-2672.13 0c-215.39,0 -391.64,176.24 -391.64,391.63l0 3986.17"/>
  <path class="fil0 str0" d="M5087.04 8591.31l2141.91 0c842.51,0 1531.89,-689.28 1531.89,-1531.88 0,-842.52 -689.38,-1531.89 -1531.89,-1531.89l-287.77 0c-36.42,1.59 -71.77,1.59 -105.98,0 -507.84,-23.36 -766.78,-394.54 -776.74,-1113.45 -0.44,-28.91 -0.44,-58.36 0,-88.43l0 -1351.41m-3455.5 2188.82l0 1896.36"/>
  <path class="fil0 str0" d="M3895.83 8591.31l-660.27 0c-70.89,0 -139.22,-11.81 -203.05,-33.59m-429.55 -599l0 -1214.75"/>
  <path class="fil0 str0" d="M5087.04 8591.31l2141.91 0c842.51,0 1531.89,-689.28 1531.89,-1531.88 0,-842.52 -689.38,-1531.89 -1531.89,-1531.89l-287.77 0c-36.42,1.59 -71.77,1.59 -105.98,0 -507.84,-23.36 -766.78,-394.54 -776.74,-1113.45 -0.44,-28.91 -0.44,-58.36 0,-88.43l0 -1351.41"/>
  <line class="fil0 str0" x1="2602.96" y1="7810.6" x2="8562.72" y2= "7810.6" />
  <path class="fil0 str0" d="M2602.96 4507.55c636.38,-289.89 971.42,-973.35 1005.1,-2050.48l2391.68 -1485.77"/>
  <path class="fil1 str0" d="M2602.96 4507.55c636.38,-289.89 971.42,-973.35 1005.1,-2050.48l2391.68 -1485.77c-69.3,-111.44 -192.82,-186.03 -333.01,-186.03l-2672.13 0c-215.39,0 -391.64,176.24 -391.64,391.63l0 3330.65z"/>
  <path class="fil2 str0" d="M3608.06 2457.07c-33.68,1077.13 -368.72,1760.59 -1005.1,2050.48l0 2236.42 0 315.46 0 751.17 5959.76 0c126.08,-222.26 198.11,-478.74 198.11,-751.17 0,-842.52 -689.37,-1531.89 -1531.88,-1531.89l-287.78 0c-36.41,1.59 -71.77,1.59 -105.97,0 -507.84,-23.36 -766.78,-394.54 -776.75,-1113.45 -0.44,-28.91 -0.44,-58.36 0,-88.43l0 -3148.76c0,-75.21 -21.6,-145.74 -58.71,-205.6l-2391.68 1485.77 0 0z"/>
  <path class="fil0 str0" d="M3895.83 8591.31c-7.58,-41.17 -11.55,-83.84 -11.55,-127.48 0,-360.78 271.82,-653.23 607.11,-653.23 335.39,0 607.2,292.45 607.2,653.23 0,43.64 -3.97,86.31 -11.55,127.48"/>
  <path class="fil0 str0" d="M3032.51 8557.72c63.83,21.78 132.16,33.59 203.05,33.59l660.27 0c-7.58,-41.17 -11.55,-83.84 -11.55,-127.48 0,-360.78 271.82,-653.23 607.11,-653.23l-1888.43 0 0 148.12"/>
  <path class="fil1 str0" d="M4491.39 7810.6c335.39,0 607.2,292.45 607.2,653.23 0,43.64 -3.97,86.31 -11.55,127.48l2141.91 0c570.08,0 1070.07,-315.54 1333.78,-780.71l-4071.34 0 0 0z"/>
  <polygon class="fil3 str1" points="1450.1,8201 4467.32,8201 4467.32,7407.16 1450.1,7407.16 "/>
  <path class="fil0 str0" d="M543.14 7059.43l0 -5882.53c0,-215.39 176.24,-391.63 391.72,-391.63l2672.05 0c215.48,0 391.72,176.24 391.72,391.63l0 3237.2m-391.72 4177.21l-579.69 0"/>
  <path class="fil0 str0" d="M4775.37 5527.55l393.75 0c842.52,0 1531.89,689.37 1531.89,1531.88 0,842.6 -689.37,1531.89 -1531.89,1531.89l-2141.9 0"/>
  <path class="fil0 str0" d="M3998.63 4325.67c-11.11,827.17 283.1,1227.8 882.72,1201.88"/>
  <path class="fil0 str0" d="M3998.63 2974.26l0 -1797.36c0,-215.39 -176.24,-391.63 -391.72,-391.63l-2672.05 0c-215.48,0 -391.72,176.24 -391.72,391.63l0 3986.17"/>
  <path class="fil0 str0" d="M3027.22 8591.31l2141.91 0c842.51,0 1531.88,-689.28 1531.88,-1531.88 0,-842.52 -689.37,-1531.89 -1531.88,-1531.89l-287.78 0c-36.41,1.59 -71.76,1.59 -105.97,0 -507.84,-23.36 -766.78,-394.54 -776.75,-1113.45 -0.44,-28.91 -0.44,-58.36 0,-88.43l0 -1351.41m-3455.49 2188.82l0 1896.36"/>
  <path class="fil0 str0" d="M1836.01 8591.31l-660.19 0c-347.99,0 -632.68,-284.68 -632.68,-632.59l0 -1214.75"/>
  <path class="fil0 str0" d="M3027.22 8591.31l2141.91 0c842.51,0 1531.88,-689.28 1531.88,-1531.88 0,-842.52 -689.37,-1531.89 -1531.88,-1531.89l-287.78 0c-36.41,1.59 -71.76,1.59 -105.97,0 -507.84,-23.36 -766.78,-394.54 -776.75,-1113.45 -0.44,-28.91 -0.44,-58.36 0,-88.43l0 -1351.41"/>
  <line class="fil0 str0" x1="543.14" y1="7810.6" x2="6502.9" y2= "7810.6" />
  <path class="fil0 str0" d="M543.14 4507.55c636.38,-289.89 971.41,-973.35 1005.09,-2050.48l2391.68 -1485.77"/>
  <path class="fil1 str0" d="M543.14 4507.55c636.38,-289.89 971.41,-973.35 1005.09,-2050.48l2391.68 -1485.77c-69.21,-111.44 -192.82,-186.03 -333,-186.03l-2672.05 0c-215.48,0 -391.72,176.24 -391.72,391.63l0 3330.65z"/>
  <path class="fil2 str0" d="M1548.23 2457.07c-33.68,1077.13 -368.71,1760.59 -1005.09,2050.48l0 2236.42 0 315.46 0 751.17 5959.76 0c126.08,-222.26 198.11,-478.74 198.11,-751.17 0,-842.52 -689.37,-1531.89 -1531.89,-1531.89l-287.77 0c-36.41,1.59 -71.77,1.59 -105.98,0 -507.83,-23.36 -766.78,-394.54 -776.74,-1113.45 -0.44,-28.91 -0.44,-58.36 0,-88.43l0 -3148.76c0,-75.21 -21.51,-145.74 -58.72,-205.6l-2391.68 1485.77 0 0z"/>
  <path class="fil0 str0" d="M1836.01 8591.31c-7.58,-41.17 -11.55,-83.84 -11.55,-127.48 0,-360.78 271.81,-653.23 607.11,-653.23 335.38,0 607.2,292.45 607.2,653.23 0,43.64 -3.97,86.31 -11.55,127.48"/>
  <path class="fil1 str0" d="M1836.01 8591.31c-7.58,-41.17 -11.55,-83.84 -11.55,-127.48 0,-360.78 271.81,-653.23 607.11,-653.23l-1888.43 0 0 148.12c0,347.91 284.69,632.59 632.68,632.59l660.19 0z"/>
  <path class="fil1 str0" d="M2431.57 7810.6c335.38,0 607.2,292.45 607.2,653.23 0,43.64 -3.97,86.31 -11.55,127.48l2141.91 0c570.08,0 1070.07,-315.54 1333.77,-780.71l-4071.33 0 0 0z"/>
 </g>
</svg>
