<?xml version="1.0" encoding="UTF-8"?>
<!DOCTYPE svg PUBLIC "-//W3C//DTD SVG 1.1//EN" "http://www.w3.org/Graphics/SVG/1.1/DTD/svg11.dtd">
<!-- Creator: CorelDRAW 2020 (64-Bit) -->
<svg xmlns="http://www.w3.org/2000/svg" xml:space="preserve" width="91.44mm" height="91.44mm" version="1.1" style="shape-rendering:geometricPrecision; text-rendering:geometricPrecision; image-rendering:optimizeQuality; fill-rule:evenodd; clip-rule:evenodd"
viewBox="0 0 9144 9144"
 xmlns:xlink="http://www.w3.org/1999/xlink"
 xmlns:xodm="http://www.corel.com/coreldraw/odm/2003">
 <defs>
  <style type="text/css">
   <![CDATA[
    .str1 {stroke:#373435;stroke-width:84.67;stroke-miterlimit:22.9256}
    .str0 {stroke:#373435;stroke-width:84.67;stroke-miterlimit:22.9256}
    .fil0 {fill:none}
    .fil1 {fill:#FFCC00}
   ]]>
  </style>
 </defs>
 <g id="Capa_x0020_1">
  <metadata id="CorelCorpID_0Corel-Layer"/>
  <path class="fil0 str0" d="M3548.63 2339.82l332.64 -548.45c586.81,-967.53 1858.53,-1279.02 2826.06,-692.2 967.53,586.81 1279.02,1858.52 692.21,2826.05l-2283.14 3764.43c-586.81,967.52 -1858.53,1279.01 -2826.07,692.19 -967.52,-586.81 -1279.02,-1858.52 -692.21,-2826.05l873.15 -1439.64"/>
  <path class="fil0 str0" d="M3815.43 2617.09l100.46 -165.64c460.11,-758.61 1457.24,-1002.85 2215.85,-542.74 758.63,460.11 1002.86,1457.24 542.76,2215.86l-1790.17 2951.6c-460.1,758.62 -1457.23,1002.85 -2215.86,542.74 -758.61,-460.11 -1002.85,-1457.24 -542.74,-2215.85l764.93 -1261.21"/>
  <path class="fil0 str0" d="M3548.63 2339.82c-0.61,175.22 88.33,267.64 266.81,277.27"/>
  <path class="fil0 str0" d="M2471.27 4116.15c165.91,-140.39 305.71,-131.82 419.39,25.7"/>
  <path class="fil1 str1" d="M4884.33 7076.17c-460.1,758.62 -1457.23,1002.85 -2215.86,542.74 -758.61,-460.11 -1002.85,-1457.24 -542.74,-2215.85l764.93 -1261.21c-113.68,-157.52 -253.48,-166.09 -419.39,-25.7l-873.15 1439.64c-586.81,967.53 -275.31,2239.24 692.21,2826.05 967.54,586.82 2239.26,275.33 2826.07,-692.19l2283.14 -3764.43c586.81,-967.53 275.32,-2239.24 -692.21,-2826.05 -967.53,-586.82 -2239.25,-275.33 -2826.06,692.2l-332.64 548.45c-0.61,175.22 88.33,267.64 266.8,277.27l100.46 -165.64c460.11,-758.61 1457.24,-1002.85 2215.85,-542.74 758.63,460.11 1002.86,1457.24 542.76,2215.86l-1790.17 2951.6z"/>
  <path class="fil0 str0" d="M3280.32 4350.45c-4.6,27.88 -11.43,55.84 -20.64,83.47 -94.72,284.67 -402.26,438.68 -686.93,343.95 -284.67,-94.72 -438.68,-402.25 -343.96,-686.93 94.73,-284.67 402.26,-438.6 686.93,-343.96 57.15,19.08 109.04,46.63 154.68,80.91"/>
  <path class="fil1 str0" d="M3177.05 3784.94l796.94 -320.92c440.07,-177.2 844.04,-203.95 902.12,-59.72l0 0c58.08,144.23 -251.69,404.91 -691.75,582.12l-796.94 320.92c-440.06,177.2 -844.04,203.95 -902.12,59.72l0 0c-58.08,-144.23 251.69,-404.9 691.76,-582.12z"/>
  <path class="fil1 str0" d="M2851.67 4523.05c-143.65,57.89 -308.52,-12.33 -366.41,-155.98 -57.8,-143.66 12.42,-308.52 156.07,-366.41l429.07 -172.76c-45.64,-34.29 -97.53,-61.84 -154.67,-80.91 -284.68,-94.65 -592.21,59.28 -686.94,343.95 -77.45,232.95 11.52,481.12 202.29,615.56 42.43,29.93 89.87,54.19 141.68,71.38 32.81,10.93 65.95,18.58 98.92,23.02 253.75,34.45 504.22,-115.12 588.01,-366.98 9.21,-27.63 16.03,-55.59 20.64,-83.47l-428.65 172.6 -0.01 0z"/>
  <path class="fil1 str0" d="M2485.26 4367.06c57.89,143.66 222.76,213.88 366.41,155.99l428.65 -172.6 1295.17 -521.57 144.64 -58.22c143.65,-57.89 213.79,-222.67 155.99,-366.41 -57.89,-143.65 -222.68,-213.79 -366.41,-155.98l-196.28 79.02 -1243.04 500.6 -429.07 172.76c-143.65,57.89 -213.87,222.76 -156.07,366.41l0.01 0z"/>
 </g>
</svg>
