<?xml version="1.0" encoding="UTF-8"?>
<!DOCTYPE svg PUBLIC "-//W3C//DTD SVG 1.1//EN" "http://www.w3.org/Graphics/SVG/1.1/DTD/svg11.dtd">
<!-- Creator: CorelDRAW 2020 (64-Bit) -->
<svg xmlns="http://www.w3.org/2000/svg" xml:space="preserve" width="91.44mm" height="91.44mm" version="1.1" style="shape-rendering:geometricPrecision; text-rendering:geometricPrecision; image-rendering:optimizeQuality; fill-rule:evenodd; clip-rule:evenodd"
viewBox="0 0 9144 9144"
 xmlns:xlink="http://www.w3.org/1999/xlink"
 xmlns:xodm="http://www.corel.com/coreldraw/odm/2003">
 <defs>
  <style type="text/css">
   <![CDATA[
    .str0 {stroke:#373435;stroke-width:84.67;stroke-miterlimit:22.9256}
    .fil0 {fill:none}
    .fil1 {fill:#FFCC00}
   ]]>
  </style>
 </defs>
 <g id="Capa_x0020_1">
  <metadata id="CorelCorpID_0Corel-Layer"/>
  <g id="_2232596338464">
   <path class="fil0 str0" d="M2787.37 1574.95c543.59,-993.65 1743.52,-1492.45 2854.04,-1122.94 1248.13,415.25 1929.58,1776.22 1514.32,3024.35l-1214.53 3650.52c-415.26,1248.13 -1776.23,1929.58 -3024.36,1514.33 -1248.13,-415.26 -1929.58,-1776.23 -1514.32,-3024.36l116.95 -351.75"/>
   <path class="fil0 str0" d="M3023.65 1738.01c487.6,-862.62 1538.64,-1292.39 2512.09,-968.55 1104.93,367.58 1708.08,1572.32 1340.5,2677.16l-1196.08 3594.97c-367.58,1104.93 -1572.23,1708.09 -2677.16,1340.51 -1104.84,-367.58 -1707.99,-1572.32 -1340.41,-2677.16l112.84 -339.41"/>
   <path class="fil0 str0" d="M2422.94 4886.33c-4.9,29.65 -12.16,59.39 -21.95,88.78 -100.78,302.85 -427.94,466.7 -730.79,365.92 -302.85,-100.77 -466.69,-427.94 -365.92,-730.78 100.78,-302.85 427.94,-466.61 730.79,-365.92 60.8,20.29 115.99,49.6 164.54,86.08"/>
   <path class="fil1 str0" d="M2313.08 4284.71l847.81 -341.4c468.16,-188.53 897.93,-216.98 959.72,-63.54l-0.01 0c61.8,153.44 -267.75,430.76 -735.91,619.28l-847.82 341.41c-468.15,188.52 -897.91,216.97 -959.7,63.53l-0.01 0c-61.78,-153.43 267.77,-430.75 735.92,-619.28z"/>
   <path class="fil0 str0" d="M2787.37 1574.95c21,128.42 99.73,182.83 236.28,163.06"/>
   <path class="fil1 str0" d="M1966.92 5069.94c-152.82,61.59 -328.21,-13.12 -389.79,-165.94 -61.5,-152.83 13.2,-328.22 166.03,-389.8l456.46 -183.79c-48.55,-36.48 -103.75,-65.79 -164.55,-86.08 -302.85,-100.69 -630.01,63.07 -730.78,365.92 -82.41,247.82 12.24,511.83 215.19,654.85 45.14,31.85 95.61,57.65 150.73,75.94 34.9,11.63 70.15,19.77 105.23,24.49 269.95,36.65 536.41,-122.47 625.55,-390.42 9.8,-29.39 17.06,-59.13 21.96,-88.78l-456.02 183.61 -0.01 0z"/>
   <path class="fil1 str0" d="M1577.12 4903.99c61.59,152.83 236.98,227.53 389.8,165.95l456.02 -183.62 1377.86 -554.87 153.87 -61.93c152.82,-61.59 227.44,-236.89 165.94,-389.8 -61.58,-152.82 -236.89,-227.44 -389.8,-165.94l-208.81 84.06 -1322.39 532.56 -456.46 183.79c-152.83,61.59 -227.53,236.98 -166.03,389.8l0 0z"/>
   <path class="fil1 str0" d="M1402.52 5616.85c-415.26,1248.13 266.19,2609.1 1514.32,3024.36 1248.13,415.25 2609.1,-266.2 3024.36,-1514.33l1214.53 -3650.52c415.26,-1248.13 -266.19,-2609.1 -1514.32,-3024.35 -1110.52,-369.51 -2310.45,129.29 -2854.04,1122.94 21,128.42 99.73,182.83 236.28,163.06 487.6,-862.62 1538.64,-1292.39 2512.09,-968.55 1104.93,367.58 1708.08,1572.32 1340.5,2677.16l-1196.08 3594.97c-367.58,1104.93 -1572.23,1708.09 -2677.16,1340.51 -1104.84,-367.58 -1707.99,-1572.32 -1340.41,-2677.16l112.85 -339.41c-35.08,-4.72 -70.33,-12.86 -105.23,-24.49 -55.12,-18.29 -105.59,-44.09 -150.74,-75.94l-116.95 351.75z"/>
  </g>
 </g>
</svg>
