<?xml version="1.0" encoding="UTF-8"?>
<!DOCTYPE svg PUBLIC "-//W3C//DTD SVG 1.1//EN" "http://www.w3.org/Graphics/SVG/1.1/DTD/svg11.dtd">
<!-- Creator: CorelDRAW 2020 (64-Bit) -->
<svg xmlns="http://www.w3.org/2000/svg" xml:space="preserve" width="91.44mm" height="91.44mm" version="1.1" style="shape-rendering:geometricPrecision; text-rendering:geometricPrecision; image-rendering:optimizeQuality; fill-rule:evenodd; clip-rule:evenodd"
viewBox="0 0 9144 9144"
 xmlns:xlink="http://www.w3.org/1999/xlink"
 xmlns:xodm="http://www.corel.com/coreldraw/odm/2003">
 <defs>
  <style type="text/css">
   <![CDATA[
    .str0 {stroke:#373435;stroke-width:84.67;stroke-miterlimit:22.9256}
    .fil0 {fill:none}
    .fil3 {fill:#6B809B}
    .fil1 {fill:#E1C536}
    .fil2 {fill:#FFCC00}
   ]]>
  </style>
 </defs>
 <g id="Capa_x0020_1">
  <metadata id="CorelCorpID_0Corel-Layer"/>
  <g id="_2232598773776">
   <g>
    <path class="fil0 str0" d="M760.78 4120.32l0 -2393.47c0,-175.64 143.67,-319.31 319.31,-319.31 175.64,0 319.32,143.67 319.32,319.31l0 1709.23"/>
    <path class="fil0 str0" d="M1399.41 3436.08l0 -2213.64c0,-175.64 143.68,-319.32 319.32,-319.32 175.64,0 319.32,143.68 319.32,319.32l0 1903.94"/>
    <path class="fil0 str0" d="M2038.05 3126.38l0 -2311.54c0,-175.64 143.67,-319.32 319.32,-319.32 175.64,0 319.31,143.68 319.31,319.32l0 2268.87"/>
    <path class="fil0 str0" d="M2676.68 3083.71l0 -1861.27c0,-175.64 143.76,-319.32 319.4,-319.32 175.56,0 319.32,143.68 319.32,319.32l0 2063.1"/>
    <path class="fil0 str0" d="M3808.1 3410.56l410.62 -752.78c84.09,-154.22 279.07,-211.54 433.2,-127.44 154.22,84.1 211.54,278.99 127.44,433.21l-614.45 1126.65"/>
    <path class="fil0 str0" d="M3315.15 3280.52c0.09,0.33 0.17,0.58 0.25,0.92"/>
    <line class="fil0 str0" x1="3315.4" y1="3043.88" x2="3315.4" y2= "3453.4" />
    <line class="fil0 str0" x1="3857.98" y1="3319.18" x2="3736.22" y2= "3545.11" />
    <path class="fil0 str0" d="M3315.4 3453.4c88.95,180.49 229.2,211.04 420.82,91.71"/>
    <g>
     <path class="fil0 str0" d="M4175.54 4070.61c-13.06,21.43 -23.27,46.36 -30.71,74.73"/>
     <path class="fil0 str0" d="M3950.61 5352.66c-273.8,517.13 -855.95,874.02 -1529.9,874.02 -622.57,0 -1166.9,-304.67 -1462.04,-758.88"/>
    </g>
    <path class="fil0 str0" d="M902.11 5973.14c-11.38,87.78 -31.63,170.37 -60.67,247.85"/>
    <path class="fil1 str0" d="M1088.54 6220.99l2681.07 0c300.12,0 543.5,91.69 543.5,204.76l0 0c0,113.07 -243.38,204.76 -543.5,204.76l-2681.07 0c-300.11,0 -543.49,-91.69 -543.49,-204.76l0 0c0,-113.07 243.38,-204.76 543.5,-204.76z"/>
   </g>
   <path class="fil0 str0" d="M928.47 4886.32c62.09,479.64 33.13,924.48 -87.03,1334.67"/>
   <path class="fil0 str0" d="M3972.11 6220.99c-62.76,-747.92 -14.47,-1409.99 144.94,-1986.2 18.49,-59.66 27.78,-89.45 27.78,-89.45"/>
   <path class="fil0 str0" d="M760.78 4120.32c48.7,384 104.59,639.39 167.69,766 52.97,568.17 23.93,1013.01 -87.03,1334.67"/>
   <path class="fil0 str0" d="M760.78 2673.26c183.92,-114.39 396.8,-114.39 638.63,0"/>
   <path class="fil0 str0" d="M1399.41 2416.7c219.83,-114.05 432.7,-114.05 638.64,0"/>
   <path class="fil0 str0" d="M2038.05 2145.83c204.93,-114.05 417.8,-114.05 638.63,0"/>
   <path class="fil0 str0" d="M2676.68 2419.05c207.7,-113.31 420.58,-117.24 638.72,-11.89"/>
   <path class="fil0 str0" d="M3910.27 3223.2c284.85,-22.09 471.7,79.91 560.65,305.84"/>
   <path class="fil2 str0" d="M1399.41 1726.86l0 946.4 0 762.82 0 -1709.22zm1277.27 -504.42l0 923.4 0 937.87 0 -1861.27zm-1915.9 1450.82l0 1447.06c48.7,384 104.59,639.39 167.69,766 25.86,199.9 35.98,393.7 30.21,581.48 271.53,417.97 754.11,709.26 1314.51,753.19l295.13 0c610.52,-47.78 1128.66,-389.36 1382.29,-868.33 16.23,-402.92 71.71,-775.54 166.44,-1117.87 18.49,-59.66 27.78,-89.45 27.78,-89.45 5.27,-20.17 11.97,-38.49 20.08,-55.15 3.35,-6.77 6.87,-13.3 10.63,-19.58l295.39 -541.56c-88.95,-225.94 -275.81,-327.94 -560.65,-305.85l-52.3 95.98 -121.75 225.94c-191.63,119.32 -331.87,88.78 -420.82,-91.72l0 -167.85 0 -4.1 0 -874.28 0 -1184.72c0,-175.64 -143.76,-319.32 -319.4,-319.32 -175.56,0 -319.32,143.68 -319.32,319.32l0 -407.6c0,-175.65 -143.68,-319.4 -319.32,-319.4 -175.64,0 -319.32,143.75 -319.32,319.4l0 407.6c0,-175.64 -143.68,-319.32 -319.32,-319.32 -175.64,0 -319.32,143.68 -319.32,319.32l0 504.41c0,-175.64 -143.67,-319.31 -319.31,-319.31 -175.65,0 -319.32,143.67 -319.32,319.31l0 946.41 0 -0.01z"/>
   <path class="fil1 str0" d="M4651.92 2530.34c-154.13,-84.1 -349.11,-26.78 -433.2,127.44l-308.44 565.42c284.84,-22.09 471.7,79.91 560.65,305.84l308.43 -565.5c84.1,-154.22 26.78,-349.1 -127.44,-433.2z"/>
   <path class="fil1 str0" d="M3315.4 2407.16l0 -1184.72c0,-175.64 -143.76,-319.32 -319.4,-319.32 -175.56,0 -319.32,143.68 -319.32,319.32l0 923.4 0 273.21c207.7,-113.31 420.58,-117.24 638.72,-11.89z"/>
   <path class="fil1 str0" d="M2676.68 2145.83l0 -923.39 0 -407.6c0,-175.64 -143.67,-319.4 -319.31,-319.4 -175.65,0 -319.32,143.76 -319.32,319.4l0 407.6 0 923.39c204.93,-114.05 417.8,-114.05 638.63,0z"/>
   <path class="fil1 str0" d="M2038.05 2145.83l0 -923.39c0,-175.64 -143.68,-319.32 -319.32,-319.32 -175.64,0 -319.32,143.68 -319.32,319.32l0 504.41 0 689.85c219.83,-114.05 432.7,-114.05 638.64,0l0 -270.87z"/>
   <path class="fil1 str0" d="M1399.41 2416.7l0 -689.85c0,-175.64 -143.68,-319.31 -319.32,-319.31 -175.64,0 -319.31,143.67 -319.31,319.31l0 946.41c183.92,-114.39 396.8,-114.39 638.63,0l0 -256.56z"/>
   <path class="fil3 str0" d="M2273.19 6220.99c-560.4,-43.93 -1042.98,-335.22 -1314.51,-753.19 -2.77,89.45 -9.13,177.57 -19,264.26 -11.21,120.41 -28.87,231.2 -52.97,332.2 -11.38,54.39 -26.52,106.61 -45.27,156.73l1431.75 0z"/>
   <path class="fil1 str0" d="M3950.61 5352.66c-253.63,478.98 -771.77,820.55 -1382.29,868.33l1403.79 0c-25.52,-303.59 -32.63,-593.03 -21.5,-868.33z"/>
   <path class="fil1 str0" d="M2273.19 6220.99c-560.4,-43.93 -1042.98,-335.22 -1314.51,-753.19 -2.77,89.45 -9.13,177.57 -19,264.26 -11.21,120.41 -28.87,231.2 -52.97,332.2 -11.38,54.39 -26.52,106.61 -45.27,156.73l1431.75 0z"/>
   <g>
    <path class="fil0 str0" d="M7958.24 6569.18l797.12 -2256.82c58.49,-165.6 -29.21,-348.94 -194.81,-407.43 -165.6,-58.49 -348.93,29.12 -407.43,194.72l-569.18 1611.66"/>
    <path class="fil0 str0" d="M7583.94 5711.31l737.21 -2087.29c58.49,-165.6 -29.2,-348.94 -194.8,-407.43 -165.6,-58.49 -348.94,29.12 -407.44,194.72l-634.03 1795.24"/>
    <path class="fil0 str0" d="M7084.88 5206.55l769.85 -2179.58c58.49,-165.6 -29.21,-348.94 -194.81,-407.43 -165.6,-58.49 -348.94,29.12 -407.43,194.72l-755.62 2139.42"/>
    <path class="fil0 str0" d="M6496.87 4953.68l619.89 -1755c58.49,-165.68 -29.12,-348.94 -194.8,-407.51 -165.6,-58.49 -348.94,29.2 -407.44,194.8l-687 1945.28"/>
    <path class="fil0 str0" d="M5321.27 4885.06l-136.48 -846.58c-27.95,-173.38 -192.63,-292.37 -366.1,-264.42 -173.38,27.95 -292.37,192.63 -264.42,366.01l204.26 1267.06"/>
    <path class="fil0 str0" d="M5829.37 4926.65c-0.17,0.25 -0.34,0.5 -0.51,0.75"/>
    <line class="fil0 str0" x1="5907.94" y1="4703.39" x2="5771.63" y2= "5089.57" />
    <line class="fil0 str0" x1="5304.7" y1="4782.3" x2="5344.19" y2= "5035.93" />
    <path class="fil0 str0" d="M5771.63 5089.57c-144.01,140.5 -286.44,122.59 -427.43,-53.64"/>
    <g>
     <path class="fil0 str0" d="M4754.93 5385.04c5.19,24.6 6.53,51.55 4.1,80.67"/>
     <path class="fil0 str0" d="M4540.12 6668.84c85.94,578.8 515.97,1109.25 1151.43,1333.67 587.09,207.36 1201.79,101.34 1631.31,-228.69"/>
    </g>
    <path class="fil0 str0" d="M7207.97 8269.11c-18.49,86.61 -26.94,171.21 -25.35,253.88"/>
    <path class="fil1 str0" d="M6949.6 8440.72l-2528.01 -892.86c-283,-99.96 -543.04,-94.55 -580.69,12.07l0 0c-37.66,106.62 161.3,274.14 444.3,374.1l2528.01 892.86c282.99,99.95 543.03,94.55 580.69,-12.07l0 0c37.65,-106.62 -161.31,-274.14 -444.31,-374.1z"/>
   </g>
   <path class="fil0 str0" d="M7545.03 7235.6c-218.32,431.53 -339.07,860.72 -362.41,1287.39"/>
   <path class="fil0 str0" d="M4230.68 7480.44c308.19,-684.32 483.16,-1324.63 524.83,-1921.09 2.35,-62.43 3.52,-93.64 3.52,-93.64"/>
   <path class="fil0 str0" d="M7958.24 6569.18c-173.81,345.84 -311.54,568.01 -413.21,666.41 -239.15,518.06 -359.9,947.25 -362.41,1287.4"/>
   <path class="fil0 str0" d="M8440.14 5204.71c-135.31,-169.11 -336.05,-240.07 -602.15,-212.71"/>
   <path class="fil0 str0" d="M7923.43 4750.09c-169.28,-180.75 -370.03,-251.62 -602.24,-212.71"/>
   <path class="fil0 str0" d="M7411.4 4282.07c-155.23,-175.81 -355.89,-246.68 -602.16,-212.71"/>
   <path class="fil0 str0" d="M6718.2 4326.92c-158.07,-175.97 -357.48,-250.62 -598.22,-223.84"/>
   <path class="fil0 str0" d="M5287.29 4674.44c-261.24,-115.73 -471.36,-81.84 -630.52,101.58"/>
   <path class="fil2 str0" d="M8153.12 4099.65l-315.13 892.35 -254.05 719.31 569.18 -1611.66zm-1036.36 -900.97l-307.52 870.68 -312.37 884.32 619.89 -1755zm1323.38 2006.03l-481.9 1364.47c-173.81,345.84 -311.54,568.01 -413.21,666.42 -90.96,179.82 -165.01,359.23 -222.17,538.22 -395.21,303.67 -947.24,417.64 -1490.23,272.37l-278.32 -98.23c-559.72,-248.45 -934.6,-742.99 -1014.18,-1279.12 118.82,-385.34 190.62,-755.2 215.39,-1109.49 2.34,-62.43 3.51,-93.64 3.51,-93.64 1.76,-20.67 1.59,-40.25 -0.58,-58.66 -0.84,-7.53 -2.01,-14.81 -3.52,-22.01l-98.15 -609.01c159.15,-183.43 369.27,-217.32 630.52,-101.59l17.4 107.87 39.5 253.62c140.99,176.23 283.42,194.14 427.35,53.64l55.98 -158.32 1.34 -3.85 291.12 -824.31 394.54 -1117.12c58.49,-165.6 241.83,-253.21 407.43,-194.72 165.69,58.49 253.3,241.75 194.81,407.43l135.72 -384.42c58.49,-165.6 241.84,-253.21 407.44,-194.72 165.6,58.49 253.29,241.83 194.8,407.43l-135.81 384.34c58.49,-165.6 241.83,-253.21 407.43,-194.72 165.69,58.49 253.3,241.83 194.81,407.43l-168.03 475.63c58.49,-165.6 241.83,-253.21 407.43,-194.72 165.6,58.49 253.3,241.83 194.81,407.43l-315.22 892.35 -0.01 0z"/>
   <path class="fil1 str0" d="M4818.69 3774.06c173.47,-27.95 338.15,91.04 366.1,264.42l102.5 635.96c-261.24,-115.73 -471.36,-81.84 -630.52,101.58l-102.5 -635.95c-27.95,-173.39 91.04,-338.07 264.42,-366.02l0 0.01z"/>
   <path class="fil1 str0" d="M6119.98 4103.08l394.55 -1117.11c58.49,-165.6 241.83,-253.21 407.43,-194.72 165.69,58.49 253.29,241.75 194.8,407.43l-307.51 870.68 -91.05 257.56c-158.07,-175.97 -357.47,-250.62 -598.22,-223.84z"/>
   <path class="fil1 str0" d="M6809.24 4069.36l307.52 -870.68 135.73 -384.42c58.49,-165.6 241.83,-253.21 407.43,-194.72 165.6,58.49 253.29,241.83 194.8,407.43l-135.81 384.34 -307.51 870.76c-155.23,-175.81 -355.89,-246.69 -602.16,-212.71l0 0z"/>
   <path class="fil1 str0" d="M7411.4 4282.07l307.51 -870.76c58.49,-165.6 241.84,-253.21 407.44,-194.72 165.68,58.49 253.29,241.83 194.8,407.43l-168.03 475.63 -229.69 650.44c-169.28,-180.75 -370.03,-251.62 -602.24,-212.71l90.21 -255.31 0 0z"/>
   <path class="fil1 str0" d="M7923.43 4750.09l229.69 -650.44c58.5,-165.6 241.84,-253.21 407.44,-194.72 165.6,58.49 253.29,241.83 194.8,407.43l-315.22 892.35c-135.31,-169.11 -336.05,-240.07 -602.15,-212.71l85.44 -241.91z"/>
   <path class="fil3 str0" d="M5832.63 8046.19c542.99,145.27 1095.02,31.3 1490.23,-272.37 -27.19,85.27 -50.54,170.45 -70.04,255.47 -29.54,117.32 -49.79,227.6 -60.66,330.86 -7.37,55.15 -10.55,109.37 -9.54,162.84l-1349.99 -476.8 0 0z"/>
   <path class="fil1 str0" d="M4540.12 6668.84c79.58,536.13 454.46,1030.67 1014.19,1279.11l-1323.63 -467.51c125.1,-277.82 228.28,-548.26 309.44,-811.6z"/>
   <path class="fil1 str0" d="M5832.63 8046.19c542.99,145.27 1095.02,31.3 1490.23,-272.37 -27.19,85.27 -50.54,170.45 -70.04,255.47 -29.54,117.32 -49.79,227.6 -60.66,330.86 -7.37,55.15 -10.55,109.37 -9.54,162.84l-1349.99 -476.8 0 0z"/>
  </g>
 </g>
</svg>
