<?xml version="1.0" encoding="UTF-8"?>
<!DOCTYPE svg PUBLIC "-//W3C//DTD SVG 1.1//EN" "http://www.w3.org/Graphics/SVG/1.1/DTD/svg11.dtd">
<!-- Creator: CorelDRAW 2020 (64-Bit) -->
<svg xmlns="http://www.w3.org/2000/svg" xml:space="preserve" width="91.44mm" height="91.44mm" version="1.1" style="shape-rendering:geometricPrecision; text-rendering:geometricPrecision; image-rendering:optimizeQuality; fill-rule:evenodd; clip-rule:evenodd"
viewBox="0 0 9144 9144"
 xmlns:xlink="http://www.w3.org/1999/xlink"
 xmlns:xodm="http://www.corel.com/coreldraw/odm/2003">
 <defs>
  <style type="text/css">
   <![CDATA[
    .str1 {stroke:#373435;stroke-width:84.67;stroke-miterlimit:22.9256}
    .str0 {stroke:#373435;stroke-width:84.67;stroke-miterlimit:22.9256}
    .fil0 {fill:none}
    .fil3 {fill:#E1C536}
    .fil2 {fill:#E1C536}
    .fil4 {fill:#FEE010}
    .fil1 {fill:#FFCC00}
   ]]>
  </style>
 </defs>
 <g id="Capa_x0020_1">
  <metadata id="CorelCorpID_0Corel-Layer"/>
  <path class="fil0 str0" d="M3969.56 7122.78c0,-834.28 -676.32,-1510.61 -1510.6,-1510.61 -834.29,0 -1510.61,676.33 -1510.61,1510.61 0,834.28 676.32,1510.61 1510.61,1510.61 834.28,0 1510.6,-676.33 1510.6,-1510.61z"/>
  <path class="fil0 str0" d="M4240 7444.55c-151.84,845.9 -891.48,1487.78 -1781.04,1487.78 -879.07,0 -1611.79,-626.88 -1775.38,-1458.03m0 -703.13c163.68,-831.06 896.31,-1457.94 1775.38,-1457.94 922.98,0 1684.62,691.05 1795.62,1584.03"/>
  <path class="fil0 str0" d="M7936.43 7122.78c0,-834.28 -676.32,-1510.61 -1510.6,-1510.61 -834.29,0 -1510.61,676.33 -1510.61,1510.61 0,834.28 676.32,1510.61 1510.61,1510.61 834.28,0 1510.6,-676.33 1510.6,-1510.61z"/>
  <path class="fil0 str0" d="M4630.2 6897.26c111,-892.98 872.56,-1584.03 1795.62,-1584.03 899.99,0 1646.45,657.05 1786.05,1517.53m0 583.96c-139.6,860.56 -886.06,1517.6 -1786.05,1517.6 -890.06,0 -1630.03,-642.62 -1781.29,-1489.19"/>
  <path class="fil0 str0" d="M4239.5 7445.05c124.35,-118.17 260.1,-118.17 407.45,0"/>
  <path class="fil0 str0" d="M4254.59 6897.26c125.84,99.76 251.02,99.76 375.61,0"/>
  <path class="fil0 str0" d="M8211.87 6830.76c20.58,-73.09 88.01,-127.01 167.43,-127.01 95.67,0 173.93,78.17 173.93,173.84l0 490.29c0,95.67 -78.26,173.93 -173.93,173.93 -79.42,0 -146.85,-54.01 -167.43,-127.09"/>
  <path class="fil0 str0" d="M683.58 7474.3c-31.83,41.01 -81.67,67.51 -137.34,67.51 -95.59,0 -173.85,-78.26 -173.85,-173.93l0 -490.29c0,-95.67 78.26,-173.84 173.85,-173.84 55.67,0 105.51,26.42 137.34,67.42"/>
  <path class="fil0 str0" d="M1362.3 4678.77l6183.77 0c576.12,0 1043.33,73 1043.33,163.01l0 0c0,90.01 -467.21,163.01 -1043.33,163.01l-6183.77 0.01c-576.12,-0.01 -1043.33,-73.01 -1043.33,-163.02l0 0c0,-90.01 467.21,-163.01 1043.33,-163.01z"/>
  <path class="fil0 str0" d="M546.15 4678.77c-6.91,-94.67 -10.41,-190.26 -10.41,-286.69 0,-1871.63 1316.17,-3435.83 3073.47,-3817.6m253.93 -46.42c142.26,-21.09 287.02,-34.59 433.78,-40m253.94 -1.17c146.76,4 291.52,16.08 433.86,35.92m253.85 43.83c1775.8,367.62 3110.56,1940.73 3110.56,3825.44 0,96.43 -3.5,192.02 -10.42,286.69"/>
  <path class="fil0 str0" d="M4423.89 353.88l0 0c70.11,0 126.97,379.3 126.97,847.02l0 0c0,467.71 -56.86,847.02 -126.97,847.02l0 0c-70.11,0 -126.96,-379.31 -126.96,-847.02l-0.01 0c0.01,-467.72 56.86,-847.02 126.97,-847.02z"/>
  <path class="fil0 str0" d="M3736.18 353.88l0 0c70.11,0 126.96,298.67 126.96,666.96l0 0c0,368.3 -56.85,666.97 -126.96,666.97l0 0c-70.11,0 -126.97,-298.67 -126.97,-666.97l0 0c0,-368.29 56.86,-666.96 126.97,-666.96z"/>
  <path class="fil0 str0" d="M5111.69 353.88l0 0c70.11,0 126.96,298.67 126.96,666.96l0.01 0c-0.01,368.3 -56.86,666.97 -126.97,666.97l0 0c-70.11,0 -126.97,-298.67 -126.97,-666.97l0 0c0,-368.29 56.86,-666.96 126.97,-666.96z"/>
  <path class="fil1 str1" d="M2458.96 8633.39c-834.31,0 -1510.61,-676.3 -1510.61,-1510.61 0,-834.31 676.29,-1510.69 1510.61,-1510.69 834.3,0 1510.61,676.38 1510.61,1510.69 0,834.31 -676.3,1510.61 -1510.61,1510.61zm0 298.94c889.56,0 1629.2,-641.88 1781.04,-1487.78 123.51,-117.01 258.35,-117.5 404.53,-1.41 151.26,846.56 891.23,1489.19 1781.29,1489.19 899.99,0 1646.45,-657.05 1786.05,-1517.61 20.58,73.09 88.01,127.09 167.43,127.09 95.67,0 173.93,-78.25 173.93,-173.93l0 -490.28c0,-95.68 -78.26,-173.85 -173.93,-173.85 -79.42,0 -146.85,53.92 -167.43,127.01 -139.6,-860.47 -886.06,-1517.52 -1786.05,-1517.52 -923.06,0 -1684.62,691.05 -1795.62,1584.03 -124.6,99.76 -249.77,99.76 -375.62,0 -111.01,-892.98 -872.64,-1584.03 -1795.62,-1584.03 -879.07,0 -1611.7,626.88 -1775.38,1457.93 -31.84,-41 -81.67,-67.42 -137.34,-67.42 -95.59,0 -173.85,78.17 -173.85,173.85l0 490.28c0,95.67 78.26,173.93 173.85,173.93 55.67,0 105.5,-26.5 137.34,-67.5 163.59,831.14 896.31,1458.02 1775.38,1458.02l0 0zm2456.17 -1809.55c0,-834.31 676.38,-1510.69 1510.69,-1510.69 834.23,0 1510.61,676.38 1510.61,1510.69 0,834.31 -676.38,1510.61 -1510.61,1510.61 -834.31,0 -1510.69,-676.3 -1510.69,-1510.61z"/>
  <path class="fil2 str0" d="M481.98 5004.8l7944.4 0c89.68,0 163.02,-73.34 163.02,-163.02 0,-89.67 -73.34,-163.01 -163.02,-163.01l-87.67 0 -7792.56 0 -64.17 0c-89.67,0 -163.01,73.34 -163.01,163.01 0,89.67 73.34,163.02 163.01,163.02z"/>
  <path class="fil3 str0" d="M546.15 4678.77l7792.56 0c6.92,-94.67 10.42,-190.26 10.42,-286.69 0,-1884.71 -1334.76,-3457.83 -3110.56,-3825.44l0 994.16c0,69.84 -57.09,126.92 -126.92,126.92 -69.84,0 -126.93,-57.08 -126.93,-126.92l0 -1037.99c-142.34,-19.84 -287.1,-31.92 -433.86,-35.93l0 1434.03c0,69.83 -57.09,126.92 -126.93,126.92 -69.84,0 -127.01,-57.09 -127.01,-126.92l0 -1432.86c-146.76,5.42 -291.52,18.92 -433.78,40.01l0 1032.74c0,69.84 -57.17,126.92 -127.01,126.92 -69.84,0 -126.93,-57.08 -126.93,-126.92l0 -986.32c-1757.29,381.78 -3073.47,1945.97 -3073.47,3817.6 0,96.43 3.5,192.02 10.42,286.69l0 0z"/>
  <path class="fil4 str0" d="M8338.71 4678.77c6.92,-94.67 10.42,-190.26 10.42,-286.69 0,-1884.71 -1334.76,-3457.83 -3110.56,-3825.44l0 994.16c0,69.84 -57.09,126.92 -126.92,126.92 -69.84,0 -126.93,-57.08 -126.93,-126.92l0 -1038.08c-142.34,-19.75 -287.1,-31.83 -433.86,-35.83l0 1434.02c0,69.84 -57.09,126.92 -126.93,126.92 -69.84,0 -127.01,-57.08 -127.01,-126.92l0 -1432.85c-146.76,5.41 -291.52,18.91 -433.78,40l0 1032.74c0,69.84 -57.17,126.93 -127.01,126.93 -69.84,0 -126.93,-57.09 -126.93,-126.93l0 -986.32c-1757.29,381.78 -3073.47,1945.97 -3073.47,3817.61 0,96.42 3.5,192.01 10.42,286.69l7792.56 0 0 -0.01z"/>
  <path class="fil1 str1" d="M8349.13 4392.09c0,-1884.72 -1334.76,-3457.84 -3110.56,-3825.45l0 430.03c0.05,8.02 0.08,16.08 0.09,24.17 0,8.24 -0.03,16.44 -0.09,24.61l0 515.35c0,69.06 -55.82,125.65 -124.59,126.9 -0.77,0.07 -1.53,0.11 -2.29,0.11 -0.76,0 -1.52,-0.04 -2.27,-0.1 -68.82,-1.21 -124.7,-57.82 -124.7,-126.91l0 -539.96 0 -498.03c-98.27,-13.7 -197.69,-23.7 -298.13,-29.89 -45.04,-2.78 -90.29,-4.79 -135.73,-6.03l0 714.01 0 720.01c0,69.21 -56.06,125.89 -125.04,126.91 -0.64,0.07 -1.29,0.1 -1.93,0.1 -0.65,0 -1.3,-0.03 -1.94,-0.1 -68.94,-1.07 -125.03,-57.73 -125.03,-126.91l0 -720.01 0 -712.84c-146.76,5.41 -291.52,18.91 -433.78,40l0 486.07c0,2.24 0.01,4.47 0,6.71 0,1.6 0,3.19 0,4.78l0 535.18c0,69.07 -55.92,125.67 -124.71,126.91 -0.75,0.06 -1.5,0.1 -2.25,0.1 -0.75,0 -1.49,-0.04 -2.23,-0.1 -68.84,-1.17 -124.75,-57.8 -124.75,-126.91l0 -539.96 0 -446.36c-1757.29,381.78 -3073.47,1945.97 -3073.47,3817.61 0,96.42 3.5,192.01 10.42,286.69l806.88 0c3.09,-0.01 6.18,-0.01 9.27,-0.01l6183.77 0c2.2,0 4.4,0 6.59,0.01l786.05 -0.01c6.92,-94.67 10.42,-190.26 10.42,-286.68z"/>
 </g>
</svg>
