<?xml version="1.0" encoding="UTF-8"?>
<!DOCTYPE svg PUBLIC "-//W3C//DTD SVG 1.1//EN" "http://www.w3.org/Graphics/SVG/1.1/DTD/svg11.dtd">
<!-- Creator: CorelDRAW 2020 (64-Bit) -->
<svg xmlns="http://www.w3.org/2000/svg" xml:space="preserve" width="91.44mm" height="91.44mm" version="1.1" style="shape-rendering:geometricPrecision; text-rendering:geometricPrecision; image-rendering:optimizeQuality; fill-rule:evenodd; clip-rule:evenodd"
viewBox="0 0 9144 9144"
 xmlns:xlink="http://www.w3.org/1999/xlink"
 xmlns:xodm="http://www.corel.com/coreldraw/odm/2003">
 <defs>
  <style type="text/css">
   <![CDATA[
    .str6 {stroke:#373435;stroke-width:468.84;stroke-miterlimit:22.9256}
    .str3 {stroke:#373435;stroke-width:468.84;stroke-miterlimit:22.9256}
    .str5 {stroke:#FEFEFE;stroke-width:468.84;stroke-miterlimit:22.9256}
    .str4 {stroke:#FF5E5B;stroke-width:468.84;stroke-miterlimit:22.9256}
    .str12 {stroke:#BDBFC1;stroke-width:169.33;stroke-miterlimit:22.9256}
    .str7 {stroke:#373435;stroke-width:62.44;stroke-miterlimit:22.9256}
    .str10 {stroke:#373435;stroke-width:16.93;stroke-miterlimit:22.9256}
    .str11 {stroke:#BDBFC1;stroke-width:211.67;stroke-miterlimit:22.9256}
    .str0 {stroke:#373435;stroke-width:211.67;stroke-miterlimit:22.9256}
    .str13 {stroke:#373435;stroke-width:211.67;stroke-miterlimit:22.9256}
    .str9 {stroke:#373435;stroke-width:211.67;stroke-miterlimit:22.9256}
    .str1 {stroke:#373435;stroke-width:211.67;stroke-miterlimit:22.9256}
    .str8 {stroke:#373435;stroke-width:20;stroke-miterlimit:22.9256}
    .str2 {stroke:#FFCC00;stroke-width:20;stroke-miterlimit:22.9256}
    .fil1 {fill:none}
    .fil12 {fill:#FEFEFE}
    .fil9 {fill:#373435}
    .fil8 {fill:#ED3237}
    .fil7 {fill:#6B809B}
    .fil3 {fill:#6B809B}
    .fil0 {fill:#E1C536}
    .fil4 {fill:#E1C536}
    .fil6 {fill:#FEE010}
    .fil5 {fill:#FEFEFE}
    .fil11 {fill:#FFCC00}
    .fil2 {fill:#FFCC00}
    .fil10 {fill:#373435;fill-rule:nonzero}
   ]]>
  </style>
 </defs>
 <g id="Capa_x0020_1">
  <metadata id="CorelCorpID_0Corel-Layer"/>
  <path class="fil0 str0" d="M50643.05 19503.66l1230.08 0c294.9,0 536.15,-241.27 536.15,-536.15 0,-294.88 -241.25,-536.14 -536.15,-536.14l-1230.08 0 0 1072.29z"/>
  <line class="fil1 str1" x1="50643.05" y1="18431.37" x2="50643.05" y2= "20615.34" />
  <polygon class="fil2 str2" points="-116292.06,-51293.93 -102610.52,-51293.93 -102610.52,-47820.48 -116292.06,-47820.48 "/>
  <g id="_2691837951872">
   <path class="fil1 str3" d="M-79180.5 -50435.75l0 -7567.88c0,-555.36 454.29,-1009.65 1009.65,-1009.65 555.36,0 1009.65,454.29 1009.65,1009.65l0 5404.38"/>
   <path class="fil1 str3" d="M-77161.2 -52599.25l0 -6999.29c0,-555.36 454.29,-1009.65 1009.65,-1009.65 555.36,0 1009.65,454.29 1009.65,1009.65l0 6020.06"/>
   <path class="fil1 str3" d="M-75141.9 -53578.47l0 -7308.85c0,-555.36 454.29,-1009.65 1009.65,-1009.65 555.36,0 1009.65,454.29 1009.65,1009.65l0 7173.91"/>
   <path class="fil1 str3" d="M-73122.6 -53713.41l0 -5885.13c0,-555.36 454.55,-1009.65 1009.91,-1009.65 555.1,0 1009.65,454.29 1009.65,1009.65l0 6523.3"/>
   <path class="fil1 str3" d="M-69545.17 -52679.94l1298.31 -2380.19c265.91,-487.63 882.39,-668.87 1369.75,-402.96 487.63,265.91 668.87,882.12 402.96,1369.75l-1942.84 3562.35"/>
   <path class="fil1 str3" d="M-71103.83 -53091.11c0.26,1.06 0.53,1.85 0.79,2.91"/>
   <line class="fil1 str3" x1="-71103.04" y1="-53839.35" x2="-71103.04" y2= "-52544.48" />
   <line class="fil1 str3" x1="-69387.48" y1="-52968.87" x2="-69772.45" y2= "-52254.49" />
   <path class="fil1 str3" d="M-71103.04 -52544.48c281.25,570.71 724.69,667.28 1330.59,289.98"/>
   <g>
    <path class="fil1 str3" d="M-68383.39 -50592.91c-41.28,67.73 -73.55,146.58 -97.1,236.27"/>
    <path class="fil1 str3" d="M-69094.59 -46539.23c-865.72,1635.13 -2706.42,2763.57 -4837.38,2763.57 -1968.5,0 -3689.61,-963.35 -4622.8,-2399.51"/>
   </g>
   <path class="fil1 str3" d="M-78733.62 -44577.34c-35.98,277.55 -100.01,538.69 -191.82,783.7"/>
   <path class="fil0 str3" d="M-78144.13 -43793.65l8477.25 0c948.93,-0.01 1718.48,289.92 1718.48,647.43l-0.01 0.01c0.01,357.5 -769.54,647.43 -1718.46,647.43l-8477.26 0c-948.92,0 -1718.46,-289.93 -1718.46,-647.44l-0.01 0.01c0.01,-357.52 769.55,-647.45 1718.48,-647.45z"/>
  </g>
  <path class="fil1 str3" d="M-78650.28 -48013.75c196.32,1516.59 104.78,2923.12 -275.17,4220.1"/>
  <path class="fil1 str3" d="M-69026.59 -43793.65c-198.44,-2364.85 -45.77,-4458.23 458.26,-6280.15 58.47,-188.65 87.84,-282.84 87.84,-282.84"/>
  <path class="fil1 str3" d="M-79180.5 -50435.75c153.99,1214.17 330.73,2021.68 530.23,2422 167.48,1796.52 75.67,3203.05 -275.17,4220.1"/>
  <path class="fil1 str3" d="M-79180.5 -55011.19c581.55,-361.69 1254.65,-361.69 2019.3,0"/>
  <path class="fil1 str3" d="M-77161.2 -55822.4c695.06,-360.63 1368.16,-360.63 2019.3,0"/>
  <path class="fil1 str3" d="M-75141.9 -56678.86c647.96,-360.63 1321.06,-360.63 2019.3,0"/>
  <path class="fil1 str3" d="M-73122.6 -55814.99c656.7,-358.25 1329.8,-370.68 2019.56,-37.57"/>
  <path class="fil1 str3" d="M-69222.12 -53272.35c900.64,-69.85 1491.46,252.68 1772.71,967.05"/>
  <path class="fil2 str3" d="M-77161.2 -58003.62l0 2992.44 0 2411.94 0 -5404.38zm4038.6 -1594.91l0 2919.68 0 2965.45 0 -5885.13zm-6057.9 4587.34l0 4575.44c153.99,1214.17 330.73,2021.68 530.23,2422 81.76,632.09 113.77,1244.86 95.51,1838.59 858.57,1321.59 2384.43,2242.61 4156.34,2381.51l933.19 0c1930.4,-151.08 3568.7,-1231.11 4370.65,-2745.58 51.33,-1273.97 226.75,-2452.16 526.26,-3534.57 58.47,-188.65 87.84,-282.84 87.84,-282.84 16.67,-63.76 37.84,-121.71 63.5,-174.36 10.58,-21.43 21.7,-42.07 33.6,-61.91l933.98 -1712.38c-281.25,-714.38 -872.07,-1036.9 -1772.71,-967.05l-165.36 303.48 -384.97 714.38c-605.9,377.3 -1049.34,280.72 -1330.59,-289.98l0 -530.75 0 -12.96 0 -2764.37 0 -3745.97c0,-555.36 -454.55,-1009.65 -1009.91,-1009.65 -555.1,0 -1009.65,454.29 -1009.65,1009.65l0 -1288.79c0,-555.36 -454.29,-1009.91 -1009.65,-1009.91 -555.36,0 -1009.65,454.55 -1009.65,1009.91l0 1288.79c0,-555.36 -454.29,-1009.65 -1009.65,-1009.65 -555.36,0 -1009.65,454.29 -1009.65,1009.65l0 1594.91c0,-555.36 -454.29,-1009.65 -1009.65,-1009.65 -555.36,0 -1009.65,454.29 -1009.65,1009.65l0 2992.44 -0.01 -0.03z"/>
  <path class="fil0 str3" d="M-66877.11 -55463.1c-487.36,-265.91 -1103.84,-84.67 -1369.75,402.96l-975.25 1787.79c900.64,-69.85 1491.46,252.68 1772.71,967.05l975.25 -1788.05c265.91,-487.63 84.67,-1103.84 -402.96,-1369.75z"/>
  <path class="fil0 str3" d="M-71103.04 -55852.56l0 -3745.97c0,-555.36 -454.55,-1009.65 -1009.91,-1009.65 -555.1,0 -1009.65,454.29 -1009.65,1009.65l0 2919.68 0 863.86c656.7,-358.25 1329.8,-370.68 2019.56,-37.57z"/>
  <path class="fil0 str3" d="M-73122.6 -56678.86l0 -2919.68 0 -1288.79c0,-555.36 -454.29,-1009.91 -1009.65,-1009.91 -555.36,0 -1009.65,454.55 -1009.65,1009.91l0 1288.79 0 2919.68c647.96,-360.63 1321.06,-360.63 2019.3,0z"/>
  <path class="fil0 str3" d="M-75141.9 -56678.86l0 -2919.68c0,-555.36 -454.29,-1009.65 -1009.65,-1009.65 -555.36,0 -1009.65,454.29 -1009.65,1009.65l0 1594.91 0 2181.23c695.06,-360.63 1368.16,-360.63 2019.3,0l0 -856.46z"/>
  <path class="fil0 str3" d="M-77161.2 -55822.4l0 -2181.23c0,-555.36 -454.29,-1009.65 -1009.65,-1009.65 -555.36,0 -1009.65,454.29 -1009.65,1009.65l0 2992.44c581.55,-361.69 1254.65,-361.69 2019.3,0l0 -811.21z"/>
  <path class="fil3 str3" d="M-74398.42 -43793.65c-1771.91,-138.91 -3297.77,-1059.92 -4156.34,-2381.51 -8.73,282.84 -28.84,561.45 -60.06,835.55 -35.45,380.74 -91.28,731.04 -167.48,1050.4 -35.98,171.98 -83.87,337.08 -143.14,495.56l4527.02 0z"/>
  <path class="fil0 str3" d="M-69094.59 -46539.23c-801.95,1514.48 -2440.25,2594.5 -4370.65,2745.58l4438.65 0c-80.7,-959.91 -103.19,-1875.1 -68,-2745.58z"/>
  <path class="fil0 str3" d="M-74398.42 -43793.65c-1771.91,-138.91 -3297.77,-1059.92 -4156.34,-2381.51 -8.73,282.84 -28.84,561.45 -60.06,835.55 -35.45,380.74 -91.28,731.04 -167.48,1050.4 -35.98,171.98 -83.87,337.08 -143.14,495.56l4527.02 0z"/>
  <g id="_2691899528160">
   <path class="fil1 str3" d="M-56422.9 -42692.72l2520.42 -7135.81c184.94,-523.61 -92.34,-1103.31 -615.95,-1288.26 -523.61,-184.94 -1103.31,92.08 -1288.26,615.69l-1799.7 5095.88"/>
   <path class="fil1 str3" d="M-57606.38 -45405.22l2330.98 -6599.77c184.94,-523.61 -92.34,-1103.31 -615.95,-1288.26 -523.61,-184.94 -1103.31,92.08 -1288.26,615.69l-2004.75 5676.37"/>
   <path class="fil1 str3" d="M-59184.35 -47001.19l2434.17 -6891.6c184.94,-523.61 -92.34,-1103.31 -615.95,-1288.26 -523.61,-184.94 -1103.31,92.08 -1288.26,615.69l-2389.19 6764.6"/>
   <path class="fil1 str3" d="M-61043.58 -47800.76l1960.03 -5549.11c184.94,-523.88 -92.08,-1103.31 -615.95,-1288.52 -523.61,-184.94 -1103.31,92.34 -1288.26,615.95l-2172.23 6150.77"/>
   <path class="fil1 str3" d="M-64760.71 -48017.72l-431.54 -2676.79c-88.37,-548.22 -609.07,-924.45 -1157.55,-836.08 -548.22,88.37 -924.45,609.07 -836.08,1157.29l645.85 4006.32"/>
   <path class="fil1 str3" d="M-63154.16 -47886.22c-0.53,0.79 -1.06,1.59 -1.59,2.38"/>
   <line class="fil1 str3" x1="-62905.72" y1="-48592.13" x2="-63336.72" y2= "-47371.08" />
   <line class="fil1 str3" x1="-64813.1" y1="-48342.63" x2="-64688.22" y2= "-47540.68" />
   <path class="fil1 str3" d="M-63336.72 -47371.08c-455.35,444.24 -905.67,387.61 -1351.49,-169.6"/>
   <g>
    <path class="fil1 str3" d="M-66551.41 -46436.83c16.4,77.79 20.64,162.98 12.96,255.06"/>
    <path class="fil1 str3" d="M-67230.6 -42377.6c271.73,1830.12 1631.42,3507.32 3640.67,4216.93 1856.32,655.64 3799.95,320.41 5158.05,-723.11"/>
   </g>
   <path class="fil1 str3" d="M-58795.15 -37317.71c-58.47,273.84 -85.2,541.34 -80.17,802.75"/>
   <path class="fil0 str3" d="M-59612.11 -36775.09l-7993.29 -2823.14c-894.8,-316.05 -1717.02,-298.95 -1836.09,38.17l0 0c-119.07,337.12 510.03,866.81 1404.84,1182.85l7993.29 2823.15c894.8,316.03 1717.02,298.93 1836.08,-38.19l0.02 0.01c119.05,-337.13 -510.04,-866.81 -1404.86,-1182.85z"/>
  </g>
  <path class="fil1 str3" d="M-57729.41 -40585.57c-690.3,1364.46 -1072.09,2721.5 -1145.91,4070.61"/>
  <path class="fil1 str3" d="M-68209.03 -39811.4c974.46,-2163.76 1527.7,-4188.35 1659.47,-6074.3 7.41,-197.38 11.11,-296.07 11.11,-296.07"/>
  <path class="fil1 str3" d="M-56422.9 -42692.72c-549.54,1093.52 -985.04,1795.99 -1306.51,2107.14 -756.18,1638.04 -1137.97,2995.08 -1145.91,4070.61"/>
  <path class="fil1 str3" d="M-54899.16 -47007.01c-427.83,-534.72 -1062.57,-759.09 -1903.94,-672.57"/>
  <path class="fil1 str3" d="M-56532.96 -48444.49c-535.25,-571.5 -1169.99,-795.6 -1904.21,-672.57"/>
  <path class="fil1 str3" d="M-58151.95 -49924.31c-490.8,-555.89 -1125.27,-779.99 -1903.94,-672.57"/>
  <path class="fil1 str3" d="M-60343.76 -49782.49c-499.8,-556.42 -1130.3,-792.43 -1891.51,-707.76"/>
  <path class="fil1 str3" d="M-64868.13 -48683.68c-826.03,-365.92 -1490.4,-258.76 -1993.64,321.2"/>
  <path class="fil2 str3" d="M-55806.68 -50501.1l-996.42 2821.52 -803.28 2274.36 1799.7 -5095.88zm-3276.87 -2848.77l-972.34 2752.99 -987.69 2796.12 1960.03 -5549.11zm4184.39 6342.86l-1523.74 4314.3c-549.54,1093.52 -985.04,1795.99 -1306.51,2107.14 -287.6,568.59 -521.76,1135.86 -702.47,1701.8 -1249.63,960.17 -2995.08,1320.54 -4711.96,861.22l-880 -310.62c-1769.8,-785.55 -2955.13,-2349.24 -3206.75,-4044.42 375.71,-1218.41 602.72,-2387.86 681.04,-3508.11 7.41,-197.38 11.11,-296.07 11.11,-296.07 5.56,-65.35 5.03,-127.26 -1.85,-185.47 -2.65,-23.81 -6.35,-46.83 -11.11,-69.59l-310.36 -1925.64c503.24,-579.97 1167.61,-687.12 1993.64,-321.2l55.03 341.05 124.88 801.95c445.82,557.21 896.14,613.83 1351.23,169.6l177.01 -500.59 4.23 -12.17 920.49 -2606.41 1247.51 -3532.19c184.94,-523.61 764.65,-800.63 1288.26,-615.69 523.88,184.94 800.89,764.38 615.95,1288.26l429.15 -1215.5c184.94,-523.61 764.65,-800.63 1288.26,-615.69 523.61,184.94 800.89,764.65 615.95,1288.26l-429.42 1215.23c184.94,-523.61 764.65,-800.63 1288.26,-615.69 523.88,184.94 800.89,764.65 615.95,1288.26l-531.28 1503.89c184.94,-523.61 764.65,-800.63 1288.26,-615.69 523.61,184.94 800.89,764.65 615.95,1288.26l-996.69 2821.52 -0.02 0z"/>
  <path class="fil0 str3" d="M-66349.8 -51530.59c548.48,-88.37 1069.18,287.87 1157.55,836.08l324.11 2010.83c-826.03,-365.92 -1490.4,-258.76 -1993.64,321.2l-324.11 -2010.83c-88.37,-548.22 287.87,-1068.92 836.08,-1157.29l0.01 0.01z"/>
  <path class="fil0 str3" d="M-62235.26 -50490.25l1247.51 -3532.19c184.94,-523.61 764.65,-800.63 1288.26,-615.69 523.88,184.94 800.89,764.38 615.95,1288.26l-972.34 2752.99 -287.87 814.39c-499.8,-556.42 -1130.3,-792.43 -1891.51,-707.76z"/>
  <path class="fil0 str3" d="M-60055.89 -50596.88l972.34 -2752.99 429.15 -1215.5c184.94,-523.61 764.65,-800.63 1288.26,-615.69 523.61,184.94 800.89,764.65 615.95,1288.26l-429.42 1215.23 -972.34 2753.25c-490.8,-555.89 -1125.27,-779.99 -1903.94,-672.57l0 0.01z"/>
  <path class="fil0 str3" d="M-58151.95 -49924.31l972.34 -2753.25c184.94,-523.61 764.65,-800.63 1288.26,-615.69 523.88,184.94 800.89,764.65 615.95,1288.26l-531.28 1503.89 -726.28 2056.61c-535.25,-571.5 -1169.99,-795.6 -1904.21,-672.57l285.22 -807.24 0 -0.01z"/>
  <path class="fil0 str3" d="M-56532.96 -48444.49l726.28 -2056.61c184.94,-523.61 764.65,-800.63 1288.26,-615.69 523.61,184.94 800.89,764.65 615.95,1288.26l-996.69 2821.52c-427.83,-534.72 -1062.57,-759.09 -1903.94,-672.57l270.14 -764.91z"/>
  <path class="fil3 str3" d="M-63143.84 -38022.56c1716.88,459.32 3462.34,98.95 4711.96,-861.22 -85.99,269.61 -159.81,538.96 -221.46,807.77 -93.4,370.95 -157.43,719.67 -191.82,1046.16 -23.28,174.36 -33.34,345.81 -30.16,514.88l-4268.52 -1507.6 0 0.01z"/>
  <path class="fil0 str3" d="M-67230.6 -42377.6c251.62,1695.19 1436.95,3258.87 3206.75,4044.42l-4185.18 -1478.23c395.55,-878.42 721.78,-1733.55 978.43,-2566.19z"/>
  <path class="fil0 str3" d="M-63143.84 -38022.56c1716.88,459.32 3462.34,98.95 4711.96,-861.22 -85.99,269.61 -159.81,538.96 -221.46,807.77 -93.4,370.95 -157.43,719.67 -191.82,1046.16 -23.28,174.36 -33.34,345.81 -30.16,514.88l-4268.52 -1507.6 0 0.01z"/>
  <path class="fil1 str3" d="M-92576.4 -56359.11l0 3009.37m0 1796.25l0 4072.73m0 1796.26l0 2814.9c0,878.42 -718.87,1597.03 -1597.03,1597.03l-20521.61 0c-878.42,0 -1597.03,-718.61 -1597.03,-1597.03l0 -2723.09m0 -1979.88l0 -3889.11m0 -1979.87l0 -2917.56"/>
  <path class="fil1 str3" d="M-93340.26 -57162.65l-3707.87 0c-878.42,0 -1597.03,-718.87 -1597.03,-1597.03l0 -7949.94"/>
  <path class="fil1 str3" d="M-110143.68 -66889.27l0 8129.59c0,878.15 -718.61,1597.03 -1596.76,1597.03l-3787.78 0"/>
  <path class="fil1 str3" d="M-109855.55 -67077.65c3575.84,2736.32 7151.42,2785 10727.27,146.84"/>
  <line class="fil1 str3" x1="-104491.91" y1="-64987.97" x2="-104491.91" y2= "-41272.57" />
  <path class="fil1 str3" d="M-115398.04 -53609.57l21797.7 0c802.38,-0.01 1453.09,518.47 1453.09,1157.81l0 0.01c0,639.33 -650.71,1157.81 -1453.09,1157.81l-21797.7 0.01c-802.37,-0.01 -1453.08,-518.49 -1453.08,-1157.83l-0.01 0.01c0.01,-639.35 650.72,-1157.83 1453.1,-1157.83z"/>
  <path class="fil1 str3" d="M-115398.04 -47740.58l21797.7 0c802.38,-0.01 1453.09,518.47 1453.09,1157.81l0 0.01c0,639.33 -650.71,1157.81 -1453.09,1157.81l-21797.7 0.01c-802.37,-0.01 -1453.08,-518.49 -1453.08,-1157.83l-0.01 0.01c0.01,-639.35 650.72,-1157.83 1453.1,-1157.83z"/>
  <path class="fil0 str3" d="M-105432.51 -48319.49l2395.54 0c881.87,-0.01 1597.03,715.15 1597.03,1597.02l-0.01 279.41c0.01,881.86 -715.15,1597.02 -1597.02,1597.02l-2395.54 0c-881.86,0 -1597.02,-715.16 -1597.02,-1597.03l0 -279.39c0,-881.88 715.16,-1597.04 1597.03,-1597.04z"/>
  <path class="fil1 str4" d="M-107608.97 -65712.14c2307.7,-895.35 4450.56,-895.35 6429.11,0"/>
  <path class="fil1 str3" d="M-99128.28 -66930.81c289.45,-108.74 450.59,-34.93 483.13,221.19"/>
  <path class="fil1 str3" d="M-109855.55 -67077.39c-121.97,6.09 -218.02,68.79 -288.13,188.12"/>
  <path class="fil1 str3" d="M-93340.26 -57162.65c421.75,0 763.85,359.57 763.85,803.54"/>
  <path class="fil1 str3" d="M-116292.07 -56359.11c0,-443.97 342.11,-803.54 763.85,-803.54"/>
  <path class="fil0 str3" d="M-107608.97 -65712.14c2143.13,965.46 4286.25,965.46 6429.11,0 -1978.55,-895.35 -4121.41,-895.35 -6429.11,0z"/>
  <path class="fil2 str3" d="M-101179.86 -65712.14c-2142.86,965.46 -4285.99,965.46 -6429.11,0 -748.77,-337.08 -1497.54,-792.43 -2246.58,-1365.25 -121.97,6.09 -218.02,68.79 -288.13,188.12l0 8129.59c0,878.15 -718.61,1597.03 -1596.76,1597.03l-3787.78 0c-421.75,0 -763.85,359.57 -763.85,803.54l0 2917.56c174.89,-106.36 379.94,-168.01 598.75,-168.01l8969.9 0c293.42,-341.58 728.13,-558.8 1211,-558.8l860.95 0 0 -10660.06c0,-87.84 71.7,-159.54 159.54,-159.54 87.84,0 159.54,71.7 159.54,159.54l0 10660.06 1215.5 0c483.13,0 917.84,217.22 1211.26,558.8l8600.28 0c275.7,0 529.43,97.63 728.93,259.82l0 -3009.37c0,-443.97 -342.11,-803.54 -763.85,-803.54l-3707.87 0c-878.42,0 -1597.03,-718.87 -1597.03,-1597.03l0 -7949.94c-32.54,-256.12 -193.68,-329.94 -483.13,-221.19 -683.95,504.56 -1367.63,910.7 -2051.58,1218.67l0.02 0z"/>
  <path class="fil2 str3" d="M-104332.37 -50694.91l0 2375.43 1295.4 0c492.39,0 934.51,225.95 1228.2,578.91l8503.44 0c275.7,0 529.43,97.63 728.93,259.82l0 -4072.73c-199.5,162.19 -453.23,259.56 -728.93,259.56l-8566.94 0c-293.42,364.6 -742.95,599.02 -1244.6,599.02l-1215.5 0 0 -0.01z"/>
  <path class="fil3 str3" d="M-106660.44 -45424.68l-9032.87 0c-218.81,0 -423.86,-61.65 -598.75,-168.01l0 2723.09c0,878.42 718.61,1597.03 1597.03,1597.03l10203.13 0c-87.84,0 -159.54,-71.7 -159.54,-159.54l0 -3413.65 -781.05 0c-492.39,0 -934.51,-225.95 -1227.93,-578.91l-0.02 -0.01z"/>
  <path class="fil2 str3" d="M-104332.37 -44845.77l0 3413.65c0,87.84 -71.7,159.54 -159.54,159.54l10318.49 0c878.15,0 1597.03,-718.61 1597.03,-1597.03l0 -2814.9c-199.5,162.19 -453.23,259.82 -728.93,259.82l-8503.44 0c-293.69,352.95 -735.81,578.91 -1228.2,578.91l-1295.4 0 -0.01 0.01z"/>
  <path class="fil2 str3" d="M-104651.46 -41432.12l0 -3413.65 -781.05 0c-492.39,0 -934.51,-225.95 -1227.93,-578.91l-9032.87 0c-218.81,0 -423.86,-61.65 -598.75,-168.01l0 2723.09c0,878.42 718.61,1597.03 1597.03,1597.03l10203.13 0c-87.84,0 -159.54,-71.7 -159.54,-159.54l-0.02 -0.01z"/>
  <path class="fil1 str3" d="M-74629.54 -9895.67l0 -17653.25c0,-646.38 528.9,-1175.28 1175.28,-1175.28l8018.98 0c646.38,0 1175.54,528.9 1175.54,1175.28l0 9714.71m-1175.54 12535.68l-1739.64 0"/>
  <path class="fil1 str3" d="M-61928.76 -14492.8l1181.63 0c2528.36,0 4597.14,2068.78 4597.14,4597.14 0,2528.62 -2068.78,4597.14 -4597.14,4597.14l-6427.79 0"/>
  <path class="fil1 str3" d="M-64259.74 -18099.59c-33.34,2482.31 849.58,3684.58 2649.01,3606.79"/>
  <path class="fil1 str3" d="M-64259.74 -22155.12l0 -5393.8c0,-646.38 -529.17,-1175.28 -1175.54,-1175.28l-8018.98 0c-646.38,0 -1175.28,528.9 -1175.28,1175.28l0 11962.33"/>
  <path class="fil1 str3" d="M-67174.91 -5298.53l6427.79 0c2528.36,0 4597.14,-2068.51 4597.14,-4597.14 0,-2528.36 -2068.78,-4597.14 -4597.14,-4597.14l-863.6 0c-109.27,4.76 -215.37,4.76 -318.03,0 -1524,-70.11 -2301.08,-1184.01 -2330.98,-3341.41 -1.32,-86.78 -1.32,-175.15 0,-265.38l0 -4055.53m-10369.81 6568.54l0 5690.92"/>
  <path class="fil1 str3" d="M-70749.69 -5298.53l-1981.46 0c-212.73,0 -417.78,-35.45 -609.34,-100.81m-1289.05 -1797.58l0 -3645.43"/>
  <path class="fil1 str3" d="M-67174.91 -5298.53l6427.79 0c2528.36,0 4597.14,-2068.51 4597.14,-4597.14 0,-2528.36 -2068.78,-4597.14 -4597.14,-4597.14l-863.6 0c-109.27,4.76 -215.37,4.76 -318.03,0 -1524,-70.11 -2301.08,-1184.01 -2330.98,-3341.41 -1.32,-86.78 -1.32,-175.15 0,-265.38l0 -4055.53"/>
  <line class="fil1 str3" x1="-74629.54" y1="-7641.42" x2="-56744.51" y2= "-7641.42" />
  <path class="fil1 str3" d="M-74629.54 -17553.76c1909.76,-869.95 2915.18,-2921 3016.25,-6153.41l7177.34 -4458.76"/>
  <path class="fil4 str3" d="M-74629.54 -17553.76c1909.76,-869.95 2915.18,-2921 3016.25,-6153.41l7177.34 -4458.76c-207.96,-334.43 -578.64,-558.27 -999.33,-558.27l-8018.98 0c-646.38,0 -1175.28,528.9 -1175.28,1175.28l0 9995.16z"/>
  <path class="fil2 str3" d="M-71613.29 -23707.17c-101.07,3232.41 -1106.49,5283.46 -3016.25,6153.41l0 6711.41 0 946.68 0 2254.25 17885.03 0c378.35,-667.01 594.52,-1436.69 594.52,-2254.25 0,-2528.36 -2068.78,-4597.14 -4597.14,-4597.14l-863.6 0c-109.27,4.76 -215.37,4.76 -318.03,0 -1524,-70.11 -2301.08,-1184.01 -2330.98,-3341.41 -1.32,-86.78 -1.32,-175.15 0,-265.38l0 -9449.33c0,-225.69 -64.82,-437.36 -176.21,-617.01l-7177.34 4458.76 0 0.01z"/>
  <path class="fil1 str3" d="M-70749.69 -5298.53c-22.75,-123.56 -34.66,-251.62 -34.66,-382.59 0,-1082.68 815.71,-1960.3 1821.92,-1960.3 1006.47,0 1822.18,877.62 1822.18,1960.3 0,130.97 -11.91,259.03 -34.66,382.59"/>
  <path class="fil1 str3" d="M-73340.49 -5399.34c191.56,65.35 396.61,100.81 609.34,100.81l1981.46 0c-22.75,-123.56 -34.66,-251.62 -34.66,-382.59 0,-1082.68 815.71,-1960.3 1821.92,-1960.3l-5667.11 0 0 444.5"/>
  <path class="fil4 str3" d="M-68962.43 -7641.42c1006.47,0 1822.18,877.62 1822.18,1960.3 0,130.97 -11.91,259.03 -34.66,382.59l6427.79 0c1710.8,0 3211.25,-946.94 4002.62,-2342.89l-12217.92 0 -0.01 0z"/>
  <polygon class="fil5 str5" points="-78089.23,-6469.84 -69034.66,-6469.84 -69034.66,-8852.15 -78089.23,-8852.15 "/>
  <path class="fil1 str3" d="M-80811 -9895.67l0 -17653.25c0,-646.38 528.9,-1175.28 1175.54,-1175.28l8018.73 0c646.64,0 1175.54,528.9 1175.54,1175.28l0 9714.71m-1175.54 12535.68l-1739.64 0"/>
  <path class="fil1 str3" d="M-68110.22 -14492.8l1181.63 0c2528.36,0 4597.14,2068.78 4597.14,4597.14 0,2528.62 -2068.78,4597.14 -4597.14,4597.14l-6427.78 0"/>
  <path class="fil1 str3" d="M-70441.19 -18099.59c-33.34,2482.31 849.58,3684.58 2649,3606.79"/>
  <path class="fil1 str3" d="M-70441.19 -22155.12l0 -5393.8c0,-646.38 -528.9,-1175.28 -1175.54,-1175.28l-8018.73 0c-646.64,0 -1175.54,528.9 -1175.54,1175.28l0 11962.33"/>
  <path class="fil1 str3" d="M-73356.36 -5298.53l6427.78 0c2528.36,0 4597.14,-2068.51 4597.14,-4597.14 0,-2528.36 -2068.78,-4597.14 -4597.14,-4597.14l-863.6 0c-109.27,4.76 -215.37,4.76 -318.03,0 -1523.99,-70.11 -2301.07,-1184.01 -2330.97,-3341.41 -1.32,-86.78 -1.32,-175.15 0,-265.38l0 -4055.53m-10369.82 6568.54l0 5690.92"/>
  <path class="fil1 str3" d="M-76931.15 -5298.53l-1981.2 0c-1044.31,0 -1898.65,-854.34 -1898.65,-1898.39l0 -3645.43"/>
  <path class="fil1 str3" d="M-73356.36 -5298.53l6427.78 0c2528.36,0 4597.14,-2068.51 4597.14,-4597.14 0,-2528.36 -2068.78,-4597.14 -4597.14,-4597.14l-863.6 0c-109.27,4.76 -215.37,4.76 -318.03,0 -1523.99,-70.11 -2301.07,-1184.01 -2330.97,-3341.41 -1.32,-86.78 -1.32,-175.15 0,-265.38l0 -4055.53"/>
  <line class="fil1 str3" x1="-80811" y1="-7641.42" x2="-62925.97" y2= "-7641.42" />
  <path class="fil1 str3" d="M-80811 -17553.76c1909.76,-869.95 2915.18,-2921 3016.25,-6153.41l7177.35 -4458.76"/>
  <path class="fil4 str3" d="M-80811 -17553.76c1909.76,-869.95 2915.18,-2921 3016.25,-6153.41l7177.35 -4458.76c-207.7,-334.43 -578.64,-558.27 -999.33,-558.27l-8018.73 0c-646.64,0 -1175.54,528.9 -1175.54,1175.28l0 9995.16z"/>
  <path class="fil2 str3" d="M-77794.75 -23707.17c-101.07,3232.41 -1106.49,5283.46 -3016.25,6153.41l0 6711.41 0 946.68 0 2254.25 17885.03 0c378.35,-667.01 594.52,-1436.69 594.52,-2254.25 0,-2528.36 -2068.78,-4597.14 -4597.14,-4597.14l-863.6 0c-109.27,4.76 -215.37,4.76 -318.03,0 -1523.99,-70.11 -2301.07,-1184.01 -2330.97,-3341.41 -1.32,-86.78 -1.32,-175.15 0,-265.38l0 -9449.33c0,-225.69 -64.56,-437.36 -176.21,-617.01l-7177.35 4458.76 0 0.01z"/>
  <path class="fil1 str3" d="M-76931.15 -5298.53c-22.75,-123.56 -34.66,-251.62 -34.66,-382.59 0,-1082.68 815.71,-1960.3 1821.92,-1960.3 1006.48,0 1822.19,877.62 1822.19,1960.3 0,130.97 -11.91,259.03 -34.66,382.59"/>
  <path class="fil4 str3" d="M-76931.15 -5298.53c-22.75,-123.56 -34.66,-251.62 -34.66,-382.59 0,-1082.68 815.71,-1960.3 1821.92,-1960.3l-5667.11 0 0 444.5c0,1044.05 854.34,1898.39 1898.65,1898.39l1981.2 0z"/>
  <path class="fil4 str3" d="M-75143.89 -7641.42c1006.48,0 1822.19,877.62 1822.19,1960.3 0,130.97 -11.91,259.03 -34.66,382.59l6427.78 0c1710.8,0 3211.25,-946.94 4002.62,-2342.89l-12217.92 0 -0.01 0z"/>
  <path class="fil1 str3" d="M-105941.58 -10287.24c0,-2648.66 -2147.17,-4795.83 -4795.83,-4795.83 -2648.66,0 -4795.83,2147.17 -4795.83,4795.83 0,2648.66 2147.17,4795.83 4795.83,4795.83 2648.66,0 4795.83,-2147.17 4795.83,-4795.83z"/>
  <path class="fil1 str3" d="M-105083 -9265.68c-482.07,2685.52 -2830.25,4723.34 -5654.41,4723.34 -2790.83,0 -5117.04,-1990.2 -5636.42,-4628.89m0 -2232.29c519.64,-2638.43 2845.59,-4628.62 5636.42,-4628.62 2930.26,0 5348.29,2193.93 5700.71,5028.94"/>
  <path class="fil1 str3" d="M-93347.68 -10287.24c0,-2648.66 -2147.17,-4795.83 -4795.83,-4795.83 -2648.66,0 -4795.83,2147.17 -4795.83,4795.83 0,2648.66 2147.17,4795.83 4795.83,4795.83 2648.66,0 4795.83,-2147.17 4795.83,-4795.83z"/>
  <path class="fil1 str3" d="M-103844.22 -11003.2c352.42,-2835.01 2770.18,-5028.94 5700.7,-5028.94 2857.24,0 5227.11,2085.98 5670.29,4817.8m0 1853.93c-443.18,2732.09 -2813.05,4818.06 -5670.29,4818.06 -2825.75,0 -5174.99,-2040.2 -5655.19,-4727.84"/>
  <path class="fil1 str3" d="M-105084.58 -9264.1c394.76,-375.18 825.76,-375.18 1293.55,0"/>
  <path class="fil1 str3" d="M-105036.69 -11003.2c399.52,316.71 796.93,316.71 1192.48,0"/>
  <path class="fil1 str3" d="M-92473.23 -11214.34c65.35,-232.04 279.4,-403.23 531.55,-403.23 303.74,0 552.19,248.18 552.19,551.92l0 1556.54c0,303.74 -248.44,552.19 -552.19,552.19 -252.15,0 -466.2,-171.45 -531.55,-403.49"/>
  <path class="fil1 str3" d="M-116373.82 -9171.23c-101.07,130.18 -259.29,214.31 -436.03,214.31 -303.48,0 -551.92,-248.44 -551.92,-552.19l0 -1556.54c0,-303.74 248.44,-551.92 551.92,-551.92 176.74,0 334.96,83.87 436.03,214.05"/>
  <path class="fil1 str3" d="M-114219.06 -18046.4l19632.08 0c1829.04,-0.01 3312.32,231.74 3312.32,517.5l-0.01 0.01c0.01,285.76 -1483.27,517.51 -3312.31,517.51l-19632.08 0.02c-1829.03,-0.02 -3312.31,-231.77 -3312.31,-517.54l-0.01 0.01c0.01,-285.77 1483.29,-517.52 3312.33,-517.52z"/>
  <path class="fil1 str3" d="M-116810.12 -18046.4c-21.96,-300.57 -33.07,-604.04 -33.07,-910.17 0,-5942.01 4178.56,-10907.98 9757.57,-12120.03m806.18 -147.37c451.64,-66.94 911.23,-109.8 1377.16,-127m806.18 -3.71c465.93,12.7 925.5,51.06 1377.41,114.04m805.92 139.17c5637.74,1167.08 9875.31,6161.35 9875.31,12144.9 0,306.12 -11.11,609.6 -33.07,910.17"/>
  <path class="fil1 str3" d="M-104499.19 -31776.95l0 0c222.58,0 403.09,1204.2 403.09,2689.09l0 0c0,1484.89 -180.51,2689.09 -403.09,2689.09l0 0c-222.57,0 -403.08,-1204.2 -403.08,-2689.09l-0.02 0c0.02,-1484.89 180.53,-2689.09 403.1,-2689.09z"/>
  <path class="fil1 str3" d="M-106682.53 -31776.95l0 0c222.59,0 403.1,948.22 403.1,2117.46l-0.01 0c0.01,1169.24 -180.5,2117.46 -403.08,2117.46l-0.01 0c-222.57,0 -403.08,-948.22 -403.08,-2117.46l-0.02 0c0.02,-1169.24 180.53,-2117.46 403.11,-2117.46z"/>
  <path class="fil1 str3" d="M-102315.6 -31776.95l0 0c222.58,0 403.09,948.22 403.09,2117.46l0.01 0c-0.01,1169.24 -180.52,2117.46 -403.1,2117.46l0 0c-222.58,0 -403.09,-948.22 -403.09,-2117.46l0 0c0,-1169.24 180.51,-2117.46 403.09,-2117.46z"/>
  <path class="fil2 str6" d="M-110737.41 -5491.4c-2648.74,0 -4795.84,-2147.09 -4795.84,-4795.84 0,-2648.74 2147.09,-4796.1 4795.84,-4796.1 2648.74,0 4795.84,2147.36 4795.84,4796.1 0,2648.74 -2147.09,4795.84 -4795.84,4795.84zm0 949.06c2824.16,0 5172.34,-2037.82 5654.41,-4723.34 392.11,-371.48 820.21,-373.06 1284.29,-4.5 480.21,2687.64 2829.44,4727.84 5655.19,4727.84 2857.24,0 5227.11,-2085.98 5670.29,-4818.06 65.35,232.04 279.4,403.49 531.55,403.49 303.74,0 552.19,-248.44 552.19,-552.19l0 -1556.54c0,-303.74 -248.44,-551.92 -552.19,-551.92 -252.15,0 -466.2,171.19 -531.55,403.23 -443.18,-2731.82 -2813.05,-4817.8 -5670.29,-4817.8 -2930.53,0 -5348.29,2193.93 -5700.7,5028.94 -395.55,316.71 -792.96,316.71 -1192.48,0 -352.43,-2835.01 -2770.45,-5028.94 -5700.71,-5028.94 -2790.83,0 -5116.78,1990.2 -5636.42,4628.62 -101.07,-130.18 -259.29,-214.05 -436.03,-214.05 -303.48,0 -551.92,248.18 -551.92,551.92l0 1556.54c0,303.74 248.44,552.19 551.92,552.19 176.74,0 334.96,-84.14 436.03,-214.31 519.38,2638.69 2845.59,4628.89 5636.42,4628.89l0 -0.01zm7797.79 -5744.9c0,-2648.74 2147.36,-4796.1 4796.1,-4796.1 2648.48,0 4795.84,2147.36 4795.84,4796.1 0,2648.74 -2147.36,4795.84 -4795.84,4795.84 -2648.74,0 -4796.1,-2147.09 -4796.1,-4795.84z"/>
  <path class="fil4 str3" d="M-117013.85 -17011.36l25221.66 0c284.69,0 517.53,-232.83 517.53,-517.53 0,-284.68 -232.83,-517.52 -517.53,-517.52l-278.34 0 -24739.59 0 -203.73 0c-284.69,0 -517.53,232.83 -517.53,517.52 0,284.69 232.83,517.53 517.53,517.53z"/>
  <path class="fil0 str3" d="M-116810.12 -18046.4l24739.59 0c21.96,-300.57 33.07,-604.04 33.07,-910.17 0,-5983.55 -4237.57,-10977.83 -9875.31,-12144.9l0 3156.21c0,221.72 -181.24,402.96 -402.96,402.96 -221.72,0 -402.96,-181.24 -402.96,-402.96l0 -3295.39c-451.91,-62.97 -911.48,-101.34 -1377.41,-114.04l0 4552.69c0,221.72 -181.24,402.96 -402.96,402.96 -221.72,0 -403.23,-181.24 -403.23,-402.96l0 -4548.98c-465.93,17.2 -925.51,60.06 -1377.16,127l0 3278.72c0,221.72 -181.5,402.96 -403.23,402.96 -221.72,0 -402.96,-181.24 -402.96,-402.96l0 -3131.34c-5579,1212.06 -9757.57,6178.02 -9757.57,12120.03 0,306.12 11.11,609.6 33.07,910.17l0.02 0z"/>
  <path class="fil6 str7" d="M-92070.53 -18046.4c21.96,-300.57 33.07,-604.04 33.07,-910.17 0,-5983.55 -4237.57,-10977.83 -9875.31,-12144.9l0 3156.21c0,221.72 -181.24,402.96 -402.96,402.96 -221.72,0 -402.96,-181.24 -402.96,-402.96l0 -3295.65c-451.91,-62.71 -911.48,-101.07 -1377.41,-113.77l0 4552.69c0,221.72 -181.24,402.96 -402.96,402.96 -221.72,0 -403.23,-181.24 -403.23,-402.96l0 -4548.98c-465.93,17.2 -925.51,60.06 -1377.16,127l0 3278.72c0,221.72 -181.5,402.96 -403.23,402.96 -221.72,0 -402.96,-181.24 -402.96,-402.96l0 -3131.34c-5579,1212.06 -9757.57,6178.02 -9757.57,12120.03 0,306.12 11.11,609.6 33.07,910.17l24739.59 0 0.02 -0.01z"/>
  <path class="fil2 str8" d="M-92037.46 -18956.57c0,-5983.55 -4237.57,-10977.83 -9875.31,-12144.9l0 1365.23c0.17,25.47 0.26,51.06 0.27,76.75 0,26.15 -0.09,52.19 -0.27,78.11l0 1636.12c0,219.25 -177.22,398.92 -395.56,402.89 -2.42,0.23 -4.84,0.34 -7.27,0.34 -2.41,0 -4.81,-0.11 -7.2,-0.33 -218.49,-3.81 -395.89,-183.54 -395.89,-402.9l0 -1714.23 0 -1581.16c-311.99,-43.47 -627.63,-75.22 -946.49,-94.89 -143,-8.82 -286.66,-15.21 -430.92,-19.14l0 2266.82 0 2285.87c0,219.72 -177.98,399.68 -396.97,402.92 -2.03,0.2 -4.08,0.3 -6.12,0.3 -2.06,0 -4.12,-0.1 -6.17,-0.31 -218.85,-3.39 -396.93,-183.29 -396.93,-402.91l0 -2285.87 0 -2263.11c-465.93,17.2 -925.51,60.06 -1377.16,127l0 1543.17c0.01,7.1 0.02,14.2 0.01,21.31 0,5.06 0,10.12 -0.01,15.17l0 1699.07c0,219.28 -177.53,398.97 -395.93,402.89 -2.38,0.22 -4.76,0.33 -7.15,0.33 -2.36,0 -4.71,-0.11 -7.06,-0.32 -218.57,-3.72 -396.05,-183.49 -396.05,-402.9l0 -1714.24 0 -1417.1c-5579,1212.06 -9757.57,6178.02 -9757.57,12120.03 0,306.12 11.11,609.6 33.07,910.17l2561.67 0c9.8,-0.01 19.6,-0.02 29.41,-0.01l19632.08 0c6.98,0 13.95,0 20.92,0.01l2495.53 -0.01c21.96,-300.57 33.07,-604.04 33.07,-910.17z"/>
  <path class="fil0 str3" d="M-105432.5 -54188.48l2395.53 0c881.87,0 1597.03,715.15 1597.03,1597.02l0 279.41c0,881.86 -715.16,1597.02 -1597.03,1597.02l-2395.53 0c-881.86,0 -1597.02,-715.16 -1597.02,-1597.03l-0.01 -279.39c0.01,-881.88 715.17,-1597.03 1597.04,-1597.03z"/>
  <g id="_2691899490384">
   <path class="fil1 str6" d="M-88000.77 -89590.2c1644.12,-3005.4 5273.41,-4514.06 8632.3,-3396.46 3775.08,1255.98 5836.18,5372.36 4580.2,9147.44l-3673.48 11041.33c-1255.98,3775.08 -5372.36,5836.18 -9147.44,4580.2 -3775.08,-1255.98 -5836.18,-5372.36 -4580.2,-9147.44l353.75 -1063.89"/>
   <path class="fil1 str6" d="M-87286.13 -89097.02c1474.79,-2609.06 4653.76,-3908.95 7598.04,-2929.47 3341.95,1111.78 5166.25,4755.62 4054.48,8097.31l-3617.65 10873.32c-1111.78,3341.95 -4755.36,5166.25 -8097.31,4054.48 -3341.69,-1111.78 -5165.99,-4755.62 -4054.21,-8097.31l341.31 -1026.58"/>
   <path class="fil1 str6" d="M-89103.02 -79574.66c-14.82,89.69 -36.78,179.65 -66.41,268.55 -304.8,915.99 -1294.34,1411.55 -2210.33,1106.75 -915.99,-304.8 -1411.55,-1294.34 -1106.75,-2210.33 304.8,-915.99 1294.34,-1411.29 2210.33,-1106.75 183.89,61.38 350.84,150.02 497.68,260.35"/>
   <path class="fil2 str6" d="M-89435.31 -81394.29l2564.29 -1032.62c1415.99,-570.2 2715.86,-656.26 2902.74,-192.18l-0.01 0.01c186.9,464.08 -809.86,1302.86 -2225.83,1873.06l-2564.31 1032.62c-1415.97,570.2 -2715.83,656.25 -2902.71,192.17l-0.02 0.01c-186.87,-464.09 809.88,-1302.86 2225.86,-1873.07z"/>
   <path class="fil1 str6" d="M-88000.77 -89590.2c63.5,388.41 301.63,552.98 714.64,493.18"/>
   <path class="fil2 str6" d="M-90482.29 -79019.3c-462.23,186.27 -992.72,-39.69 -1178.98,-501.91 -186,-462.23 39.95,-992.72 502.18,-1178.98l1380.6 -555.89c-146.84,-110.33 -313.8,-198.97 -497.68,-260.35 -915.99,-304.54 -1905.53,190.76 -2210.33,1106.75 -249.24,749.56 37.04,1548.08 650.88,1980.67 136.53,96.31 289.19,174.36 455.88,229.66 105.57,35.19 212.2,59.8 318.29,74.08 816.5,110.86 1622.43,-370.42 1892.04,-1180.84 29.63,-88.9 51.59,-178.86 66.41,-268.55l-1379.27 555.36 -0.02 0z"/>
   <path class="fil2 str6" d="M-91661.28 -79521.22c186.27,462.23 716.76,688.18 1178.98,501.91l1379.27 -555.36 4167.45 -1678.25 465.4 -187.33c462.23,-186.27 687.92,-716.49 501.91,-1178.98 -186.27,-462.23 -716.49,-687.92 -1178.98,-501.91l-631.56 254.26 -3999.71 1610.78 -1380.6 555.89c-462.23,186.27 -688.18,716.76 -502.18,1178.98l0.02 0.01z"/>
   <path class="fil2 str8" d="M-92189.39 -77365.13c-1255.98,3775.08 805.12,7891.46 4580.2,9147.44 3775.08,1255.98 7891.46,-805.12 9147.44,-4580.2l3673.48 -11041.33c1255.98,-3775.08 -805.12,-7891.46 -4580.2,-9147.44 -3358.89,-1117.6 -6988.18,391.06 -8632.3,3396.46 63.5,388.41 301.63,552.98 714.64,493.18 1474.79,-2609.06 4653.76,-3908.95 7598.04,-2929.47 3341.95,1111.78 5166.25,4755.62 4054.48,8097.31l-3617.65 10873.32c-1111.78,3341.95 -4755.36,5166.25 -8097.31,4054.48 -3341.69,-1111.78 -5165.99,-4755.62 -4054.21,-8097.31l341.33 -1026.58c-106.09,-14.28 -212.72,-38.89 -318.29,-74.08 -166.69,-55.3 -319.35,-133.35 -455.9,-229.67l-353.75 1063.89z"/>
  </g>
  <path class="fil1 str9" d="M8559.92 4575.62c0,2274.7 -1844.02,4118.72 -4118.72,4118.72 -2274.71,0 -4118.72,-1844.02 -4118.72,-4118.72 0,-2274.71 1844.01,-4118.72 4118.72,-4118.72 798.58,0 1544.08,227.28 2175.35,620.68"/>
  <path class="fil1 str9" d="M7753.14 4575.62c0,1829.13 -1482.81,3311.93 -3311.94,3311.93 -1829.15,0 -3311.95,-1482.8 -3311.95,-3311.93 0,-1829.15 1482.8,-3311.95 3311.95,-3311.95 642.15,0 1241.64,182.76 1749.24,499.09"/>
  <path class="fil1 str9" d="M7145.8 4575.62c0,1493.7 -1210.89,2704.6 -2704.6,2704.6 -1493.73,0 -2704.62,-1210.9 -2704.62,-2704.6 0,-1493.72 1210.89,-2704.62 2704.62,-2704.62 524.4,0 1013.95,149.25 1428.47,407.58"/>
  <path class="fil1 str9" d="M6498.51 4575.61c0,1136.22 -921.1,2057.32 -2057.32,2057.32 -1136.21,0 -2057.31,-921.1 -2057.31,-2057.32 0,-1136.21 921.1,-2057.31 2057.31,-2057.31 398.9,0 771.28,113.53 1086.6,310.04"/>
  <path class="fil7 str9" d="M7753.14 4575.62c0,1829.13 -1482.81,3311.93 -3311.94,3311.93 -1829.15,0 -3311.95,-1482.8 -3311.95,-3311.93 0,-1829.15 1482.8,-3311.95 3311.95,-3311.95 642.15,0 1241.64,182.76 1749.24,499.09l426.11 -685.18c-631.27,-393.4 -1376.77,-620.68 -2175.35,-620.68 -2274.71,0 -4118.72,1844.01 -4118.72,4118.72 0,2274.7 1844.01,4118.72 4118.72,4118.72 2274.7,0 4118.72,-1844.02 4118.72,-4118.72l-806.78 0z"/>
  <path class="fil8 str9" d="M4441.2 7280.22c1493.71,0 2704.6,-1210.9 2704.6,-2704.6l-647.29 -0.01c0,1136.22 -921.1,2057.32 -2057.32,2057.32 -1136.21,0 -2057.31,-921.1 -2057.31,-2057.32 0,-1136.21 921.1,-2057.31 2057.31,-2057.31 398.9,0 771.28,113.53 1086.6,310.04l341.88 -549.76c-414.52,-258.33 -904.07,-407.58 -1428.47,-407.58 -1493.73,0 -2704.62,1210.9 -2704.62,2704.62 0,1493.7 1210.89,2704.6 2704.62,2704.6z"/>
  <path class="fil8 str9" d="M4441.2 7887.55c-1829.15,0 -3311.95,-1482.8 -3311.95,-3311.93 0,-1829.15 1482.8,-3311.95 3311.95,-3311.95 642.15,0 1241.64,182.76 1749.24,499.09l426.11 -685.18c-631.27,-393.4 -1376.77,-620.68 -2175.35,-620.68 -2274.71,0 -4118.72,1844.01 -4118.72,4118.72 0,2274.7 1844.01,4118.72 4118.72,4118.72 2274.7,0 4118.72,-1844.02 4118.72,-4118.72l-806.78 0c0,1829.13 -1482.81,3311.93 -3311.94,3311.93z"/>
  <path class="fil9 str10" d="M8112.78 2389.04c-3,12.29 -69.61,47.84 -84.77,57.03l-264.22 160.47c-33.47,19 -326.33,203.68 -350.82,209l50.41 -207.41c55.81,-230.83 11.17,-156.14 184.53,-265.93 76.18,-48.25 542.1,-331.93 557.71,-334.82l-92.84 381.66zm485.18 265.42c-14.49,15.04 -72.45,44.67 -94.73,59.54 -125.89,83.96 -341.73,205.15 -479.21,291.62 -33.56,21.11 -66.85,39.18 -98.19,59.01 -25.87,16.38 -21.53,16.45 -61.34,6.28 -101.12,-25.84 -255.3,-58.83 -348.97,-85.96 13.35,-20.25 519.84,-318.11 621.07,-382.08 23.45,-14.81 59.38,-47.1 95.78,-38.15l365.59 89.74zm-4086.36 1782.68c23.46,-6.05 128.41,26.12 155.2,32.58 47.13,11.37 105.27,22.36 152.16,38.43l-74.67 303.43 -12.36 2.13 -444.21 14.45 223.88 -391.02zm3833.4 -2187.11c18.4,-84.97 41.5,-171.08 62.2,-255.72 16.2,-66.23 60.74,-185.13 33.46,-236.35 -42.48,-79.72 -115.72,-52.16 -171.78,-18.08l-786.1 477.36c-36.8,22.09 -129.56,65.81 -148.68,115.59 -28.85,75.12 -138.79,597.39 -156.5,625.28l-1021.89 624.86c-28.67,17.28 -48.69,28.28 -78.28,47.67 -24.6,16.12 -52.34,33.42 -78.8,46.6l-315.88 192.95c-50.91,31.09 -102.28,63.11 -156.38,95.43 -112.7,67.34 -286.8,168.93 -394.65,239.78l-156.79 94.65c-21.92,12.59 -18.23,10.48 -38.54,24.82 -18.98,13.41 -21.74,9.49 -51.04,2.06 -83.49,-21.15 -168.09,-41.79 -251.9,-61.73 -80.07,-19.06 -171.27,-59.16 -226.23,-17.82 -32.49,24.45 -263.74,447.85 -318.24,542.23 -33.58,58.16 -90.28,127.83 -52.91,192.19 37.7,64.95 130.4,45.58 199.7,42.56 71.3,-3.12 139.99,-5.07 209.63,-8.41 487.17,-23.37 436.54,39.95 503.97,-238.8 20.3,-83.94 40.27,-168.4 61.08,-252.16 10.49,-42.23 39.4,-48.25 66.45,-64.39l1810.18 -1099.5c105.8,-64.62 207.38,-125.35 313.41,-189.68 20.22,-12.26 61.83,-45.56 84.11,-44.21 38.5,2.34 561.72,145.99 628.04,150.92 40.24,2.99 62.46,-18.41 86.94,-33.33l707.85 -429.8c41.74,-25.31 212.29,-115.82 230.3,-158.33 58.24,-137.48 -149.5,-153.99 -240.35,-176.08 -82.28,-20 -169.38,-38.94 -250.46,-61.69 13.17,-18.48 157.84,-99.86 188.93,-118.8 50.52,-30.8 169.67,-79.42 107.82,-176.92 -21.68,-34.16 -62.03,-54.86 -110.8,-41.31 -29,8.05 -264.84,164.34 -287.87,168.16z"/>
  <polygon class="fil10" points="25154.05,837.51 25154.05,-2321.27 26112.13,-2321.27 26678.3,-166.89 27237.85,-2321.27 28198.13,-2321.27 28198.13,837.51 27606.96,837.51 27604.76,-1649.22 26981.97,837.51 26367.27,837.51 25747.43,-1649.22 25745.22,837.51 "/>
  <path id="1" class="fil10" d="M28833.41 -1760.99l0 -560.28 604.41 0 0 560.28 -604.41 0zm0 2598.5l0 -2289.68 604.41 0 0 2289.68 -604.41 0z"/>
  <path id="2" class="fil10" d="M29842.96 193.4l608.82 -92.65c25.73,116.91 77.94,205.88 157.35,266.18 78.67,61.03 189.7,91.17 331.61,91.17 156.62,0 274.26,-28.67 353.67,-86.03 52.94,-40.44 79.41,-94.85 79.41,-162.49 0,-45.59 -14.7,-83.83 -43.38,-113.97 -30.15,-28.68 -97.79,-55.88 -202.2,-80.15 -488.97,-108.09 -798.52,-206.61 -929.4,-295.58 -181.62,-124.27 -272.06,-296.32 -272.06,-516.17 0,-199.27 78.68,-366.18 235.29,-501.47 156.62,-135.29 399.26,-202.94 727.94,-202.94 313.23,0 546.31,51.47 698.52,153.68 152.2,102.94 257.35,254.41 314.7,455.14l-569.11 105.88c-24.27,-89.7 -71.33,-158.82 -139.71,-206.61 -68.38,-47.8 -166.17,-71.33 -293.38,-71.33 -160.29,0 -274.99,22.06 -344.84,66.91 -46.33,31.62 -69.12,72.8 -69.12,122.8 0,43.38 19.85,80.14 60.29,110.29 55.15,40.44 244.12,97.06 567.64,170.59 323.53,73.52 549.26,163.23 677.2,269.84 127.2,107.36 190.44,258.09 190.44,450.73 0,209.56 -87.5,390.44 -263.23,541.17 -175,150.74 -434.56,226.47 -778.67,226.47 -311.76,0 -558.82,-63.23 -741.17,-188.97 -181.61,-125.73 -300.73,-296.32 -356.61,-512.49z"/>
  <path id="3" class="fil10" d="M32512.78 -1760.99l0 -560.28 604.41 0 0 560.28 -604.41 0zm0 2598.5l0 -2289.68 604.41 0 0 2289.68 -604.41 0z"/>
  <path id="4" class="fil10" d="M33597.33 -335.27c0,-201.47 49.26,-396.32 148.53,-584.55 99.26,-188.97 239.7,-332.35 421.31,-431.61 181.62,-99.27 383.82,-149.27 608.08,-149.27 346.32,0 629.41,112.5 850.73,337.5 221.32,225.73 331.61,509.55 331.61,853.67 0,347.05 -111.76,634.55 -334.55,862.48 -223.53,227.94 -504.41,341.91 -843.37,341.91 -209.56,0 -409.56,-47.79 -600,-142.64 -189.7,-94.85 -334.55,-233.82 -433.81,-417.64 -99.27,-183.09 -148.53,-406.62 -148.53,-669.85zm622.05 32.35c0,227.21 53.68,401.47 161.03,522.06 108.08,121.32 240.44,181.61 398.52,181.61 157.35,0 289.7,-60.29 396.32,-181.61 106.62,-120.59 160.29,-296.32 160.29,-526.47 0,-224.26 -53.67,-397.05 -160.29,-517.64 -106.62,-121.32 -238.97,-181.61 -396.32,-181.61 -158.08,0 -290.44,60.29 -398.52,181.61 -107.35,120.59 -161.03,294.85 -161.03,522.05zm282.35 -1444.83l300 -644.11 674.99 0 -595.58 644.11 -379.41 0z"/>
  <path id="5" class="fil10" d="M38515.65 837.51l-604.4 0 0 -1166.9c0,-247.05 -13.24,-406.61 -38.97,-478.67 -26.47,-72.79 -68.39,-128.67 -127.21,-169.11 -58.82,-40.44 -129.41,-60.3 -211.76,-60.3 -105.88,0 -200.73,28.68 -284.56,86.03 -84.55,57.35 -141.91,133.82 -172.79,227.94 -31.62,94.85 -47.06,269.85 -47.06,525.73l0 1035.28 -604.4 0 0 -2289.68 560.29 0 0 336.03c200.73,-256.62 452.93,-384.56 758.08,-384.56 133.82,0 256.61,24.27 367.64,72.06 111.76,48.53 195.58,109.56 252.2,183.82 57.35,75 97.06,159.56 119.12,254.41 22.79,94.85 33.82,230.15 33.82,406.61l0 1421.31z"/>
  <polygon class="fil10" points="44062.86,-2338.9 44804.61,-2338.9 43631.83,1102.95 42957.8,1102.95 41793.79,-2338.9 42561.83,-2338.9 43309.16,274.36 "/>
  <path id="1" class="fil10" d="M45779.8 -1746.14l-674.03 0 0 -611.88 674.03 0 0 611.88zm-674.03 301.16l674.03 0 0 2547.93 -674.03 0 0 -2547.93z"/>
  <path id="2" class="fil10" d="M46940.63 290.29c14.34,118.71 44.62,203.17 91.62,253.36 82.86,89.23 235.83,133.85 459.71,133.85 130.67,0 235.04,-19.92 312.32,-58.96 77.28,-39.04 116.32,-97.2 116.32,-175.28 0,-74.89 -31.07,-132.25 -93.21,-171.29 -62.15,-39.04 -294,-105.97 -695.55,-200.78 -289.21,-71.7 -493.17,-160.94 -611.08,-268.5 -118.72,-105.16 -177.67,-258.13 -177.67,-456.52 0,-235.03 92.42,-436.6 277.26,-605.51 184.84,-168.11 444.57,-252.56 779.99,-252.56 317.89,0 577.63,62.94 777.6,189.62 199.98,126.68 315.51,345.78 344.99,656.5l-664.47 0c-9.56,-86.05 -33.47,-153.77 -72.5,-203.96 -73.3,-90.03 -198.39,-135.44 -375.26,-135.44 -145.01,0 -248.58,22.3 -310.72,67.72 -61.35,45.41 -92.42,97.99 -92.42,159.34 0,76.49 32.66,131.46 98.79,165.72 65.33,35.85 297.18,97.2 694.74,184.04 264.52,62.95 463.7,156.96 596.75,282.84 131.46,127.48 196.79,286.82 196.79,478.04 0,251.76 -94.01,458.11 -282.04,617.46 -188.03,159.34 -478.03,239.02 -871.62,239.02 -400.75,0 -696.33,-84.46 -887.55,-253.36 -191.21,-168.91 -286.82,-384.02 -286.82,-645.35l674.03 0z"/>
  <path id="3" class="fil10" d="M49766.61 -1746.14l-674.03 0 0 -611.88 674.03 0 0 611.88zm-674.03 301.16l674.03 0 0 2547.93 -674.03 0 0 -2547.93z"/>
  <path id="4" class="fil10" d="M51557.65 634.48c193.6,0 342.59,-69.32 446.96,-207.15 104.37,-138.63 156.16,-335.42 156.16,-590.38 0,-254.15 -51.79,-450.94 -156.16,-587.98 -104.37,-137.83 -253.36,-206.35 -446.96,-206.35 -194.4,0 -344.19,68.52 -449.35,206.35 -104.37,137.04 -156.96,333.83 -156.96,587.98 0,254.96 52.59,451.75 156.96,590.38 105.16,137.83 254.95,207.15 449.35,207.15zm1301.05 -799.92c0,372.87 -107.56,692.36 -321.88,956.87 -215.11,265.31 -540.97,397.57 -978.37,397.57 -437.41,0 -763.27,-132.26 -978.38,-397.57 -214.32,-264.51 -321.88,-584 -321.88,-956.87 0,-366.49 107.56,-684.38 321.88,-952.88 215.11,-268.5 540.97,-403.14 978.38,-403.14 437.4,0 763.26,134.64 978.37,403.14 214.32,268.5 321.88,586.39 321.88,952.88zm-501.94 -2321.65l-709.08 697.93 -481.22 0 448.55 -697.93 741.75 0z"/>
  <path id="5" class="fil10" d="M54746.94 -1502.34c262.13,0 476.44,69.31 642.96,207.15 166.52,138.63 250.17,366.49 250.17,685.98l0 1712.16 -683.59 0 0 -1546.44c0,-133.85 -17.53,-236.63 -53.38,-308.34 -64.53,-130.66 -188.82,-195.99 -371.27,-195.99 -223.88,0 -378.45,95.61 -461.31,286.82 -43.82,101.18 -65.33,230.25 -65.33,387.21l0 1376.74 -664.47 0 0 -2538.37 645.35 0 0 371.28c85.25,-131.46 165.72,-226.27 242.2,-283.64 136.24,-102.77 309.13,-154.56 518.67,-154.56z"/>
  <polygon class="fil10" points="61115.07,-2351.82 61865.86,-2351.82 60678.79,1131.97 59996.55,1131.97 58818.35,-2351.82 59595.75,-2351.82 60352.18,293.28 "/>
  <path id="1" class="fil10" d="M63416.64 -119.61c-42.75,26.61 -86.29,48.38 -130.65,64.51 -43.54,16.94 -104.03,32.26 -180.64,46.77l-153.22 28.23c-143.55,25 -245.96,55.64 -308.86,91.93 -105.65,62.1 -158.07,157.26 -158.07,287.09 0,115.32 32.26,198.38 96.78,250 64.51,50.8 143.54,76.61 236.28,76.61 146.77,0 282.25,-42.74 405.64,-128.23 123.38,-84.67 187.9,-240.31 192.74,-466.11l0 -250.8zm-411.29 -313.71c125,-16.13 214.52,-35.48 268.55,-59.67 96.77,-40.32 145.15,-104.84 145.15,-191.13 0,-105.64 -37.09,-178.22 -111.28,-218.54 -74.2,-40.32 -183.06,-60.48 -326.61,-60.48 -161.29,0 -274.99,39.51 -341.93,117.74 -48.38,58.06 -79.83,136.28 -95.96,235.47l-648.37 0c14.51,-224.99 77.41,-410.47 189.51,-554.82 179.03,-226.61 485.47,-340.32 919.33,-340.32 283.06,0 533.86,56.45 754.02,168.55 219.35,112.09 329.02,323.38 329.02,633.05l0 1179.81c0,82.26 1.61,181.45 4.84,297.57 4.84,87.9 18.55,147.58 40.32,179.03 22.58,31.45 55.65,57.26 100,77.42l0 101.61 -732.24 0c-20.16,-51.61 -34.68,-100 -42.74,-145.96 -7.26,-45.16 -13.71,-96.78 -18.55,-154.84 -93.55,100.8 -200.8,187.09 -322.57,258.06 -145.97,83.06 -310.48,125 -493.54,125 -234.67,0 -428.22,-66.94 -580.63,-200 -152.42,-133.06 -229.03,-321.77 -229.03,-566.12 0,-316.92 122.58,-545.95 368.54,-687.88 134.67,-77.42 332.25,-132.26 593.53,-165.32l230.64 -28.23z"/>
  <polygon id="2" class="fil10" points="65364.98,1131.97 64692.41,1131.97 64692.41,-2346.98 65364.98,-2346.98 "/>
  <path id="3" class="fil10" d="M67177.84 657.79c195.96,0 346.76,-70.16 452.41,-209.68 105.64,-140.31 158.06,-339.5 158.06,-597.56 0,-257.25 -52.42,-456.44 -158.06,-595.15 -105.65,-139.51 -256.45,-208.87 -452.41,-208.87 -196.77,0 -348.38,69.36 -454.83,208.87 -105.64,138.71 -158.87,337.9 -158.87,595.15 0,258.06 53.23,457.25 158.87,597.56 106.45,139.52 258.06,209.68 454.83,209.68zm1316.9 -809.66c0,377.41 -108.86,700.79 -325.8,968.52 -217.73,268.55 -547.56,402.41 -990.3,402.41 -442.73,0 -772.56,-133.86 -990.3,-402.41 -216.93,-267.73 -325.79,-591.11 -325.79,-968.52 0,-370.96 108.86,-692.73 325.79,-964.5 217.74,-271.76 547.57,-408.05 990.3,-408.05 442.74,0 772.57,136.29 990.3,408.05 216.94,271.77 325.8,593.54 325.8,964.5z"/>
  <path id="4" class="fil10" d="M70368.9 -1505.07c12.09,0 23.38,0 31.45,0.81 8.87,0.81 28.22,2.42 58.06,4.03l0 691.92c-42.74,-5.64 -80.64,-9.68 -113.71,-11.29 -33.06,-2.42 -59.67,-3.22 -79.83,-3.22 -270.96,0 -453.22,87.9 -545.96,264.51 -52.42,99.19 -78.22,252.41 -78.22,458.86l0 1231.42 -672.57 0 0 -2578.97 638.7 0 0 450.79c104.03,-170.96 194.35,-287.89 270.96,-350.8 125.8,-105.64 289.51,-158.06 491.12,-158.06z"/>
  <path id="5" class="fil10" d="M71926.92 -953.47c-173.38,0 -307.25,47.58 -402.41,143.55 -95.16,95.16 -155.64,224.99 -179.83,388.7l1161.26 0c-12.09,-174.19 -71.77,-306.45 -179.83,-396.77 -107.26,-90.32 -240.32,-135.48 -399.19,-135.48zm4.04 -561.27c224.18,0 425.79,40.32 604.82,120.15 179.84,80.65 327.41,207.26 444.35,380.64 105.64,153.22 174.19,330.64 204.83,532.25 18.55,117.74 25.81,287.89 22.58,510.47l-1877.38 0c10.49,259.67 100,441.92 269.35,545.95 102.42,65.33 225.8,97.58 370.96,97.58 153.22,0 277.41,-39.51 373.38,-117.74 52.42,-42.74 98.38,-101.61 138.71,-177.41l691.11 0c-17.74,153.22 -101.61,308.06 -249.19,466.12 -230.64,250.8 -553.21,375.79 -967.72,375.79 -342.73,0 -645.14,-105.64 -906.43,-316.92 -262.09,-211.29 -392.73,-555.64 -392.73,-1032.24 0,-446.76 117.74,-788.69 354.02,-1027.39 236.29,-237.9 542.73,-357.25 919.34,-357.25z"/>
  <path id="6" class="fil10" d="M74069.62 309.41c14.52,120.16 45.16,205.64 92.74,256.44 83.87,90.32 238.7,135.48 465.31,135.48 132.26,0 237.9,-20.16 316.12,-59.67 78.23,-39.52 117.74,-98.39 117.74,-177.42 0,-75.8 -31.45,-133.86 -94.35,-173.38 -62.9,-39.52 -297.57,-107.26 -704.02,-203.22 -292.73,-72.58 -499.18,-162.9 -618.53,-271.77 -120.16,-106.45 -179.84,-261.28 -179.84,-462.09 0,-237.89 93.55,-441.92 280.64,-612.88 187.1,-170.16 449.99,-255.64 789.5,-255.64 321.77,0 584.67,63.7 787.08,191.93 202.42,128.22 319.35,349.99 349.19,664.5l-672.57 0c-9.68,-87.1 -33.87,-155.64 -73.38,-206.45 -74.2,-91.13 -200.81,-137.09 -379.84,-137.09 -146.77,0 -251.6,22.58 -314.5,68.54 -62.1,45.97 -93.55,99.2 -93.55,161.29 0,77.42 33.06,133.06 100,167.74 66.12,36.29 300.8,98.38 703.21,186.29 267.73,63.7 469.34,158.86 604.02,286.28 133.06,129.03 199.18,290.31 199.18,483.86 0,254.83 -95.15,463.7 -285.47,624.98 -190.32,161.29 -483.86,241.93 -882.24,241.93 -405.64,0 -704.82,-85.48 -898.37,-256.44 -193.54,-170.96 -290.31,-388.7 -290.31,-653.21l682.24 0z"/>
  <line class="fil1 str11" x1="29813.97" y1="3102.54" x2="68201.22" y2= "3102.54" />
  <line class="fil1 str12" x1="39915.96" y1="-2351.84" x2="39915.96" y2= "24146.73" />
  <line class="fil1 str12" x1="57364.71" y1="-2351.84" x2="57364.71" y2= "23963.06" />
  <path class="fil11 str0" d="M322.48 4575.61c0,2274.71 1844.01,4118.73 4118.72,4118.73 2274.7,0 4118.72,-1844.02 4118.72,-4118.73l-806.78 0c0,1829.14 -1482.81,3311.94 -3311.94,3311.94 -1829.14,0 -3311.95,-1482.8 -3311.95,-3311.94 0,-1829.13 1482.81,-3311.94 3311.95,-3311.94 642.15,0 1241.64,182.75 1749.25,499.1l426.1 -685.19c-631.27,-393.4 -1376.77,-620.68 -2175.35,-620.68 -2274.71,0 -4118.72,1844.01 -4118.72,4118.71z"/>
  <path class="fil11 str0" d="M1736.58 4575.61c0,1493.71 1210.89,2704.62 2704.62,2704.62 1493.72,0 2704.61,-1210.91 2704.61,-2704.62l-647.3 -0.01c0,1136.23 -921.1,2057.33 -2057.33,2057.33 -1136.21,0 -2057.3,-921.1 -2057.3,-2057.33 0,-1136.21 921.09,-2057.3 2057.3,-2057.3 398.9,0 771.29,113.53 1086.61,310.03l341.88 -549.76c-414.52,-258.32 -904.07,-407.57 -1428.47,-407.57 -1493.73,0 -2704.62,1210.9 -2704.62,2704.61z"/>
  <polygon class="fil11 str0" points="50628.76,20154.38 55245.95,28597.23 44827.87,28597.23 43596.62,28597.23 47467.89,22570.37 48721.54,23824 48749.62,23852.06 "/>
  <path class="fil2 str13" d="M43952.08 25919.38c-371.99,-269.96 -282.55,-126.17 -231.04,-702.26 10.08,-112.62 66.9,-492.84 42.34,-567.81 -75.87,-26.39 -191.74,50.29 -266.34,83.38l-525.79 234.1c-233.5,101.48 -141.53,138.08 -489.01,-114.09 -138.75,-100.69 -72.27,-160.55 48.13,-213.36l1252 -556.54c86.01,-36.55 433.67,-223.98 504.51,-181.67 83.69,49.98 4.44,435.72 -4.04,529.82l-140.76 1362.58c-13.02,132.75 -39,235.43 -190,125.85z"/>
  <path class="fil2 str13" d="M42992.74 27273.45c-375.69,-272.64 -281.59,-129.18 -231.36,-702.2 8.45,-96.39 18.43,-186.85 29.9,-286.18 9.9,-85.72 46.7,-229.98 -2.18,-292.98 -77.37,-0.34 -424.11,171.84 -526.92,216.03 -88.65,38.11 -172.76,76.11 -262.9,117.39 -215.99,98.91 -141.73,124.12 -476.37,-118.74 -210.72,-152.91 56.17,-217.53 298.57,-324.22l1001.54 -446.98c636.93,-271.4 561.46,-324.09 499.94,349.58l-140.4 1362.5c-13,131.84 -40.94,233.84 -189.82,125.8z"/>
  <path class="fil2 str13" d="M44912.26 24636.38c-371.99,-269.96 -282.54,-126.17 -231.03,-702.26 10.07,-112.62 66.89,-492.84 42.33,-567.81 -75.87,-26.39 -191.74,50.29 -266.34,83.38l-525.78 234.1c-233.51,101.48 -141.54,138.08 -489.01,-114.09 -138.76,-100.69 -72.28,-160.55 48.12,-213.36l1252 -556.54c86.01,-36.55 433.67,-223.97 504.51,-181.67 83.69,49.98 4.44,435.72 -4.04,529.82l-140.76 1362.58c-13.02,132.75 -39,235.43 -190,125.85z"/>
  <g id="_2691899477232">
   <ellipse class="fil2 str13" cx="67456.23" cy="6382.51" rx="1308.78" ry="1325.82"/>
   <path class="fil1 str13" d="M64362.4 10126.94c264.91,-1377.14 1494.44,-2418.63 2971.17,-2418.63 1476.73,0 2706.26,1041.49 2971.17,2418.63"/>
   <line class="fil1 str13" x1="64362.4" y1="10126.96" x2="70304.75" y2= "10126.96" />
  </g>
  <g id="_2691899475984">
   <ellipse class="fil2 str13" cx="64095.45" cy="6440.16" rx="996.76" ry="1009.74"/>
   <path class="fil1 str13" d="M61739.21 9291.89c201.75,-1048.82 1138.15,-1842.01 2262.83,-1842.01 490.31,0 944.85,150.76 1318.31,407.72"/>
   <line class="fil1 str13" x1="61739.21" y1="9291.9" x2="63945.82" y2= "9291.9" />
  </g>
  <g id="_2691899475936">
   <ellipse class="fil2 str13" cx="70530.05" cy="6346.01" rx="996.76" ry="1009.74"/>
   <path class="fil1 str13" d="M68991.04 7857.61c395.23,-313.91 898.11,-501.88 1445.58,-501.88 1124.68,0 2061.08,793.19 2262.83,1842.01"/>
   <line class="fil1 str13" x1="70530.05" y1="9197.76" x2="72699.46" y2= "9197.76" />
  </g>
  <line class="fil1 str13" x1="70530.05" y1="7355.74" x2="70530.05" y2= "7357.56" />
  <path class="fil1 str13" d="M65320.35 7857.6c-564.99,363.3 -973.29,841.4 -1224.91,1434.3m0 -1840.19l0 -1.81"/>
  <path class="fil1 str13" d="M70530.05 9197.76c-354.07,-660.63 -867.07,-1107.34 -1539.01,-1340.15"/>
  <line class="fil1 str13" x1="64095.44" y1="9291.9" x2="63945.82" y2= "9291.9" />
  <path class="fil2 str13" d="M67333.57 7708.31c-1476.74,0 -2706.26,1041.49 -2971.17,2418.65l5942.34 -0.02c-264.91,-1377.14 -1494.43,-2418.63 -2971.17,-2418.63z"/>
  <path class="fil2 str13" d="M64095.44 9291.9c251.62,-592.9 659.92,-1071 1224.91,-1434.3 -349.63,-240.57 -770.33,-388.05 -1224.91,-405.89 -30.98,-1.22 -62.12,-1.83 -93.4,-1.83 -1124.68,0 -2061.08,793.19 -2262.83,1842.02l2206.61 0 149.62 0z"/>
  <path class="fil2 str13" d="M68991.04 7857.61c671.94,232.81 1184.94,679.52 1539.01,1340.15l2169.4 -0.02c-196.13,-1019.64 -1086.61,-1797.68 -2169.4,-1840.18 -30.99,-1.22 -62.13,-1.83 -93.43,-1.83 -547.47,0 -1050.35,187.97 -1445.58,501.88z"/>
  <path class="fil2 str13" d="M65873.36 12971.59c-61.9,-150.26 -50.46,-282.09 34.33,-395.51l2203.55 191.24c42.37,3.68 84.74,7.36 133.03,4.43 48.29,-2.92 102.48,-12.45 188.87,-23.93 86.38,-11.47 204.96,-24.89 315.78,-37.81 110.83,-12.92 213.89,-25.32 291.48,-44.68 77.58,-19.36 129.68,-45.67 180.62,-79.2 50.94,-33.53 100.73,-74.28 140.26,-112.95 39.53,-38.67 68.79,-75.27 87.46,-126.42 18.68,-51.16 26.75,-116.87 31.55,-172.19 4.8,-55.33 6.33,-100.26 -3.48,-144.4 -9.8,-44.14 -30.95,-87.48 -53.15,-127.36 -22.2,-39.88 -45.45,-76.29 -69.33,-108.61 -23.88,-32.32 -48.38,-60.53 -75.33,-83.03 -26.94,-22.5 -56.31,-39.28 -451.62,-75.96 -395.3,-36.68 -1156.53,-93.26 -1537.15,-121.54 -380.61,-28.3 -380.61,-28.3 -450.55,-62.83 -69.94,-34.54 -209.83,-103.61 -341.92,-166.66 -132.1,-63.06 -256.43,-120.1 -396.82,-169.64 -140.39,-49.54 -296.84,-91.59 -455.96,-130.3 -159.12,-38.71 -320.9,-74.1 -476.69,-96.52 -155.79,-22.42 -305.59,-31.86 -501.09,-34 -195.5,-2.14 -436.7,3.01 -666.82,10.32 -230.12,7.3 -449.16,16.76 -649.65,24.26 -200.49,7.51 -382.42,13.06 -507.96,24.7 -125.53,11.63 -194.66,29.34 -229.23,38.19 -34.56,8.85 -34.56,8.85 -34.56,8.85l-203.51 2344.8c1333.23,256.74 2510.58,629.33 3532.06,1117.76 828.34,314.48 1730.49,250.45 2706.46,-192.06l4646.03 -3026.59c169.49,-382.31 54.36,-572.57 -345.38,-570.78l-2921.49 1358.18c5.73,43.2 11.45,86.4 17.01,124.83 5.55,38.44 10.93,72.12 12.47,109.01 1.54,36.9 -0.75,77.03 -5.51,118.12 -4.75,41.1 -11.96,83.17 -23.82,131.04 -11.86,47.86 -28.38,101.54 -49.92,144.73 -21.54,43.2 -48.09,75.93 -84.12,115.22 -36.03,39.29 -81.51,85.16 -126.88,122.74 -45.36,37.56 -90.6,66.85 -134.84,91.47 -44.24,24.62 -87.48,44.59 -129.29,61.71 -41.81,17.13 -82.19,31.42 -133.95,47.09 -51.76,15.66 -114.91,32.72 -171.97,47.93 -57.06,15.21 -108.04,28.57 -159.5,40.72 -51.45,12.13 -103.4,23.04 -155.39,34.54 -52,11.48 -104.04,23.57 -158.31,27.16 -54.27,3.59 -110.78,-1.32 -139.02,-3.76 -28.25,-2.45 -28.25,-2.45 -28.25,-2.45l-2648.5 -229.86z"/>
  <path class="fil2 str13" d="M62101.88 13147.48l187.45 -2159.77c17.97,-207.09 -150.98,-392.46 -375.44,-411.95 -224.47,-19.48 -422.82,134.02 -440.79,341.11l-187.45 2159.77c-17.97,207.09 150.97,392.47 375.44,411.95 224.46,19.48 422.82,-134.02 440.79,-341.11z"/>
  <path class="fil2 str13" d="M51503.09 11885.41c-41.57,175.22 -223.3,554.95 -321.19,642.54 -49.08,117.92 -300.3,407.36 -381.62,494.09 -58.05,61.9 -387.85,348.13 -478.68,380.84 -39.5,71.53 -59.01,68.75 -130.63,108.64 -57.82,32.19 -83.92,56.72 -144.4,79.57 -122.96,46.46 -205.15,102.96 -328.46,140.36 -132.74,44.23 -423.44,161.68 -569.24,155.95 -81.46,52.34 -255.8,53.62 -366.16,57.49l-290.3 9.33 -294.09 -20.34 -290.3 -50c-223.84,-23.42 -491.05,-115.02 -657.23,-213.45 -360.8,-140.45 -808.62,-502.58 -1061.46,-805.04 -166.09,-198.69 -339.64,-396.96 -441.38,-659.61l-51.42 -69.83c-54.67,-102.88 -157.39,-437.35 -176.96,-539.5l-47.37 -266.79c-32.13,-56.13 -40.26,-177.34 -45.31,-259.1l0.79 -499.04c6.34,-82.51 10.79,-201.45 44.52,-259.1l40.03 -230.36c16.3,-96.42 139.07,-566.31 230.73,-633.71 65.71,-184.57 192.39,-327.03 283.66,-468.3 147.59,-228.45 346.18,-401.45 555.42,-582.39 151.09,-130.66 513.83,-394.78 681.65,-417.05 93.73,-106.39 445.22,-187.8 621.49,-219.24l307.65 -51.88 305.06 -20.34 284.82 8.91c109.79,3.92 283.76,7.99 366.16,56.62l269.66 50.48c181.55,54.87 561.62,204.41 732.12,304.24 42.1,24.64 81.14,42.08 115.24,67.68 30.35,22.78 71.12,61.69 91.79,76.54l469.9 400.21c98.06,103.05 323,375.14 379.58,502.22 83.73,87.71 125.4,169.08 172.23,289.88 38.19,98.53 94.23,202.95 129.9,317.59 111.11,323.24 183.73,706.39 182.13,1077.89 -1.28,297.3 -76.44,793.83 -188.33,1044zm-6503.16 -2735.24c-69.94,205.76 -147.93,385.38 -219.14,607.87 -95.64,360.36 -155.11,687.44 -152.54,1083.4 1.1,169.22 20.42,408.33 43.17,567.7 23.72,166.18 78.59,321.24 109.26,492.4 21.39,44.89 95.11,248.75 112.33,308.78 30.6,106.65 84.2,217.44 122.6,312.17 52.64,59.61 117.1,228.76 169.46,308.43 71.52,108.84 123.16,183.2 185.38,286.43 76.42,97.2 204.91,215.48 276.58,330.83 71.87,115.67 190.22,185.09 307.45,304.03 113.68,115.35 72.16,58.26 158.83,124.08 3.38,2.57 7.72,6.67 11.03,9.32 25.69,20.46 5.93,7.64 45.09,36.74 312.25,232.07 638.88,430.87 1004.45,571.76 -365.56,-28.2 -1131,-368.56 -1421.48,-518.41 -96.55,-37.23 -232.8,-119.8 -319.41,-173 -87.9,-54 -200.27,-107.86 -295.66,-166.04l-319.32 -193.39c-169.11,-113.36 -327.92,-201.92 -476.23,-337.61 -55.17,-50.48 -96.95,-73.27 -154.96,-108.75 -85.42,-52.24 -226.29,-164.76 -283.69,-246.69 -76.95,-43.15 -69.2,-46.09 -134.51,-107.6 -48.96,-46.11 -82.88,-52.91 -131.26,-110.04l-39.29 -46.74c-52.01,-32.5 -115.62,-82.3 -157.31,-126.35 -25.32,-26.76 -39.53,-48.96 -66.1,-75.88 -38.25,-38.77 -35.67,-21.94 -67.41,-74.93 -109.3,-55.34 -238.46,-210.92 -314.43,-295.1 -44.19,-48.97 -97.87,-110.16 -147,-158.65 -76.3,-75.27 -106.37,-66.12 -143.44,-161.6l-251.41 -284.14c-58.47,-41.33 -121.59,-99.3 -153.72,-144.27l-61.26 -81.92c-26.61,-31.8 -32.94,-43.91 -58.9,-83.54 -126.74,-193.51 -264.08,-194 -69.45,-321.31l1253.28 -1394.37c103.54,-127.11 111.93,-70.42 274.71,-253.07l580.49 -456.95c34.37,-97.65 537.33,-423.47 587.67,-452.18 125.33,-71.47 546.03,-336.38 646.8,-371.42 184.73,-153.6 961.81,-444.72 1191.78,-531.05 872.9,-327.68 2052.59,-425.59 2980.77,-246.3 245.26,47.38 459.52,110.76 685.13,169.73 93.19,24.36 572.14,189.46 616.56,225.88 115.93,29.55 216.63,92.89 341.06,134.58 105.44,35.34 201.78,87.65 279.9,161.36 187.68,73.92 317.71,191.32 483.48,276.19 86.58,44.33 138.66,96.86 217.5,149.85 76.43,51.36 136.57,89.31 211.43,147.85 80.83,31.54 136.62,84.98 199.05,131.42l192.59 132.66c69.52,62.39 95.22,96.62 171.75,154.01 134.9,101.15 62.36,18.11 179.95,145.15 103.98,112.32 321.19,257.44 351.26,299.42 80.68,112.64 48.03,89.17 159.31,164.3 178.93,120.81 177.11,183.25 231.22,238.68 93.3,95.58 45.45,15.67 240.4,248.75 56.23,67.22 124.11,101.46 167.74,155.98 154.81,193.46 129.35,186.76 295.26,335.16l140.71 185.18c100.6,129.73 207.21,208.32 283.85,351.4l-163.99 206.65 -368.85 444.93c-55.02,64.13 -81.54,59.6 -127.05,136.08 -72.03,121.03 -25.14,56.47 -129.17,136.08 -110.65,84.69 -178.9,232.64 -242.56,287.16l-263.48 263.51c-71.04,83.03 -168,91.07 -285.73,244.11 -65.06,84.57 -93.3,91.53 -212.64,193.62l-511.53 406.28c-67.71,54.53 -146.65,110.92 -219.46,163.89 -78.39,57.02 -119.55,101.86 -211.71,155.18 -158,91.41 -288.45,203.4 -452.17,296 -139.18,125.83 -724.03,394.95 -958.12,478.46 -144.64,92.92 -977.78,345.51 -1159.71,359.93 28.44,-2.31 316.28,-108.11 360.27,-128.09 537.15,-243.92 1012.84,-602.59 1406.59,-1037.15 28.23,-31.16 27.64,-40.78 50.13,-71.82 21.06,-29.09 33.77,-40.02 55.02,-67.01l299.34 -420.62c26.24,-55.53 288.95,-616.89 310.16,-637.59l82.64 -270.83c10.55,-82.01 115.01,-617.55 138.84,-650.88l6.54 -290 0 -294.09 -15.51 -310c-62.63,-124.32 -68.47,-430.17 -126.85,-605.16l-96.97 -316.02c-26.42,-40.71 -43.22,-103.54 -63.12,-150.16 -35.79,-83.85 -42.1,-61.94 -74.98,-151.3 -36.9,-100.27 -104.03,-226.52 -151.18,-300.56 -49.89,-77.69 -85.36,-156.18 -130.63,-227.96l-152.18 -193.9c-217.56,-300.93 -589.01,-644.1 -902.26,-848.17 -64.93,-42.3 -140.16,-101.91 -205.26,-141.39 -977.78,-592.96 -2262.56,-695.51 -3375.48,-298.24 -212.35,75.8 -731.39,341.64 -914.76,490.83 -515.09,419.11 -651.04,531.31 -1015.26,1080.25l-250.28 437.79zm2893.33 -2820.08l-316.02 43.95c-418.53,47.04 -841.85,214.51 -1234.97,311.1 -44.51,30.09 -210.22,76.09 -281.86,110.25 -98.37,46.9 -191.08,90.9 -287.67,120.96 -93.81,72.86 -524.17,272.92 -643.93,322.95 -86.8,71.48 -190.51,99.35 -286.44,168.05 -96.77,69.31 -192.91,129.63 -289.85,180.11l-157.61 127.63c-62.96,39.37 -102.44,67.47 -161.8,102.54 -233.31,137.86 -137.52,128.12 -317.38,231.73 -142.72,82.21 -549.8,454.19 -603.76,473.6l-326.66 302.88c-55.51,59.42 -102.38,91.73 -158.46,147.54l-746.31 795.11c-54.25,72.27 -121.81,141.12 -179.4,211.13l-262.46 327.33c-47.35,65.81 -33.72,62.12 -67.15,114.5 -68.14,106.76 -114.91,89.06 -132.27,257.23l-2.81 284.52c29.01,36.77 17.02,32.87 39.26,67.22 18.29,28.28 -1.76,4.74 36.18,46.93 168.98,187.89 128.99,221.52 313.42,396.58 54.8,52.01 25.85,33.43 67.84,95.47l835.63 912.69c120.52,120.59 217.3,210.5 360.48,351.19l181.19 163.8c62.84,47.48 55.48,9.08 111.14,72.93 50.83,58.32 -4.09,24.59 76.12,86.43l789.75 613.45c103.66,53.99 187.63,117.54 292.31,196.68 83.96,63.47 210.71,112.05 297.34,183.18 152.97,81.18 305.65,167.7 449.72,248.7l417.79 190.62c4.1,2.19 9.38,4.93 13.23,7.31l44.67 38.56 296.66 122.34c203.09,92.31 449.29,126.55 635.27,230.61l280.78 74.44c431.16,82.64 763.83,154.37 1217.6,192.64l310.54 13.07 300 -2.33 310.11 -18.01c206.85,-32.74 408.9,-36.57 616.46,-83.78 197.37,-44.9 399.89,-78.51 598.28,-134.66l303.22 -84.27 611.94 -241.13c101.03,-42.98 203.09,-81.75 293.77,-130.31 97.55,-52.25 207.18,-132.26 302.35,-146.13 46.04,-47.68 225.7,-156.73 299.05,-190.97 127.48,-59.49 210.21,-119.49 322.44,-190.96 82.02,-31.85 555,-375.58 618.03,-431.92l440.41 -354.01c74.8,-65.71 61.43,-70.17 145.43,-117.27l52.78 -43.58c18.65,-62.88 78.24,-72.72 130.44,-120.58 74.65,-68.45 43.14,-76.31 140.25,-127.85 11.5,-35.73 1.03,-25.26 36.76,-36.76 67.6,-80.54 170.46,-160.29 251.47,-239.25 26.29,-30.58 52.04,-56.34 82.62,-82.62l208.21 -217.4c30.23,-28.77 7.72,-8.76 34.32,-29.63l33.48 -41.2c39.13,-65.73 72.06,-93.93 137.12,-151.42 64.67,-57.13 60.9,-94.27 129.9,-137.22l35.65 -36.28 454.98 -549.52c108.11,-115.06 178.7,-191.52 257.64,-350.73 14.86,-59.01 12.58,-288.92 6.21,-355.1 -27.09,-140.44 -100.29,-154.65 -142.55,-249.52 -123.28,-90.33 -166.64,-205.02 -365.36,-406.93l-192.44 -256.07c-53.3,-72.47 -93.64,-61.01 -157.71,-146.29 -54.12,-72.05 -57.78,-96 -137.43,-167.93 -270.45,-244.23 -162.9,-188.71 -292.64,-317.62l-404.43 -368.68c-44.46,-36.59 -3.37,1.4 -41.4,-38.93 -128.41,-136.14 -270.36,-238.22 -399.49,-352.87 -34.6,-30.71 -10.05,-2.89 -44.46,-37.92 -120.54,-122.75 -341.31,-240.56 -411.06,-342.74 -79.25,-56.64 -147.88,-101.15 -226.09,-159.2 -92.04,-68.33 -129.4,-102.25 -226.22,-160.13 -160.13,-95.72 -278.42,-205.8 -451.47,-295.24 -109.39,-41.12 -204.95,-123.67 -322.72,-170.08 -95.12,-37.47 -230.39,-113.44 -322.25,-170.67l-275.59 -125.46c-100.62,-40.44 -579.85,-214.9 -624.1,-252.32l-291.06 -75.3 -604.63 -140.38 -290.3 -49.2 -319.81 -32.14 -316.02 -14.84 -294.09 -3.27 -127.3 -8.04c-95.85,46.74 -350.28,33.94 -482.81,48.71z"/>
  <path class="fil2 str13" d="M49528.53 11672.18c-371.05,-495.85 -313.3,-275.1 -17.17,-995.97 57.89,-140.93 282.71,-607.6 281.02,-713.88 -87.12,-64.24 -266.83,-11.78 -376.05,1.05l-770.08 91.51c-341.01,37.45 -237.24,121.25 -583.84,-341.92 -138.4,-184.95 -28.96,-235.47 147.07,-255.4l1833.35 -216.77c125.28,-12.72 647.49,-115.24 721.78,-32.53 87.77,97.71 -168.12,562.54 -216.57,680.26l-724.77 1697.48c-69.72,165.66 -144.12,287.44 -294.74,86.17z"/>
  <path class="fil2 str13" d="M47753.65 13032.13c-374.73,-500.77 -310.87,-278.6 -17.62,-996.03 49.34,-120.69 98.26,-233.12 152.66,-356.38 46.94,-106.37 151.85,-277.35 114.09,-377.94 -99.45,-31.31 -614.4,51.96 -764.33,67.81 -129.31,13.68 -252.71,29.03 -385.2,46.2 -317.44,41.13 -231.92,103.2 -565.71,-342.87 -210.19,-280.87 159.08,-257.56 513.61,-298.16l1467.3 -175.68c928.01,-95.18 851.89,-193.11 503.95,649.35l-724.26 1697.53c-69.33,164.49 -145.99,284.61 -294.49,86.17z"/>
  <g id="_2691899471520">
   <path class="fil2 str13" d="M54135.4 35846.29c1191.71,-111.29 2379.89,850.63 2464.22,2153.23 132.27,2042.34 -2257.08,3273.24 -3864.72,1877.19 -410.92,-356.66 -717.99,-965.81 -759.79,-1561.19 -87.87,-1255.8 832.23,-2345.32 2160.29,-2469.23zm-4902.61 -671.19c604.13,-110.89 1096.96,329.18 1176.85,834.1 93.06,589.27 -336.06,1071.33 -823.53,1154.56 -617.3,105.52 -1082.26,-327.14 -1171.44,-832.25 -106.26,-600.02 327.69,-1066.3 818.12,-1156.41zm-221.44 2700.52c242.99,-35.3 612.3,-31.21 851.95,16.35 240.19,47.36 401.8,176.47 539.84,344.96 153.43,187.63 141.36,414.09 257.11,628.46 90.83,168.3 274.18,351.11 434.51,449.57 214.92,132.27 380.45,162.54 547.83,336.97 142.29,148.43 255.61,364.29 384.15,501.2 325.67,347.02 528.33,549.32 987.56,781.73 931.62,471.47 2016.87,351.09 2844.84,-133.76 1192.27,-698.5 1837.63,-2252.62 1331.77,-3649.42 -83.76,-231.27 -164.76,-407.57 -284.59,-600.78 -119.07,-191.89 -228.87,-328.07 -386.39,-497.67 -261,-280.5 -594.27,-536.5 -1041.43,-727.47 -273.63,-117.04 -378.77,-122.43 -576.06,-309.48 -143.04,-135.44 -296.67,-291.3 -467.94,-417.05 -329.56,-242.25 -691.81,-486.72 -1224.42,-563.44 -436.55,-62.79 -838.74,153.62 -1070.19,470.73 -34.56,47.57 -62.43,80.63 -92.52,123.18 -133.39,187.8 -190.97,398.1 -391.41,492.83 -318.41,150.47 -1015.96,-214.93 -1302.79,-373.77 -196.74,-109.04 -352.22,-211.96 -615.65,-269.37 -896.51,-195.61 -1239.63,327.89 -2015.76,581.65 -422.08,138.03 -664.51,197.84 -885.19,-236.29 -68.92,-135.61 -272.9,-402.76 -382.51,-502.69 -504.9,-459.97 -1122.96,-302.81 -1652.22,-36.79 -353.51,177.79 -521.64,349.98 -781.51,575.32 -505.86,438.6 -123.54,191.54 -817.94,498.24 -2018.58,891.68 -2451.6,3683.04 -741.59,5119.97 689.38,579.21 1557.48,911.56 2713.89,667.45 639.77,-135.04 1242.04,-598.72 1613.57,-1060.55 126.14,-156.78 244.84,-369.3 390.31,-493.58 144.71,-123.35 381.94,-210.28 556.56,-328.62 734.9,-497.67 239.65,-1237.79 1276.22,-1387.88z"/>
   <path class="fil12 str13" d="M44248.7 35845.14c-1328.06,123.91 -2248.17,1213.44 -2160.3,2469.23 41.8,595.39 348.87,1204.52 759.79,1561.2 1607.64,1396.05 3997,165.15 3864.73,-1877.19 -84.34,-1302.61 -1272.51,-2264.52 -2464.22,-2153.24z"/>
   <path class="fil12 str13" d="M54114.93 35845.14c-1328.06,123.91 -2248.17,1213.44 -2160.3,2469.23 41.79,595.39 348.87,1204.52 759.79,1561.2 1607.64,1396.05 3996.99,165.15 3864.72,-1877.19 -84.34,-1302.61 -1272.51,-2264.52 -2464.21,-2153.24z"/>
   <path class="fil2 str13" d="M49352.12 35177.03c-572.59,53.42 -969.3,523.17 -931.41,1064.61 18.02,256.7 150.41,519.33 327.58,673.11 693.13,601.9 1723.3,71.2 1666.27,-809.35 -36.36,-561.62 -548.64,-976.34 -1062.44,-928.37z"/>
  </g>
 </g>
</svg>
